<?xml version="1.0" standalone="no"?>
<!DOCTYPE svg PUBLIC "-//W3C//DTD SVG 1.1//EN" "http://www.w3.org/Graphics/SVG/1.1/DTD/svg11.dtd" >
<svg xmlns="http://www.w3.org/2000/svg" xmlns:xlink="http://www.w3.org/1999/xlink" version="1.1">
<metadata>
Created by FontForge 20170731 at Tue Mar 16 14:49:50 2021
 By Aleksey,,,
Copyright (c) 1995 ParaGraph Intl., (c) 1998 ParaType Inc., ParaType Ltd. All rights reserved.
</metadata>
<defs>
<font id="FuturaPTCond-ExtraBold" horiz-adv-x="1024" >
  <font-face 
    font-family="Futura PT Cond Extra Bold"
    font-weight="800"
    font-stretch="condensed"
    units-per-em="2048"
    panose-1="2 11 10 6 2 2 4 2 2 3"
    ascent="1563"
    descent="-485"
    x-height="956"
    cap-height="1366"
    bbox="-627 -512 2120 1894"
    underline-thickness="102"
    underline-position="-307"
    unicode-range="U+0020-FB02"
  />
<missing-glyph horiz-adv-x="477" 
 />
    <glyph glyph-name="afii10017.var.accented" unicode="&#x410;`" horiz-adv-x="1089" 
d="M1079 0h-381l-28 174h-248l-31 -174h-381l330 1366h451zM471 465h156q-49 323 -70 573q-4 -32 -11 -96t-11 -96q-28 -200 -64 -381zM819 1778l-180 -303h-203l96 303h287z" />
    <glyph glyph-name="afii10022.var.accented" unicode="&#x415;`" horiz-adv-x="841" 
d="M780 0h-684v1366h684v-322h-315v-198h283v-309h-283v-209h315v-328zM694 1778l-180 -303h-203l97 303h286z" />
    <glyph glyph-name="afii10026.var.accented" unicode="&#x418;`" horiz-adv-x="1138" 
d="M96 0v1366h348v-379q0 -92 -41 -461q88 258 142 398l174 442h323v-1366h-348v365q0 87 23 438q-24 -84 -47 -154t-35 -102t-33.5 -85.5t-28.5 -70.5l-153 -391h-324zM844 1778l-180 -303h-203l96 303h287z" />
    <glyph glyph-name="afii10032.var.accented" unicode="&#x41e;`" horiz-adv-x="1161" 
d="M1100 684q0 -205 -55.5 -353.5t-145.5 -232.5q-129 -123 -317 -123q-191 0 -320 123q-90 84 -145.5 232.5t-55.5 353.5q0 105 16.5 198.5t39 153.5t53.5 112.5t51 76t41 43.5q129 123 320 123q188 0 317 -123q21 -20 41 -43.5t51 -76t53.5 -112.5t39 -153.5t16.5 -198.5z
M582 1047q-40 0 -62 -25q-76 -76 -76 -338t76 -338q22 -24 62 -24q35 0 59 24q76 76 76 338t-76 338q-25 25 -59 25zM854 1778l-180 -303h-203l96 303h287z" />
    <glyph glyph-name="afii10037.var.accented" unicode="&#x423;`" horiz-adv-x="1044" 
d="M10 1366h385l68 -219q53 -163 69 -301q22 157 64 307l57 213h381l-483 -1366h-371l164 461zM797 1778l-181 -303h-202l96 303h287z" />
    <glyph glyph-name="afii10045.var.accented" unicode="&#x42b;`" horiz-adv-x="1540" 
d="M1446 0h-369v1366h369v-1366zM522 0h-426v1366h369v-502h12q137 0 241 -30t175 -107q100 -107 100 -291q0 -212 -116 -323q-120 -113 -355 -113zM465 569v-272q86 -10 127 29q41 38 41 106q0 66 -37 103q-21 21 -57 30.5t-74 3.5zM1044 1778l-180 -303h-202l96 303h286z
" />
    <glyph glyph-name="afii10047.var.accented" unicode="&#x42d;`" horiz-adv-x="993" 
d="M90 37l-20 401q53 -57 96 -78q53 -28 129 -28q102 0 164 51q30 26 52 67t28 87h-318v309h316q-6 40 -27 80t-51 67q-60 56 -158 56q-70 0 -135 -35q-45 -23 -90 -76v383q115 70 268 70q255 0 406 -154q182 -184 182 -537q0 -112 -19 -210t-50.5 -167.5t-63 -116
t-66.5 -81.5q-150 -150 -401 -150q-130 0 -242 62zM633 1778l-180 -303h-203l96 303h287z" />
    <glyph glyph-name="afii10048.var.accented" unicode="&#x42e;`" horiz-adv-x="1681" 
d="M1620 684q0 -205 -55.5 -353.5t-145.5 -232.5q-129 -123 -327 -123q-190 0 -312 119q-86 85 -128.5 210.5t-49.5 244.5h-137v-549h-369v1366h369v-496h145q9 113 55 222t115 176q126 123 322 123q188 0 317 -123q21 -20 41 -43.5t51 -76t53.5 -112.5t39 -153.5
t16.5 -198.5zM1102 1047q-40 0 -62 -25q-75 -75 -75 -338t75 -338q22 -24 62 -24q35 0 59 24q76 76 76 338t-76 338q-25 25 -59 25zM1114 1778l-180 -303h-203l96 303h287z" />
    <glyph glyph-name="afii10049.var.accented" unicode="&#x42f;`" horiz-adv-x="1107" 
d="M41 0l262 539q-94 21 -158 98q-69 87 -69 235q0 216 119 349q72 78 179 111.5t257 33.5h381v-1366h-369v367q0 118 8 180l-211 -547h-399zM643 733v326q-87 11 -139 -41q-41 -41 -41 -119q0 -80 45 -125q45 -41 117 -41h18zM827 1778l-180 -303h-203l97 303h286z" />
    <glyph glyph-name="afii10023.var.accented" unicode="&#x401;`" horiz-adv-x="841" 
d="M780 0h-684v1366h684v-322h-315v-198h283v-309h-283v-209h315v-328zM588 1743l-158 -262l-135 26l121 285zM299 1638q0 -53 -38.5 -92t-92.5 -39t-93.5 39t-39.5 94q0 54 39.5 91.5t93.5 37.5t92.5 -38.5t38.5 -92.5zM846 1638q0 -53 -38.5 -92t-92.5 -39t-93.5 39
t-39.5 94q0 54 39.5 91.5t93.5 37.5t92.5 -38.5t38.5 -92.5z" />
    <glyph glyph-name="afii10065.var.accented" unicode="&#x430;`" horiz-adv-x="1017" 
d="M936 0h-356l6 81l6 81q-91 -182 -246 -182q-58 0 -105.5 24t-78 66t-52.5 92t-33.5 109t-16.5 110t-5 102q0 63 7.5 125t28 130.5t52.5 120t86.5 85t124.5 33.5q149 0 230 -172q-1 12 -4 66.5t-7 84.5h363v-956zM575 520q0 164 -73 164q-22 0 -38.5 -12.5t-26 -37
t-15 -46t-7.5 -55.5t-2.5 -48t-0.5 -41q0 -172 80 -172q15 0 27.5 6t21 18.5t15 25.5t10 33t6 35t3 38t1 35t0 32.5t-0.5 24.5zM782 1389l-180 -304h-203l97 304h286z" />
    <glyph glyph-name="afii10070.var.accented" unicode="&#x435;`" horiz-adv-x="985" 
d="M571 324l347 -2q-37 -166 -147.5 -254t-278.5 -88q-212 0 -324.5 132.5t-112.5 348.5q0 138 50 253t153.5 188t243.5 73q106 0 190 -41.5t135.5 -112.5t78 -160.5t26.5 -191.5q0 -11 -1 -33t-1 -33h-520q0 -147 82 -147q30 0 51.5 19t27.5 49zM414 594h166q-1 29 -8 54.5
t-27 46t-49 20.5q-42 0 -61 -36.5t-21 -84.5zM766 1389l-180 -304h-203l96 304h287z" />
    <glyph glyph-name="afii10074.var.accented" unicode="&#x438;`" horiz-adv-x="1036" 
d="M82 956h340v-268q0 -108 -14 -252q31 96 71 185l152 335h323v-956h-340v256q0 95 13 264q-27 -91 -72 -192l-149 -328h-324v956zM793 1389l-181 -304h-202l96 304h287z" />
    <glyph glyph-name="afii10080.var.accented" unicode="&#x43e;`" horiz-adv-x="997" 
d="M944 479q0 -110 -35 -213t-104 -170q-116 -116 -305 -116t-305 116q-69 68 -104.5 170.5t-35.5 212.5q0 108 35.5 210t104.5 171q117 117 305 117t305 -117q69 -69 104 -170.5t35 -210.5zM500 709q-38 0 -58 -33q-43 -62 -43 -199q0 -135 43 -196q20 -33 58 -33
q37 0 57 33q43 61 43 196q0 137 -43 199q-20 33 -57 33zM772 1389l-180 -304h-203l96 304h287z" />
    <glyph glyph-name="afii10085.var.accented" unicode="&#x443;`" horiz-adv-x="933" 
d="M934 956l-453 -1396h-364l168 479l-285 917h356q6 -23 22.5 -87.5t23.5 -94t20 -86t20 -94t15 -87t12 -93.5q2 12 11 80t13 93.5t13.5 74.5t19.5 88l54 206h354zM741 1389l-180 -304h-203l97 304h286z" />
    <glyph glyph-name="afii10093.var.accented" unicode="&#x44b;`" horiz-adv-x="1409" 
d="M1358 0h-357v956h357v-956zM438 616h131q191 0 279 -84q82 -77 82 -213q0 -147 -86 -229q-92 -90 -273 -90h-489v956h356v-340zM438 225h13q79 0 110 31q21 21 21 55q0 39 -21 58q-28 26 -110 26h-13v-170zM979 1389l-180 -304h-203l96 304h287z" />
    <glyph glyph-name="afii10095.var.accented" unicode="&#x44d;`" horiz-adv-x="800" 
d="M82 29v280q59 -59 158 -59q69 0 114 39q34 30 43 84h-215v217h215q-13 56 -49 84q-42 33 -104 33q-91 0 -162 -66v287q96 49 217 49q186 0 309 -119q62 -62 101 -158t39 -221t-39.5 -225t-104.5 -164q-110 -110 -299 -110q-138 0 -223 49zM598 1389l-180 -304h-203
l96 304h287z" />
    <glyph glyph-name="afii10096.var.accented" unicode="&#x44e;`" horiz-adv-x="1452" 
d="M1399 479q0 -123 -38 -222.5t-101 -162.5q-114 -114 -304 -114q-196 0 -307 116q-96 104 -112 252h-109v-348h-346v956h346v-329h111q18 143 114 239q111 111 297 111q195 0 310 -115q63 -63 101 -162.5t38 -220.5zM954 709q-37 0 -57 -33q-43 -62 -43 -199
q0 -135 43 -196q20 -33 57 -33q38 0 58 33q43 61 43 196q0 137 -43 199q-20 33 -58 33zM999 1389l-180 -304h-203l97 304h286z" />
    <glyph glyph-name="afii10097.var.accented" unicode="&#x44f;`" horiz-adv-x="989" 
d="M61 0l175 328q-78 20 -127 80q-52 66 -52 178q0 175 97 270q45 43 109.5 66.5t115 28.5t119.5 5h409v-956h-356v240q0 14 6 131q-2 -7 -43 -127l-92 -244h-361zM551 512v195h-8q-64 0 -94 -21q-39 -30 -39 -80q0 -46 32 -71q31 -23 99 -23h10zM768 1389l-180 -304h-203
l96 304h287z" />
    <glyph glyph-name="afii10071.var.accented" unicode="&#x451;`" horiz-adv-x="985" 
d="M571 324l347 -2q-37 -166 -147.5 -254t-278.5 -88q-212 0 -324.5 132.5t-112.5 348.5q0 138 50 253t153.5 188t243.5 73q106 0 190 -41.5t135.5 -112.5t78 -160.5t26.5 -191.5q0 -11 -1 -33t-1 -33h-520q0 -147 82 -147q30 0 51.5 19t27.5 49zM414 594h166q-1 29 -8 54.5
t-27 46t-49 20.5q-42 0 -61 -36.5t-21 -84.5zM639 1343l-147 -258l-140 33l97 287zM354 1249q0 -54 -39.5 -93.5t-93.5 -39.5q-56 0 -96.5 39.5t-40.5 95.5q0 55 40 92t95 37q56 0 95.5 -38t39.5 -93zM922 1249q0 -54 -40 -93.5t-94 -39.5q-56 0 -96.5 39.5t-40.5 95.5
q0 55 40 92t95 37q56 0 96 -38t40 -93z" />
    <glyph glyph-name="fi" unicode="fi" horiz-adv-x="1120" 
d="M604 670h-127v-670h-354v670h-103v286h103q0 22 -1 70t-1 76q0 142 31 225q33 88 111.5 138.5t174.5 50.5q68 0 166 -25v-330q-39 35 -72 35q-19 0 -31.5 -8.5t-17 -26t-5.5 -29.5t-1 -34v-142h127v-286zM1069 1255q0 -86 -60.5 -147t-146.5 -61t-146.5 61.5t-60.5 146.5
t61 145t146 60t146 -60t61 -145zM1038 0h-354v956h354v-956z" />
    <glyph glyph-name="fl" unicode="fl" horiz-adv-x="1120" 
d="M604 670h-127v-670h-354v670h-103v286h103q0 22 -1 70t-1 76q0 142 31 225q33 88 111.5 138.5t174.5 50.5q68 0 166 -25v-330q-39 35 -72 35q-19 0 -31.5 -8.5t-17 -26t-5.5 -29.5t-1 -34v-142h127v-286zM1038 0h-354v1493h354v-1493z" />
    <glyph glyph-name=".notdef" horiz-adv-x="477" 
 />
    <glyph glyph-name=".null" horiz-adv-x="0" 
 />
    <glyph glyph-name="nonmarkingreturn" horiz-adv-x="682" 
 />
    <glyph glyph-name="space" unicode=" " horiz-adv-x="477" 
 />
    <glyph glyph-name="exclam" unicode="!" horiz-adv-x="659" 
d="M514 492h-360v921h360v-921zM537 186q0 -86 -60.5 -146t-146.5 -60q-85 0 -146 60.5t-61 145.5q0 86 60.5 147.5t146.5 61.5t146.5 -61.5t60.5 -147.5z" />
    <glyph glyph-name="quotedbl" unicode="&#x22;" horiz-adv-x="845" 
d="M762 1366l-49 -549h-197l-49 549h295zM379 1366l-51 -549h-195l-49 549h295z" />
    <glyph glyph-name="numbersign" unicode="#" horiz-adv-x="1228" 
d="M1241 1020l-37 -238h-205l-26 -170h207l-35 -239h-209l-59 -373h-275l62 373h-175l-59 -373h-270l61 373h-209l37 239h207l29 170h-207l37 238h207l55 346h270l-57 -346h174l55 346h273l-56 -346h205zM727 782h-174l-27 -170h174z" />
    <glyph glyph-name="dollar" unicode="$" horiz-adv-x="1089" 
d="M868 1323v-414q-52 66 -105 106t-118 40q-37 0 -64.5 -21.5t-27.5 -58.5q0 -29 19.5 -55.5t50 -51t68 -51.5t75 -62t68 -77.5t50 -104.5t19.5 -135q0 -158 -92 -286q-36 -51 -72.5 -79.5t-97.5 -58.5v-207h-172v175q-93 3 -148 14.5t-133 46.5v426q42 -66 104 -110
t132 -44q45 0 76.5 22.5t31.5 65.5q0 31 -25.5 64.5t-63.5 63t-83 71t-83 86t-63.5 112.5t-25.5 146q0 180 111 309q40 47 78 72t104 53v191h170v-180q66 -9 110 -23t107 -45z" />
    <glyph glyph-name="percent" unicode="%" horiz-adv-x="1488" 
d="M647 1028q0 -99 -31 -177.5t-98 -127.5t-160 -49q-148 0 -225.5 97.5t-77.5 258.5q0 155 78 249.5t221 94.5q138 0 215.5 -97t77.5 -249zM408 1030q0 144 -56 144q-57 0 -57 -152q0 -150 57 -150q56 0 56 158zM1137 1366l-590 -1366h-189l594 1366h185zM1436 344
q0 -99 -31 -177.5t-98 -127.5t-160 -49q-148 0 -225.5 97.5t-77.5 258.5q0 155 78 249.5t221 94.5q138 0 215.5 -97t77.5 -249zM1196 346q0 143 -55 143q-58 0 -58 -151q0 -150 58 -150q55 0 55 158z" />
    <glyph glyph-name="ampersand" unicode="&#x26;" horiz-adv-x="1290" 
d="M1270 0h-400l-53 74q-151 -99 -303 -99q-178 0 -305 122.5t-127 299.5q0 118 62.5 209.5t172.5 153.5q-106 133 -106 268q0 154 113 258.5t268 104.5q104 0 198.5 -45.5t155 -131.5t60.5 -192q0 -204 -232 -356l133 -177q51 51 127 158l189 -250q-74 -80 -142 -143z
M694 1038q0 29 -22 50.5t-51 21.5q-30 0 -53 -21t-23 -51q0 -24 12 -51.5t22 -42.5t31 -43q26 25 40.5 40.5t29 43t14.5 53.5zM631 328l-135 178q-64 -36 -64 -100q0 -45 30 -79t75 -34q43 0 94 35z" />
    <glyph glyph-name="quotesingle" unicode="'" horiz-adv-x="460" 
d="M379 1366l-51 -549h-195l-49 549h295z" />
    <glyph glyph-name="parenleft" unicode="(" horiz-adv-x="686" 
d="M616 -303l-264 -141q-256 453 -256 974q0 523 256 979l264 -141q-204 -411 -204 -838q0 -209 54.5 -425t149.5 -408z" />
    <glyph glyph-name="parenright" unicode=")" horiz-adv-x="684" 
d="M332 -444l-264 141q95 192 149.5 408t54.5 425q0 427 -204 838l264 141q256 -456 256 -979q0 -521 -256 -974z" />
    <glyph glyph-name="asterisk" unicode="*" horiz-adv-x="1091" 
d="M930 1130l-217 -57l143 -174l-188 -135l-121 190l-121 -190l-188 135l143 174l-219 57l71 222l211 -84l-14 225h232l-13 -225l209 84z" />
    <glyph glyph-name="plus" unicode="+" 
d="M956 573h-311v-313h-266v313h-311v246h311v314h266v-314h311v-246z" />
    <glyph glyph-name="comma" unicode="," horiz-adv-x="600" 
d="M539 326l-240 -656h-291l168 656h363z" />
    <glyph glyph-name="hyphen" unicode="-" horiz-adv-x="649" 
d="M547 381h-445v274h445v-274z" />
    <glyph glyph-name="period" unicode="." horiz-adv-x="602" 
d="M508 184q0 -84 -61 -144t-146 -60q-86 0 -147.5 61t-61.5 147q0 85 61 145t146 60q86 0 147.5 -61.5t61.5 -147.5z" />
    <glyph glyph-name="slash" unicode="/" horiz-adv-x="1280" 
d="M1194 1493l-1040 -1935h-246l1040 1935h246z" />
    <glyph glyph-name="zero" unicode="0" horiz-adv-x="1089" 
d="M1028 688q0 -80 -9 -157.5t-29 -160t-56.5 -151.5t-86.5 -125t-124 -87.5t-164 -31.5q-112 0 -200.5 45t-142.5 116.5t-89.5 168.5t-49.5 192t-14 197q0 98 14.5 191t50.5 186.5t90 163t139.5 113t193.5 43.5q107 0 192 -44.5t137.5 -115t86.5 -165.5t47.5 -188
t13.5 -190zM664 643v86q0 36 -1 68t-8 86.5t-19 92t-36.5 66.5t-58.5 29q-115 0 -115 -338q0 -99 8 -178q0 -4 2 -27l3 -34.5t4 -36.5t7 -40t9.5 -36.5t13.5 -34.5t18 -26t24 -19t30 -6q119 0 119 348z" />
    <glyph glyph-name="one" unicode="1" horiz-adv-x="1089" 
d="M791 0h-369v1044h-148v322h517v-1366z" />
    <glyph glyph-name="two" unicode="2" horiz-adv-x="1089" 
d="M483 870h-358q-2 16 -2 50q0 203 126.5 337t328.5 134q195 0 316.5 -126t121.5 -321q0 -93 -29.5 -184t-83 -172.5t-112 -148t-134.5 -136.5q75 5 340 10v-313h-938l373 498q50 68 77.5 107.5t67.5 107.5t59 130t19 122q0 47 -21.5 84.5t-64.5 37.5q-88 0 -88 -167
q0 -34 2 -50z" />
    <glyph glyph-name="three" unicode="3" horiz-adv-x="1089" 
d="M463 977h-357q14 188 134 301t309 113q113 0 210 -49.5t156.5 -141.5t59.5 -207q0 -193 -166 -286q182 -107 182 -318q0 -127 -64.5 -222.5t-168.5 -143.5t-230 -48q-190 0 -319 109.5t-129 296.5v20h360q0 -122 90 -122q49 0 75 38t26 89q0 68 -40 105.5t-108 37.5
q-19 0 -65 -4v291q14 -2 45 -2q76 0 113.5 32t37.5 107q0 45 -18.5 78.5t-60.5 33.5q-67 0 -72 -108z" />
    <glyph glyph-name="four" unicode="4" horiz-adv-x="1089" 
d="M1036 276h-116v-276h-369v276h-496v289l412 801h453v-795h116v-295zM360 571h203q4 256 15 410q-132 -278 -218 -410z" />
    <glyph glyph-name="five" unicode="5" horiz-adv-x="1089" 
d="M559 1044l-29 -153q20 2 62 2q173 0 286 -124t113 -298q0 -142 -70 -256.5t-188 -177t-260 -62.5q-194 0 -377 107l45 324q158 -95 291 -95q78 0 134.5 40t56.5 114q0 43 -20 74t-54 47t-70 23t-76 7q-115 0 -239 -47l104 797h680v-322h-389z" />
    <glyph glyph-name="six" unicode="6" horiz-adv-x="1089" 
d="M827 1366l-219 -389q-29 -54 -67 -107q69 37 131 37q80 0 146 -40.5t106.5 -105t62 -140t21.5 -150.5q0 -217 -130.5 -356.5t-345.5 -139.5q-139 0 -242 68t-153.5 178.5t-50.5 247.5q0 69 18.5 152t40.5 149t66.5 163.5t70.5 148.5t80.5 153t69.5 131h395zM653 465
q0 30 -4 57t-14.5 56t-32.5 46t-53 17q-32 0 -54 -18t-31.5 -48.5t-13.5 -57.5t-4 -58q0 -189 103 -189q104 0 104 195z" />
    <glyph glyph-name="seven" unicode="7" horiz-adv-x="1089" 
d="M1092 1366l-615 -1366h-397l330 727q63 142 176 317h-463v322h969z" />
    <glyph glyph-name="eight" unicode="8" horiz-adv-x="1089" 
d="M1012 389q0 -125 -67 -221.5t-172 -144.5t-228 -48q-88 0 -171 29.5t-148.5 82t-105.5 131t-40 169.5q0 231 231 324q-205 69 -205 286q0 117 61 208.5t159 138.5t213 47t215.5 -44t166.5 -134t66 -207q0 -206 -188 -295q109 -46 161 -124t52 -198zM623 977q0 45 -19 82
t-59 37q-27 0 -45 -20t-23.5 -44t-5.5 -51q0 -28 5.5 -53.5t24 -47.5t46.5 -22q27 0 45.5 21t24.5 46t6 52zM635 430q0 52 -21.5 94.5t-68.5 42.5q-32 0 -53.5 -25t-29 -55.5t-7.5 -60.5q0 -32 8 -61t29.5 -51.5t54.5 -22.5q25 0 43 13.5t27.5 35.5t13.5 44.5t4 45.5z" />
    <glyph glyph-name="nine" unicode="9" horiz-adv-x="1089" 
d="M657 0h-395q13 23 53 96t59.5 107.5t52.5 93t62 106t58 93.5q-64 -39 -129 -39q-80 0 -146 40.5t-106.5 105t-62 140t-21.5 150.5q0 216 130 357t345 141q139 0 242 -67.5t154 -178.5t51 -248q0 -69 -18.5 -151.5t-41 -149.5t-66.5 -163.5t-71 -148.5t-80.5 -152.5
t-69.5 -131.5zM643 907q0 189 -100 189q-107 0 -107 -195q0 -30 4.5 -58t15 -56.5t33 -46t54.5 -17.5q100 0 100 184z" />
    <glyph glyph-name="colon" unicode=":" horiz-adv-x="602" 
d="M508 768q0 -85 -61 -145t-146 -60q-86 0 -147.5 61.5t-61.5 147.5q0 85 61 145t146 60q86 0 147.5 -61.5t61.5 -147.5zM508 184q0 -84 -61 -144t-146 -60q-86 0 -147.5 61t-61.5 147q0 85 61 145t146 60q86 0 147.5 -61.5t61.5 -147.5z" />
    <glyph glyph-name="semicolon" unicode=";" horiz-adv-x="600" 
d="M575 768q0 -86 -60 -145.5t-146 -59.5t-146.5 61.5t-60.5 147.5q0 85 60 145t145 60q86 0 147 -61.5t61 -147.5zM539 326l-240 -656h-291l168 656h363z" />
    <glyph glyph-name="less" unicode="&#x3c;" 
d="M956 119l-888 454v224l888 450v-262l-608 -301l606 -303z" />
    <glyph glyph-name="equal" unicode="=" 
d="M956 758h-888v231h888v-231zM956 403h-888v232h888v-232z" />
    <glyph glyph-name="greater" unicode="&#x3e;" 
d="M956 571l-888 -452v264l608 301l-606 301l-2 262l888 -452v-224z" />
    <glyph glyph-name="question" unicode="?" horiz-adv-x="1040" 
d="M82 979q0 92 10 146t47 118q53 93 157 144t218 51q196 0 320 -126.5t124 -322.5q0 -133 -66 -232t-196 -134v-131h-350v325q36 -4 55 -4q97 0 144 40.5t47 129.5q0 23 -3 45.5t-10.5 48.5t-24 42t-40.5 16q-78 0 -78 -156h-354zM317 188q0 86 60.5 146.5t146.5 60.5
t146.5 -60.5t60.5 -146.5q0 -85 -60.5 -146.5t-146.5 -61.5t-146.5 61t-60.5 147z" />
    <glyph glyph-name="at" unicode="@" horiz-adv-x="1501" 
d="M1167 201l41 -164q-183 -62 -407 -62q-161 0 -289 43q-201 68 -322.5 251.5t-121.5 402.5q0 148 56.5 281.5t152.5 228.5t229.5 151t281.5 56q131 0 248.5 -43.5t205.5 -120.5t140 -191t52 -248q0 -104 -35 -200q-40 -109 -120.5 -190t-180.5 -81q-54 0 -99.5 30
t-60.5 81q-42 -61 -110 -95t-144 -34q-85 0 -152 46t-102 118.5t-35 156.5q0 74 27 147.5t73 131.5t114.5 94.5t144.5 36.5q60 0 113.5 -25t84.5 -73l15 78l182 -2l-76 -388q-12 -58 -12 -88q0 -65 45 -65q41 0 75 37t53 91t29.5 105t10.5 88q0 133 -65 234.5t-172.5 153
t-239.5 51.5q-154 0 -280.5 -74t-198.5 -201.5t-72 -281.5q0 -107 39 -208t112 -177q139 -144 400 -144q187 0 370 62zM907 696q0 58 -36 100t-93 42q-75 0 -124.5 -66.5t-49.5 -144.5q0 -61 35 -102.5t94 -41.5q75 0 124.5 67.5t49.5 145.5z" />
    <glyph glyph-name="A" unicode="A" horiz-adv-x="1089" 
d="M1079 0h-381l-28 174h-248l-31 -174h-381l330 1366h451zM471 465h156q-49 323 -70 573q-4 -32 -11 -96t-11 -96q-28 -200 -64 -381z" />
    <glyph glyph-name="B" unicode="B" horiz-adv-x="1085" 
d="M96 1366h428q188 0 293 -61q86 -50 133 -137t47 -189q0 -125 -65 -197t-189 -82q281 -36 281 -309q0 -178 -116 -284.5t-296 -106.5h-516v1366zM465 1069v-233q8 -2 22 -2q62 0 104 29.5t42 88.5t-35.5 89t-95.5 30q-25 0 -37 -2zM465 557v-260q10 -2 31 -2
q66 0 108.5 34t42.5 99q0 66 -42.5 98.5t-110.5 32.5q-5 0 -14.5 -1t-14.5 -1z" />
    <glyph glyph-name="C" unicode="C" horiz-adv-x="911" 
d="M864 420l-22 -395q-63 -28 -109.5 -39t-109.5 -11q-114 0 -209 40t-159 107.5t-108.5 158t-65 190.5t-20.5 207q0 114 23 218t71.5 195t119 157.5t171 104.5t220.5 38q57 0 94.5 -7t87.5 -28v-389q-40 42 -79 62t-91 20q-56 0 -99.5 -23.5t-69.5 -60t-42.5 -86t-22.5 -97
t-6 -98.5q0 -49 6 -95t22.5 -94t42 -83t67.5 -57.5t96 -22.5q55 0 99 22t93 66z" />
    <glyph glyph-name="D" unicode="D" horiz-adv-x="1099" 
d="M96 1366h318q153 0 273 -51t196 -143t115.5 -216t39.5 -274q0 -254 -94 -420q-81 -145 -204 -203.5t-300 -58.5h-344v1366zM465 1024v-694q41 1 74 17.5t53.5 44.5t35 61t21.5 73t10 74.5t3 71.5q0 44 -4 86t-16.5 92t-33.5 87t-57.5 62t-85.5 25z" />
    <glyph glyph-name="E" unicode="E" horiz-adv-x="841" 
d="M780 0h-684v1366h684v-322h-315v-198h283v-309h-283v-209h315v-328z" />
    <glyph glyph-name="F" unicode="F" horiz-adv-x="794" 
d="M748 1044h-283v-198h262v-309h-262v-537h-369v1366h652v-322z" />
    <glyph glyph-name="G" unicode="G" horiz-adv-x="1146" 
d="M1085 788v-55q0 -159 -18 -288.5t-72 -233.5q-60 -115 -167.5 -175.5t-239.5 -60.5q-114 0 -206 41t-151 108t-98 159.5t-55.5 189.5t-16.5 203t16 204t55.5 192.5t98 164t150.5 112t207 42.5q165 0 282.5 -89.5t186.5 -248.5l-359 -131q-5 54 -32 96.5t-76 42.5
q-152 0 -152 -418q0 -31 0.5 -49.5t3 -58.5t7 -66t15 -60t25 -54.5t37.5 -35t52 -14.5q48 0 78.5 33.5t40.5 75t10 88.5h-136v286h514z" />
    <glyph glyph-name="H" unicode="H" horiz-adv-x="1103" 
d="M1010 0h-369v549h-176v-549h-369v1366h369v-483h176v483h369v-1366z" />
    <glyph glyph-name="I" unicode="I" horiz-adv-x="559" 
d="M465 0h-369v1366h369v-1366z" />
    <glyph glyph-name="J" unicode="J" horiz-adv-x="724" 
d="M629 1366v-948q0 -82 -8.5 -141t-36.5 -115q-94 -187 -342 -187q-118 0 -242 45v381q62 -79 147 -79q35 0 58.5 14t35 40t15.5 52.5t4 60.5v877h369z" />
    <glyph glyph-name="K" unicode="K" horiz-adv-x="1107" 
d="M1098 0h-398l-245 653l10 -653h-369v1366h369l-10 -610l217 610h389l-291 -659z" />
    <glyph glyph-name="L" unicode="L" horiz-adv-x="755" 
d="M741 0h-645v1366h369v-1038h276v-328z" />
    <glyph glyph-name="M" unicode="M" horiz-adv-x="1568" 
d="M1501 0h-385l-29 623q-2 41 -4 123.5t-4 123.5q-11 -123 -37 -262l-114 -608h-301l-107 657q-12 71 -24 213q-6 -279 -7 -303l-32 -567h-396l160 1366h459q6 -34 30 -173.5t33 -198t23 -163.5t20 -192q12 111 31 224t52.5 281.5t43.5 221.5h455z" />
    <glyph glyph-name="N" unicode="N" horiz-adv-x="1153" 
d="M1057 0h-352q-24 66 -71.5 191t-77 203.5t-66.5 188t-64 203.5q23 -334 23 -438v-348h-353v1366h353l184 -479q36 -96 112 -344q-40 336 -40 504v319h352v-1366z" />
    <glyph glyph-name="O" unicode="O" horiz-adv-x="1161" 
d="M1100 696q0 -101 -16 -198t-54.5 -193t-95.5 -168.5t-146.5 -117t-199.5 -44.5q-107 0 -205 49t-168 134q-154 185 -154 538q0 100 18 196t59 187.5t100.5 160t149 110t198.5 41.5q108 0 196.5 -42t146 -111t97.5 -160.5t57 -187t17 -194.5zM717 682q0 50 -3.5 97
t-15 115.5t-41 110.5t-73.5 42t-74.5 -42t-43.5 -108.5t-17.5 -116.5t-4.5 -96q0 -36 1.5 -72.5t10 -92t22 -96.5t40 -71t62.5 -30t63 30t40.5 70.5t21.5 95.5t10 91.5t2 72.5z" />
    <glyph glyph-name="P" unicode="P" horiz-adv-x="1034" 
d="M96 1366h357q186 0 303 -51q120 -54 182.5 -165t62.5 -249q0 -242 -146.5 -358t-389.5 -94v-449h-369v1366zM465 754h18q66 0 106 43t40 110q0 66 -37.5 113t-102.5 47h-24v-313z" />
    <glyph glyph-name="Q" unicode="Q" horiz-adv-x="1175" 
d="M1114 -29l-297 -161l-125 182q-52 -17 -110 -17q-110 0 -200 42.5t-148.5 112.5t-98.5 163t-57 189.5t-17 197.5q0 84 12 166t37 163t67.5 149t98 121t134.5 82.5t172 29.5q107 0 195.5 -42t147.5 -110.5t99 -159.5t58 -187t18 -194q0 -359 -154 -538zM719 694
q0 36 -2 73t-11 90t-23.5 93t-42.5 68.5t-65 28.5q-41 0 -70 -43.5t-40.5 -111t-16 -117.5t-4.5 -95q0 -37 2 -73t10 -91t21.5 -95t40.5 -69.5t64 -29.5t64.5 31.5t40.5 72.5t21 99.5t9.5 94t1.5 74.5z" />
    <glyph glyph-name="R" unicode="R" horiz-adv-x="1091" 
d="M1067 0h-399q-157 420 -209 567q6 -88 6 -180v-387h-369v1366h377q173 0 285 -47q119 -51 182.5 -163t63.5 -247q0 -244 -211 -342zM465 733h24q67 0 107.5 51.5t40.5 120.5q0 154 -172 154v-326z" />
    <glyph glyph-name="S" unicode="S" horiz-adv-x="827" 
d="M741 1321v-418q-41 63 -97.5 106.5t-119.5 43.5q-38 0 -67 -23t-29 -59q0 -28 19.5 -54.5t50.5 -50.5t68.5 -51t75 -62t68.5 -77.5t50.5 -104t19.5 -133.5q0 -195 -121 -329t-313 -134q-135 0 -278 60v428q109 -150 233 -150q43 0 76 24t33 66q0 39 -36 77t-87 77
t-102.5 86.5t-87.5 125t-36 173.5q0 119 52 221.5t148 165t216 62.5q131 0 264 -70z" />
    <glyph glyph-name="T" unicode="T" horiz-adv-x="774" 
d="M774 1038h-203v-1038h-368v1038h-203v328h774v-328z" />
    <glyph glyph-name="U" unicode="U" horiz-adv-x="1116" 
d="M1022 1366v-967q0 -106 -30 -179t-107 -138q-124 -107 -310 -107q-213 0 -346 119q-74 66 -103.5 154.5t-29.5 202.5v915h369v-883q0 -27 1 -44t6 -42t14 -39t28 -25t45 -11q27 0 46 11t28 24.5t14 39.5t5.5 41.5t0.5 44.5v883h369z" />
    <glyph glyph-name="V" unicode="V" horiz-adv-x="1060" 
d="M1061 1366l-373 -1366h-375l-313 1366h387q38 -221 53.5 -311.5t39.5 -265.5t36 -314q8 96 21 213q15 114 36 225l86 453h402z" />
    <glyph glyph-name="W" unicode="W" horiz-adv-x="1542" 
d="M1542 1366l-276 -1366h-355q-8 42 -30 165t-32.5 182t-27 158.5t-28.5 183t-21 165.5q-5 -45 -17.5 -168t-21.5 -190l-69 -496h-361l-303 1366h365q16 -97 44 -286t31 -208q3 -20 9.5 -58.5t9.5 -57.5q5 -41 13 -122t13 -122q2 18 9.5 100.5t13.5 126.5q25 183 104 627
h318l61 -330q45 -242 78 -540q24 298 47 446l66 424h360z" />
    <glyph glyph-name="X" unicode="X" horiz-adv-x="1058" 
d="M1059 0h-410q-18 48 -47.5 138t-38.5 116q-32 99 -35 113l-18 -60t-18 -61q-11 -35 -91 -246h-401l332 709l-314 657h410q103 -322 104 -324q15 71 89 324h413l-311 -657z" />
    <glyph glyph-name="Y" unicode="Y" 
d="M1024 1366l-315 -788v-578h-369v578l-340 788h385q7 -22 32.5 -100t37 -114t29.5 -97t30 -111q62 222 129 422h381z" />
    <glyph glyph-name="Z" unicode="Z" horiz-adv-x="1054" 
d="M1020 1366v-39q-31 -68 -139.5 -311t-180.5 -398.5t-147 -306.5q89 8 422 17v-328h-940v29l293 667q87 198 184 348h-397v322h905z" />
    <glyph glyph-name="bracketleft" unicode="[" horiz-adv-x="714" 
d="M645 -428h-522v1921h522v-244h-209v-1431h209v-246z" />
    <glyph glyph-name="backslash" unicode="\" horiz-adv-x="1280" 
d="M86 1493h246l1040 -1935h-246z" />
    <glyph glyph-name="bracketright" unicode="]" horiz-adv-x="714" 
d="M592 -428h-524v246h211v1431h-211v244h524v-1921z" />
    <glyph glyph-name="asciicircum" unicode="^" 
d="M1016 676h-279l-225 477l-225 -477h-277l328 690h348z" />
    <glyph glyph-name="underscore" unicode="_" 
d="M1024 -340h-1024v246h1024v-246z" />
    <glyph glyph-name="grave" unicode="`" 
d="M623 1085h-205l-178 304h284z" />
    <glyph glyph-name="a" unicode="a" horiz-adv-x="1017" 
d="M936 0h-356l6 81l6 81q-91 -182 -246 -182q-58 0 -105.5 24t-78 66t-52.5 92t-33.5 109t-16.5 110t-5 102q0 63 7.5 125t28 130.5t52.5 120t86.5 85t124.5 33.5q149 0 230 -172q-1 12 -4 66.5t-7 84.5h363v-956zM575 520q0 164 -73 164q-22 0 -38.5 -12.5t-26 -37
t-15 -46t-7.5 -55.5t-2.5 -48t-0.5 -41q0 -172 80 -172q15 0 27.5 6t21 18.5t15 25.5t10 33t6 35t3 38t1 35t0 32.5t-0.5 24.5z" />
    <glyph glyph-name="b" unicode="b" horiz-adv-x="1017" 
d="M436 1493v-522q0 -52 -4 -154q42 79 94 119.5t133 40.5q73 0 129.5 -34.5t88.5 -86.5t52.5 -123.5t27 -134.5t6.5 -129q0 -65 -7.5 -127t-29 -129.5t-54.5 -117.5t-89 -82.5t-128 -32.5q-73 0 -123 38.5t-96 110.5q8 -86 8 -129h-362v1493h354zM596 479q0 203 -90 203
q-80 0 -80 -195q0 -202 82 -202q28 0 47 21t27 55.5t11 62t3 55.5z" />
    <glyph glyph-name="c" unicode="c" horiz-adv-x="620" 
d="M580 311v-325q-50 -6 -97 -6q-102 0 -185 42.5t-135 113.5t-80 160t-28 187q0 99 32.5 188.5t90 157.5t143.5 108t187 40q22 0 72 -4v-311q-76 -4 -117 -50t-41 -123q0 -65 36 -121.5t97 -56.5h25z" />
    <glyph glyph-name="d" unicode="d" horiz-adv-x="1017" 
d="M936 0h-363v41q0 17 3.5 49t3.5 39q-46 -72 -95.5 -110.5t-122.5 -38.5q-72 0 -128 32.5t-89 82.5t-54 117.5t-28.5 129.5t-7.5 127q0 54 5 106.5t16.5 112.5t34 109.5t54.5 91t81.5 65t111.5 23.5q81 0 133.5 -40.5t94.5 -119.5q-6 153 -6 154v522h356v-1493zM592 487
q0 195 -82 195q-29 0 -48 -22.5t-27 -59t-10.5 -64t-2.5 -57.5q0 -194 88 -194q82 0 82 202z" />
    <glyph glyph-name="e" unicode="e" horiz-adv-x="985" 
d="M571 324l347 -2q-37 -166 -147.5 -254t-278.5 -88q-212 0 -324.5 132.5t-112.5 348.5q0 138 50 253t153.5 188t243.5 73q106 0 190 -41.5t135.5 -112.5t78 -160.5t26.5 -191.5q0 -11 -1 -33t-1 -33h-520q0 -147 82 -147q30 0 51.5 19t27.5 49zM414 594h166q-1 29 -8 54.5
t-27 46t-49 20.5q-42 0 -61 -36.5t-21 -84.5z" />
    <glyph glyph-name="f" unicode="f" horiz-adv-x="616" 
d="M604 670h-127v-670h-354v670h-103v286h103q0 22 -1 70t-1 76q0 142 31 225q33 88 111.5 138.5t174.5 50.5q68 0 166 -25v-330q-39 35 -72 35q-19 0 -31.5 -8.5t-17 -26t-5.5 -29.5t-1 -34v-142h127v-286z" />
    <glyph glyph-name="g" unicode="g" horiz-adv-x="1009" 
d="M928 956v-981q0 -163 -72 -262q-58 -78 -153.5 -115.5t-204.5 -37.5q-188 0 -296 82.5t-134 263.5h362q0 -33 20.5 -55.5t53.5 -22.5q28 0 46 12t25.5 34.5t10 42t2.5 46.5v148q-92 -125 -223 -125q-69 0 -124.5 33.5t-89.5 85t-56.5 119t-31 130.5t-8.5 125
q0 60 8.5 123.5t31 132t56 121t87.5 87t122 34.5q117 0 215 -146l-6 125h359zM584 481q0 207 -78 207q-84 0 -84 -201q0 -28 2.5 -56t10 -66.5t26 -62t45.5 -23.5q78 0 78 202z" />
    <glyph glyph-name="h" unicode="h" horiz-adv-x="1005" 
d="M924 0h-357v506q0 25 -1 37t-5 35t-16.5 34t-32.5 11q-76 0 -76 -142v-481h-354v1493h354v-535q0 -62 -8 -184q86 203 252 203q66 0 115 -28t76.5 -76t40 -103.5t12.5 -118.5v-651z" />
    <glyph glyph-name="i" unicode="i" horiz-adv-x="518" 
d="M467 1255q0 -86 -60.5 -147t-146.5 -61t-146.5 61.5t-60.5 146.5t61 145t146 60t146 -60t61 -145zM436 0h-354v956h354v-956z" />
    <glyph glyph-name="j" unicode="j" horiz-adv-x="520" 
d="M467 1255q0 -85 -60.5 -146.5t-146.5 -61.5t-146.5 61t-60.5 147q0 85 60 145t145 60t147 -59.5t62 -145.5zM438 -440h-354v1396h354v-1396z" />
    <glyph glyph-name="k" unicode="k" horiz-adv-x="1013" 
d="M1014 0h-408q-20 55 -57 145t-65 165t-48 149v-459h-354v1493h354v-954q20 66 47.5 133.5t65.5 152.5t57 131h383l-235 -440z" />
    <glyph glyph-name="l" unicode="l" horiz-adv-x="518" 
d="M436 0h-354v1493h354v-1493z" />
    <glyph glyph-name="m" unicode="m" horiz-adv-x="1501" 
d="M1419 0h-354v530q0 103 -55 103q-82 0 -82 -150v-483h-355v526q0 21 -1.5 34.5t-6.5 30.5t-17 25.5t-32 8.5t-34.5 -6t-23 -20.5t-13.5 -25.5t-6.5 -33.5t-2 -32t-0.5 -32.5v-475h-354v956h354v-49q0 -36 -4 -110q47 89 101.5 134.5t142.5 45.5q95 0 154 -52t100 -147
q34 96 88.5 147.5t148.5 51.5q98 0 168 -64q52 -48 68 -109.5t16 -148.5v-655z" />
    <glyph glyph-name="n" unicode="n" horiz-adv-x="1005" 
d="M924 0h-357v506q0 25 -1 37t-5 35t-16.5 34t-32.5 11q-76 0 -76 -142v-481h-354v956h354q-4 -120 -8 -182q86 203 252 203q66 0 115 -28t76.5 -76t40 -103.5t12.5 -118.5v-651z" />
    <glyph glyph-name="o" unicode="o" horiz-adv-x="997" 
d="M944 469q0 -218 -117.5 -353.5t-332.5 -135.5q-142 0 -243 68t-148.5 178t-47.5 249q0 103 28.5 193t82.5 159t139 109.5t191 40.5q111 0 197.5 -39.5t140.5 -109t82 -160.5t28 -199zM600 477q0 30 -4 64t-13.5 74.5t-31.5 67t-53 26.5q-30 0 -51.5 -26.5t-31 -67.5
t-13 -74.5t-3.5 -63.5t4 -63.5t13.5 -73.5t31 -66t52.5 -26q30 0 51.5 26t31 66.5t13.5 74t4 62.5z" />
    <glyph glyph-name="p" unicode="p" horiz-adv-x="1013" 
d="M436 956l-8 -135q41 76 91 116t128 40q70 0 125.5 -34t89.5 -86t56.5 -121t31 -132.5t8.5 -126.5q0 -51 -5.5 -103t-18 -110t-36 -107t-55.5 -90t-80.5 -64t-107.5 -23q-77 0 -128.5 38t-98.5 111q8 -106 8 -158v-411h-354v1396h354zM592 492q0 27 -3 53.5t-10.5 61
t-25.5 56t-45 21.5q-22 0 -38 -16.5t-24 -38.5t-13 -53t-6 -51.5t-1 -41.5q0 -27 2.5 -54.5t9.5 -65t24.5 -61t43.5 -23.5q28 0 47 24t26.5 63t10 68t2.5 58z" />
    <glyph glyph-name="q" unicode="q" horiz-adv-x="1013" 
d="M932 -440h-357v411q0 30 4 84t5 74q-47 -73 -98 -111t-128 -38q-59 0 -107.5 23t-80.5 64t-55.5 90t-36 107t-18 110t-5.5 103q0 62 8.5 125.5t31 132t56.5 121.5t89.5 87t124.5 34q79 0 131 -40t88 -116l-9 135h357v-1396zM588 483q0 28 -2.5 55t-10 64t-26 59.5
t-45.5 22.5q-82 0 -82 -207q0 -28 3 -55.5t10.5 -63t26.5 -57.5t46 -22q25 0 42.5 23.5t25 60.5t10 65.5t2.5 54.5z" />
    <glyph glyph-name="r" unicode="r" horiz-adv-x="704" 
d="M684 979v-397q-52 30 -98 30q-71 0 -113 -55q-24 -30 -30.5 -64t-6.5 -83v-410h-354v956h354l-18 -186q81 204 266 209z" />
    <glyph glyph-name="s" unicode="s" horiz-adv-x="808" 
d="M758 899l-123 -260q-84 84 -146 84q-22 0 -38.5 -11.5t-16.5 -33.5q0 -26 25 -47t62.5 -34t81.5 -35.5t81.5 -49.5t62.5 -78t25 -119q0 -104 -55 -182t-141 -115.5t-189 -37.5q-92 0 -167 24t-173 76l129 264q96 -100 178 -100q27 0 48.5 13t21.5 38q0 26 -35.5 46.5
t-86 40t-101 48t-86 84.5t-35.5 135q0 102 59 178.5t146.5 113t187.5 36.5q129 0 285 -78z" />
    <glyph glyph-name="t" unicode="t" horiz-adv-x="616" 
d="M602 670h-117v-670h-354v670h-102v286h102v281h354v-281h117v-286z" />
    <glyph glyph-name="u" unicode="u" horiz-adv-x="1021" 
d="M940 956v-587q0 -103 -29.5 -174t-107.5 -127q-125 -88 -291 -88t-291 88q-78 56 -108.5 127t-30.5 174v587h354v-561q0 -27 2 -43.5t9 -36.5t23 -29.5t42 -9.5q21 0 36 9t22.5 20t11 32.5t4 33.5t0.5 36v11v538h354z" />
    <glyph glyph-name="v" unicode="v" horiz-adv-x="913" 
d="M913 956l-278 -956h-371l-264 956h358q4 -19 31 -152.5t39 -205.5q7 -41 27 -246q23 188 108 604h350z" />
    <glyph glyph-name="w" unicode="w" horiz-adv-x="1396" 
d="M1397 956l-279 -956h-350l-74 573l-108 -573h-348l-238 956h348q5 -28 25.5 -137.5t28.5 -157t19.5 -130.5t16.5 -152q4 47 12 100t14.5 91.5t19.5 101.5t19 90.5t23 101t21 92.5h303q2 -10 16 -92.5t17.5 -103t14.5 -88.5t15.5 -103.5t10.5 -89t10 -100.5
q34 229 108 577h355z" />
    <glyph glyph-name="x" unicode="x" horiz-adv-x="987" 
d="M987 0h-412q-61 156 -77 225q-39 -107 -101 -225h-397l291 492l-275 464h404q12 -34 69 -206q18 55 78 206h394l-283 -456z" />
    <glyph glyph-name="y" unicode="y" horiz-adv-x="933" 
d="M934 956l-453 -1396h-364l168 479l-285 917h356q6 -23 22.5 -87.5t23.5 -94t20 -86t20 -94t15 -87t12 -93.5q2 12 11 80t13 93.5t13.5 74.5t19.5 88l54 206h354z" />
    <glyph glyph-name="z" unicode="z" horiz-adv-x="890" 
d="M856 956l-225 -487q-52 -108 -94 -180h264v-289h-766l231 496q60 123 90 174h-270v286h770z" />
    <glyph glyph-name="braceleft" unicode="{" 
d="M825 -188v-236q-106 -4 -157 -4q-164 0 -238 66.5t-74 228.5v387q0 77 -22.5 120.5t-89.5 55.5v225q62 11 87 50t25 106v385q0 164 73 230.5t239 66.5q24 0 50 -1t57.5 -2.5t49.5 -2.5v-234q-14 0 -38.5 1t-38 1t-33.5 -1.5t-31 -5.5t-24.5 -12.5t-20.5 -21t-11.5 -32
t-4.5 -45.5v-346q0 -98 -24 -153.5t-99 -105.5q75 -52 99 -107t24 -153v-346q0 -25 4 -43.5t9 -30.5t17.5 -20.5t21.5 -12.5t28.5 -6t31.5 -2.5t38 -0.5h11q27 0 41 2z" />
    <glyph glyph-name="bar" unicode="|" 
d="M645 -512h-266v2048h266v-2048z" />
    <glyph glyph-name="braceright" unicode="}" 
d="M244 -424v236q14 -2 41 -2h11q26 0 38 0.5t31.5 2.5t28.5 6t21.5 12.5t17.5 20.5t9 30.5t4 43.5v346q0 98 24 153t99 107q-75 50 -99 105.5t-24 153.5v346q0 26 -4.5 45.5t-11.5 32t-20.5 21t-24.5 12.5t-31 5.5t-33.5 1.5t-38 -1t-38.5 -1v234q18 1 49.5 2.5t57.5 2.5
t50 1q166 0 239 -66.5t73 -230.5v-385q0 -67 25 -106t87 -50v-225q-67 -12 -89.5 -55.5t-22.5 -120.5v-387q0 -162 -74 -228.5t-238 -66.5q-51 0 -157 4z" />
    <glyph glyph-name="asciitilde" unicode="~" horiz-adv-x="1366" 
d="M1030 1532l152 -88q-22 -47 -42.5 -82.5t-50.5 -73.5t-62 -62.5t-76.5 -40.5t-94.5 -16q-64 0 -189.5 51.5t-185.5 51.5q-26 0 -47 -8t-32.5 -15t-28.5 -30.5t-21 -31t-22 -40.5l-146 96q24 55 39.5 87.5t44 75t57.5 65.5t73.5 40t97.5 17q69 0 195.5 -50.5t193.5 -50.5
q54 0 84.5 25.5t60.5 79.5z" />
    <glyph glyph-name="uni00A0" unicode="&#xa0;" horiz-adv-x="477" 
 />
    <glyph glyph-name="exclamdown" unicode="&#xa1;" horiz-adv-x="659" 
d="M537 770q0 -86 -60.5 -147.5t-146.5 -61.5t-146.5 61.5t-60.5 147.5t60.5 146.5t146.5 60.5t146.5 -60.5t60.5 -146.5zM506 -457h-361v922h361v-922z" />
    <glyph glyph-name="cent" unicode="&#xa2;" horiz-adv-x="1089" 
d="M768 559v-330q-18 -3 -51 -3.5t-47 -2.5v-176h-172v215q-53 30 -83.5 54.5t-64.5 68.5q-108 141 -108 330q0 192 98 327q33 48 66 73t92 54v222h172v-177q5 0 15 1.5t15 1.5q16 0 68 -9v-303q-76 -4 -117 -51.5t-41 -124.5q0 -65 35.5 -117.5t97.5 -52.5h25z" />
    <glyph glyph-name="sterling" unicode="&#xa3;" horiz-adv-x="1089" 
d="M838 326l182 -99q-92 -252 -324 -252q-78 0 -174 35q-11 4 -36.5 14.5t-38 15t-34 9t-42.5 4.5q-82 0 -176 -61l-103 168q88 64 160 98q23 37 30 64.5t7 72.5q0 79 -35 195h-127v190h68q-50 156 -50 240q0 162 118.5 264t283.5 102q221 0 399 -190l-196 -197
q-21 32 -36 50.5t-42.5 35.5t-59.5 17q-44 0 -71 -34t-27 -79q0 -32 23.5 -106t27.5 -103h330v-190h-307q0 -151 -88 -264q48 -3 77 -11.5t76 -31.5q48 -23 74 -23q68 0 111 66z" />
    <glyph glyph-name="currency" unicode="&#xa4;" horiz-adv-x="1366" 
d="M1325 283l-141 -146l-211 211q-137 -92 -291 -92q-79 0 -145 22t-142 68l-211 -209l-143 144l211 211q-90 137 -90 282q0 144 92 281l-215 213l145 145l213 -213q137 90 287 90q145 0 281 -88l211 209l143 -143l-209 -209q47 -76 70.5 -141.5t23.5 -143.5
q0 -146 -90 -280zM961 772q0 116 -80.5 198.5t-196.5 82.5q-115 0 -196.5 -82.5t-81.5 -198.5t81 -197t197 -81q115 0 196 82t81 196z" />
    <glyph glyph-name="yen" unicode="&#xa5;" horiz-adv-x="1089" 
d="M1057 1366l-174 -434h161v-193h-239l-53 -135h292v-190h-303v-414h-368v414h-328v190h315l-57 135h-258v193h174l-186 434h385q7 -22 32.5 -100t37 -114t29.5 -97t30 -111q62 222 129 422h381z" />
    <glyph glyph-name="brokenbar" unicode="&#xa6;" 
d="M645 686h-266v850h266v-850zM645 -512h-266v850h266v-850z" />
    <glyph glyph-name="section" unicode="&#xa7;" horiz-adv-x="1091" 
d="M969 1057h-293q0 31 -1 51t-4.5 47.5t-12.5 45t-23 34.5t-37.5 25t-54.5 8q-49 0 -80 -27t-31 -76q0 -34 10.5 -60t35 -46.5t40 -30t49.5 -27.5q19 -10 70 -35.5t75.5 -38.5t69.5 -40t69 -47.5t56 -52.5t48 -63t28 -72.5t12 -86.5q0 -168 -133 -276q75 -61 112.5 -132.5
t37.5 -166.5q0 -128 -64 -227.5t-169.5 -151t-233.5 -51.5q-116 0 -220.5 45.5t-164.5 134.5q-40 62 -52 120.5t-14 151.5h305q1 -44 7 -74.5t21 -58.5t45 -42.5t75 -14.5q54 0 87.5 33.5t33.5 87.5q0 37 -24.5 69t-64 56t-90.5 51t-104 52.5t-104 62.5t-90.5 79t-64 103.5
t-24.5 134.5q0 175 146 287q-61 76 -87 135.5t-26 152.5q0 120 61 210t159 135t216 45q128 0 227 -58t142 -172q14 -36 20.5 -78t7.5 -70t1 -81zM684 553q0 60 -37.5 97.5t-97.5 37.5q-59 0 -97 -36t-38 -95q0 -60 38.5 -98.5t98.5 -38.5q59 0 96 37t37 96z" />
    <glyph glyph-name="dieresis" unicode="&#xa8;" 
d="M858 1233q0 -60 -43.5 -104t-103.5 -44q-62 0 -107 44t-45 106q0 61 44.5 103t105.5 42q62 0 105.5 -43t43.5 -104zM465 1233q0 -60 -44 -104t-104 -44q-62 0 -106.5 43.5t-44.5 106.5q0 61 44 103t105 42q62 0 106 -43t44 -104z" />
    <glyph glyph-name="copyright" unicode="&#xa9;" horiz-adv-x="1556" 
d="M1489 682q0 -144 -56 -276t-150.5 -227.5t-226 -152.5t-276.5 -57q-193 0 -357 96t-259.5 261t-95.5 358t96 357.5t260.5 260t357.5 95.5q192 0 355 -97t257.5 -261.5t94.5 -356.5zM1325 682q0 150 -71 279.5t-197 207.5t-277 78t-278 -77t-199 -206t-72 -280
q0 -150 72 -280t199 -208.5t278 -78.5t277 78t197 207.5t71 279.5zM991 553l-16 -262q-79 -33 -152 -33q-117 0 -202 59.5t-124.5 153t-39.5 209.5q0 189 104.5 307.5t290.5 118.5q71 0 127 -23v-260q-7 6 -26.5 24t-28 24t-26.5 13t-40 7q-51 0 -83.5 -35t-43 -78.5
t-10.5 -93.5q0 -36 6 -68.5t20 -63.5t41.5 -50t65.5 -19q12 0 23 1.5t22.5 6.5t19 8t19.5 12t16.5 12.5t19 15t17.5 14.5z" />
    <glyph glyph-name="ordfeminine" unicode="&#xaa;" horiz-adv-x="581" 
d="M535 762h-203q1 10 2.5 29t2.5 34t1 29q-26 -51 -58.5 -77.5t-82.5 -26.5q-49 0 -84 30t-51.5 80.5t-23.5 100.5t-7 106q0 57 8 107.5t25.5 98.5t53 76.5t85.5 28.5q49 0 78.5 -26t52.5 -74q-1 10 -1.5 28t-1.5 32.5t-3 27.5h207v-604zM535 608h-496v99h496v-99z
M330 1059v57q0 94 -43 94q-12 0 -21.5 -7.5t-14.5 -22.5t-8.5 -29t-4.5 -36.5t-1.5 -35.5t-0.5 -35q0 -27 1 -44.5t5 -38t14 -31t25 -10.5q17 0 27.5 12.5t15 36t5.5 42.5t1 48z" />
    <glyph glyph-name="guillemotleft" unicode="&#xab;" horiz-adv-x="980" 
d="M524 145l-159 -118l-310 462l310 463l159 -118l-231 -345zM926 145l-160 -118l-309 462l309 463l160 -118l-232 -345z" />
    <glyph glyph-name="logicalnot" unicode="&#xac;" 
d="M956 0h-266v307h-622v240h888v-547z" />
    <glyph glyph-name="uni00AD" unicode="&#xad;" horiz-adv-x="649" 
d="M547 381h-445v274h445v-274z" />
    <glyph glyph-name="registered" unicode="&#xae;" horiz-adv-x="1558" 
d="M1085 315h-239l-111 293v-293h-223v768h223q139 0 227.5 -62.5t88.5 -197.5q0 -138 -125 -190zM735 731h10q37 0 59.5 26.5t22.5 63.5q0 42 -25.5 62t-66.5 20v-172zM1325 682q0 150 -71 279.5t-197 207.5t-277 78t-278 -77t-199 -206t-72 -280q0 -150 72 -280
t199 -208.5t278 -78.5t277 78t197 207.5t71 279.5zM1489 682q0 -144 -56 -276t-150.5 -227.5t-226 -152.5t-276.5 -57q-193 0 -357 96t-259.5 261t-95.5 358t96 357.5t260.5 260t357.5 95.5q192 0 355 -97t257.5 -261.5t94.5 -356.5z" />
    <glyph glyph-name="macron" unicode="&#xaf;" horiz-adv-x="1021" 
d="M860 1133h-696v192h696v-192z" />
    <glyph glyph-name="degree" unicode="&#xb0;" 
d="M827 1042q0 -129 -93 -221t-222 -92t-222 92t-93 221q0 128 93.5 219t221.5 91t221.5 -91t93.5 -219zM670 1042q0 64 -47 109t-111 45t-111 -45t-47 -109q0 -65 46.5 -110t111.5 -45t111.5 45.5t46.5 109.5z" />
    <glyph glyph-name="plusminus" unicode="&#xb1;" 
d="M956 731h-311v-315h-266v315h-311v246h311v313h266v-313h311v-246zM956 102h-888v246h888v-246z" />
    <glyph glyph-name="twosuperior" unicode="&#xb2;" horiz-adv-x="720" 
d="M98 1063v35q0 121 78 201.5t199 80.5q118 0 196 -73.5t78 -190.5q0 -111 -55.5 -200t-155.5 -181q102 6 201 6v-194h-586l234 301q32 41 48.5 64t40.5 62t35 76t11 74q0 26 -11.5 47t-35.5 21q-9 0 -16 -3t-12 -9.5t-9 -12.5t-6 -17t-3.5 -18t-2 -19.5t-0.5 -18v-17.5
v-14h-228z" />
    <glyph glyph-name="threesuperior" unicode="&#xb3;" horiz-adv-x="720" 
d="M319 1126h-225q8 115 80.5 184.5t187.5 69.5q107 0 188 -65.5t81 -169.5q0 -116 -96 -176q52 -27 80 -76.5t28 -108.5q0 -116 -82 -184t-201 -68q-117 0 -199.5 63t-82.5 177v21h227q2 -35 12 -53.5t41 -18.5q28 0 43 20.5t15 49.5q0 39 -23.5 60t-62.5 21q-13 0 -45 -4
v183q10 -2 30 -2q46 0 67 17.5t21 61.5q0 25 -10.5 44.5t-32.5 19.5q-6 0 -11 -1t-8.5 -4t-6.5 -5.5t-5 -7t-3.5 -8t-2.5 -10t-1.5 -9.5t-1.5 -10.5t-1 -10.5z" />
    <glyph glyph-name="acute" unicode="&#xb4;" 
d="M786 1389l-180 -304h-203l97 304h286z" />
    <glyph glyph-name="mu" unicode="&#xb5;" horiz-adv-x="1193" 
d="M1112 0h-319v139q-18 -72 -70 -116q-50 -43 -127 -43q-76 0 -121 38q-57 45 -74 115v-573h-319v1396h352v-464q0 -154 55 -209q41 -41 109 -41t107 41q55 55 55 221v452h352v-956z" />
    <glyph glyph-name="mu" unicode="&#x3bc;" horiz-adv-x="1193" 
d="M1112 0h-319v139q-18 -72 -70 -116q-50 -43 -127 -43q-76 0 -121 38q-57 45 -74 115v-573h-319v1396h352v-464q0 -154 55 -209q41 -41 109 -41t107 41q55 55 55 221v452h352v-956z" />
    <glyph glyph-name="paragraph" unicode="&#xb6;" horiz-adv-x="1366" 
d="M1217 1161h-152v-1366h-225v1366h-170v-1366h-226v862h-24q-160 0 -262.5 95t-102.5 254q0 83 26 146.5t69.5 103.5t106 65t128 35t143.5 10h689v-205z" />
    <glyph glyph-name="periodcentered" unicode="&#xb7;" horiz-adv-x="669" 
d="M575 694q0 -99 -71 -168t-170 -69q-100 0 -171 70.5t-71 170.5q0 98 71 168t169 70q100 0 171.5 -71t71.5 -171z" />
    <glyph glyph-name="cedilla" unicode="&#xb8;" 
d="M762 -217l-232 -240l-145 111l201 250z" />
    <glyph glyph-name="onesuperior" unicode="&#xb9;" horiz-adv-x="720" 
d="M510 547h-231v620h-91v199h322v-819z" />
    <glyph glyph-name="ordmasculine" unicode="&#xba;" horiz-adv-x="573" 
d="M543 1075q0 -143 -66.5 -226t-191.5 -83q-123 0 -188.5 84.5t-65.5 226.5q0 132 66.5 216.5t187.5 84.5q126 0 192 -83.5t66 -219.5zM535 608h-496v99h496v-99zM344 1079q0 146 -57 146q-32 0 -45 -47t-13 -99q0 -157 58 -157q57 0 57 157z" />
    <glyph glyph-name="guillemotright" unicode="&#xbb;" horiz-adv-x="980" 
d="M457 145l231 344l-231 345l159 118l310 -463l-310 -462zM55 145l232 344l-232 345l160 118l309 -463l-309 -462z" />
    <glyph glyph-name="onequarter" unicode="&#xbc;" horiz-adv-x="1728" 
d="M1669 164h-70v-164h-233v164h-303v176l254 479h282v-473h70v-182zM510 547h-231v620h-91v199h322v-819zM1262 346h112q0 108 6 219q-4 -8 -26 -52.5t-31 -61.5t-26.5 -48.5t-34.5 -56.5zM1257 1366l-589 -1366h-189l594 1366h184z" />
    <glyph glyph-name="onehalf" unicode="&#xbd;" horiz-adv-x="1728" 
d="M1104 516v35q0 121 78 202t198 81q118 0 196.5 -74t78.5 -191q0 -111 -55.5 -200t-155.5 -181q119 7 201 7v-195h-586l233 301q42 54 64.5 86t46.5 87.5t24 103.5q0 26 -11.5 46.5t-35.5 20.5q-49 0 -49 -129h-227zM510 547h-231v620h-91v199h322v-819zM1239 1366
l-590 -1366h-188l594 1366h184z" />
    <glyph glyph-name="threequarters" unicode="&#xbe;" horiz-adv-x="1728" 
d="M1669 164h-70v-164h-233v164h-303v176l254 479h282v-473h70v-182zM319 1126h-225q8 115 80.5 184.5t187.5 69.5q107 0 188 -65.5t81 -169.5q0 -116 -96 -176q52 -27 80 -76.5t28 -108.5q0 -116 -82 -184t-201 -68q-117 0 -199.5 63t-82.5 177v21h227q2 -35 12 -53.5
t41 -18.5q28 0 43 20.5t15 49.5q0 39 -23.5 60t-62.5 21q-13 0 -45 -4v183q10 -2 30 -2q46 0 67 17.5t21 61.5q0 25 -10.5 44.5t-32.5 19.5q-6 0 -11 -1t-8.5 -4t-6.5 -5.5t-5 -7t-3.5 -8t-2.5 -10t-1.5 -9.5t-1.5 -10.5t-1 -10.5zM1262 346h112q0 108 6 219
q-4 -8 -26 -52.5t-31 -61.5t-26.5 -48.5t-34.5 -56.5zM1292 1366l-590 -1366h-188l594 1366h184z" />
    <glyph glyph-name="questiondown" unicode="&#xbf;" horiz-adv-x="1040" 
d="M723 768q0 -86 -60.5 -146.5t-146.5 -60.5t-146.5 60.5t-60.5 146.5q0 85 60.5 147t146.5 62t146.5 -61.5t60.5 -147.5zM958 -23q0 -92 -10 -146t-47 -118q-53 -93 -157 -143.5t-218 -50.5q-196 0 -320 126t-124 322q0 86 27.5 159t87.5 128.5t147 79.5v131h350v-326
q-36 4 -55 4q-97 0 -143.5 -40.5t-46.5 -129.5q0 -23 2.5 -45t10 -48t24 -42t40.5 -16q78 0 78 155h354z" />
    <glyph glyph-name="Agrave" unicode="&#xc0;" horiz-adv-x="1089" 
d="M1079 0h-381l-28 174h-248l-31 -174h-381l330 1366h451zM471 465h156q-49 323 -70 573q-4 -32 -11 -96t-11 -96q-28 -200 -64 -381zM705 1475h-205l-178 303h284z" />
    <glyph glyph-name="Aacute" unicode="&#xc1;" horiz-adv-x="1089" 
d="M1079 0h-381l-28 174h-248l-31 -174h-381l330 1366h451zM471 465h156q-49 323 -70 573q-4 -32 -11 -96t-11 -96q-28 -200 -64 -381zM807 1778l-180 -303h-203l96 303h287z" />
    <glyph glyph-name="Acircumflex" unicode="&#xc2;" horiz-adv-x="1089" 
d="M1079 0h-381l-28 174h-248l-31 -174h-381l330 1366h451zM471 465h156q-49 323 -70 573q-4 -32 -11 -96t-11 -96q-28 -200 -64 -381zM578 1782l280 -201l-117 -135l-170 115l-168 -119l-124 135z" />
    <glyph glyph-name="Atilde" unicode="&#xc3;" horiz-adv-x="1089" 
d="M1079 0h-381l-28 174h-248l-31 -174h-381l330 1366h451zM471 465h156q-49 323 -70 573q-4 -32 -11 -96t-11 -96q-28 -200 -64 -381zM893 1751v-29q0 -102 -57.5 -172.5t-157.5 -70.5q-54 0 -132 33.5t-108 33.5q-55 0 -55 -71h-186v4q0 53 10.5 98t33.5 84t64.5 61.5
t97.5 22.5q53 0 134 -34t114 -34q58 0 58 74h184z" />
    <glyph glyph-name="Adieresis" unicode="&#xc4;" horiz-adv-x="1089" 
d="M1079 0h-381l-28 174h-248l-31 -174h-381l330 1366h451zM471 465h156q-49 323 -70 573q-4 -32 -11 -96t-11 -96q-28 -200 -64 -381zM891 1622q0 -60 -44 -103.5t-104 -43.5q-62 0 -106.5 43.5t-44.5 105.5q0 61 44 103t105 42q62 0 106 -43t44 -104zM498 1622
q0 -60 -44 -103.5t-104 -43.5q-62 0 -106.5 43.5t-44.5 105.5q0 61 44 103t105 42q62 0 106 -43t44 -104z" />
    <glyph glyph-name="Aring" unicode="&#xc5;" horiz-adv-x="1089" 
d="M1079 0h-381l-28 174h-248l-31 -174h-381l330 1366h451zM471 465h156q-49 323 -70 573q-4 -32 -11 -96t-11 -96q-28 -200 -64 -381zM362 1659q0 82 57.5 139t139.5 57t139.5 -57t57.5 -139q0 -81 -58 -139t-137 -58q-83 0 -141 58.5t-58 138.5zM483 1659q0 -32 22 -54
t54 -22t54 22t22 54t-22 54t-54 22t-54 -22t-22 -54z" />
    <glyph glyph-name="AE" unicode="&#xc6;" horiz-adv-x="1259" 
d="M1198 0h-524l-25 174h-237l-31 -174h-381l315 1366h883v-322h-367l31 -198h307v-309h-254l37 -209h246v-328zM457 457h153q-57 406 -71 579q-30 -258 -82 -579z" />
    <glyph glyph-name="Ccedilla" unicode="&#xc7;" horiz-adv-x="911" 
d="M864 420l-22 -395q-63 -28 -109.5 -39t-109.5 -11q-114 0 -209 40t-159 107.5t-108.5 158t-65 190.5t-20.5 207q0 114 23 218t71.5 195t119 157.5t171 104.5t220.5 38q57 0 94.5 -7t87.5 -28v-389q-40 42 -79 62t-91 20q-56 0 -99.5 -23.5t-69.5 -60t-42.5 -86t-22.5 -97
t-6 -98.5q0 -49 6 -95t22.5 -94t42 -83t67.5 -57.5t96 -22.5q55 0 99 22t93 66zM795 -231l-254 -254l-158 108l221 281z" />
    <glyph glyph-name="Egrave" unicode="&#xc8;" horiz-adv-x="841" 
d="M780 0h-684v1366h684v-322h-315v-198h283v-309h-283v-209h315v-328zM602 1475h-205l-178 303h285z" />
    <glyph glyph-name="Eacute" unicode="&#xc9;" horiz-adv-x="841" 
d="M780 0h-684v1366h684v-322h-315v-198h283v-309h-283v-209h315v-328zM684 1778l-180 -303h-203l96 303h287z" />
    <glyph glyph-name="Ecircumflex" unicode="&#xca;" horiz-adv-x="841" 
d="M780 0h-684v1366h684v-322h-315v-198h283v-309h-283v-209h315v-328zM455 1782l280 -201l-117 -135l-169 115l-168 -119l-125 135z" />
    <glyph glyph-name="Edieresis" unicode="&#xcb;" horiz-adv-x="841" 
d="M780 0h-684v1366h684v-322h-315v-198h283v-309h-283v-209h315v-328zM776 1622q0 -60 -43.5 -103.5t-103.5 -43.5q-62 0 -107 43.5t-45 105.5q0 61 44.5 103t105.5 42q62 0 105.5 -43t43.5 -104zM383 1622q0 -60 -43.5 -103.5t-103.5 -43.5q-62 0 -107 43.5t-45 105.5
q0 61 44 103t105 42q62 0 106 -43t44 -104z" />
    <glyph glyph-name="Igrave" unicode="&#xcc;" horiz-adv-x="559" 
d="M465 0h-369v1366h369v-1366zM418 1475h-205l-178 303h284z" />
    <glyph glyph-name="Iacute" unicode="&#xcd;" horiz-adv-x="559" 
d="M465 0h-369v1366h369v-1366zM520 1778l-180 -303h-203l96 303h287z" />
    <glyph glyph-name="Icircumflex" unicode="&#xce;" horiz-adv-x="559" 
d="M465 0h-369v1366h369v-1366zM295 1782l280 -201l-116 -135l-170 115l-168 -119l-125 135z" />
    <glyph glyph-name="Idieresis" unicode="&#xcf;" horiz-adv-x="559" 
d="M465 0h-369v1366h369v-1366zM627 1622q0 -60 -44 -103.5t-104 -43.5q-62 0 -106.5 43.5t-44.5 105.5q0 61 44 103t105 42q62 0 106 -43t44 -104zM233 1622q0 -60 -43.5 -103.5t-103.5 -43.5q-62 0 -107 43.5t-45 105.5q0 61 44.5 103t105.5 42q62 0 105.5 -43t43.5 -104z
" />
    <glyph glyph-name="Eth" unicode="&#xd0;" horiz-adv-x="1099" 
d="M96 1366h320q147 0 262 -44t203 -148q157 -184 157 -486q0 -358 -178 -541q-80 -83 -183 -115t-237 -32h-344v594h-82v211h82v561zM465 594v-264q197 11 197 340q0 197 -72 293q-26 34 -50.5 47.5t-64.5 13.5h-10v-219h108v-211h-108z" />
    <glyph glyph-name="Ntilde" unicode="&#xd1;" horiz-adv-x="1153" 
d="M1057 0h-352q-24 66 -71.5 191t-77 203.5t-66.5 188t-64 203.5q23 -334 23 -438v-348h-353v1366h353l184 -479q36 -96 112 -344q-40 336 -40 504v319h352v-1366zM942 1751v-29q0 -102 -57.5 -172.5t-157.5 -70.5q-54 0 -132 33.5t-108 33.5q-55 0 -55 -71h-186v4
q0 53 11 98.5t34 84t64.5 61t97.5 22.5q53 0 134 -34t113 -34q58 0 58 74h184z" />
    <glyph glyph-name="Ograve" unicode="&#xd2;" horiz-adv-x="1161" 
d="M1100 696q0 -101 -16 -198t-54.5 -193t-95.5 -168.5t-146.5 -117t-199.5 -44.5q-107 0 -205 49t-168 134q-154 185 -154 538q0 100 18 196t59 187.5t100.5 160t149 110t198.5 41.5q108 0 196.5 -42t146 -111t97.5 -160.5t57 -187t17 -194.5zM717 682q0 50 -3.5 97
t-15 115.5t-41 110.5t-73.5 42t-74.5 -42t-43.5 -108.5t-17.5 -116.5t-4.5 -96q0 -36 1.5 -72.5t10 -92t22 -96.5t40 -71t62.5 -30t63 30t40.5 70.5t21.5 95.5t10 91.5t2 72.5zM694 1475h-205l-178 303h285z" />
    <glyph glyph-name="Oacute" unicode="&#xd3;" horiz-adv-x="1161" 
d="M1100 696q0 -101 -16 -198t-54.5 -193t-95.5 -168.5t-146.5 -117t-199.5 -44.5q-107 0 -205 49t-168 134q-154 185 -154 538q0 100 18 196t59 187.5t100.5 160t149 110t198.5 41.5q108 0 196.5 -42t146 -111t97.5 -160.5t57 -187t17 -194.5zM717 682q0 50 -3.5 97
t-15 115.5t-41 110.5t-73.5 42t-74.5 -42t-43.5 -108.5t-17.5 -116.5t-4.5 -96q0 -36 1.5 -72.5t10 -92t22 -96.5t40 -71t62.5 -30t63 30t40.5 70.5t21.5 95.5t10 91.5t2 72.5zM858 1778l-180 -303h-203l96 303h287z" />
    <glyph glyph-name="Ocircumflex" unicode="&#xd4;" horiz-adv-x="1161" 
d="M1100 696q0 -101 -16 -198t-54.5 -193t-95.5 -168.5t-146.5 -117t-199.5 -44.5q-107 0 -205 49t-168 134q-154 185 -154 538q0 100 18 196t59 187.5t100.5 160t149 110t198.5 41.5q108 0 196.5 -42t146 -111t97.5 -160.5t57 -187t17 -194.5zM717 682q0 50 -3.5 97
t-15 115.5t-41 110.5t-73.5 42t-74.5 -42t-43.5 -108.5t-17.5 -116.5t-4.5 -96q0 -36 1.5 -72.5t10 -92t22 -96.5t40 -71t62.5 -30t63 30t40.5 70.5t21.5 95.5t10 91.5t2 72.5zM618 1782l281 -201l-117 -135l-170 115l-168 -119l-125 135z" />
    <glyph glyph-name="Otilde" unicode="&#xd5;" horiz-adv-x="1161" 
d="M1100 696q0 -101 -16 -198t-54.5 -193t-95.5 -168.5t-146.5 -117t-199.5 -44.5q-107 0 -205 49t-168 134q-154 185 -154 538q0 100 18 196t59 187.5t100.5 160t149 110t198.5 41.5q108 0 196.5 -42t146 -111t97.5 -160.5t57 -187t17 -194.5zM717 682q0 50 -3.5 97
t-15 115.5t-41 110.5t-73.5 42t-74.5 -42t-43.5 -108.5t-17.5 -116.5t-4.5 -96q0 -36 1.5 -72.5t10 -92t22 -96.5t40 -71t62.5 -30t63 30t40.5 70.5t21.5 95.5t10 91.5t2 72.5zM928 1751v-29q0 -102 -57.5 -172.5t-157.5 -70.5q-54 0 -132 33.5t-108 33.5q-55 0 -55 -71
h-187v4q0 53 11 98.5t34 84t64.5 61t97.5 22.5q54 0 135 -34t113 -34q57 0 57 74h185z" />
    <glyph glyph-name="Odieresis" unicode="&#xd6;" horiz-adv-x="1161" 
d="M1100 696q0 -101 -16 -198t-54.5 -193t-95.5 -168.5t-146.5 -117t-199.5 -44.5q-107 0 -205 49t-168 134q-154 185 -154 538q0 100 18 196t59 187.5t100.5 160t149 110t198.5 41.5q108 0 196.5 -42t146 -111t97.5 -160.5t57 -187t17 -194.5zM717 682q0 50 -3.5 97
t-15 115.5t-41 110.5t-73.5 42t-74.5 -42t-43.5 -108.5t-17.5 -116.5t-4.5 -96q0 -36 1.5 -72.5t10 -92t22 -96.5t40 -71t62.5 -30t63 30t40.5 70.5t21.5 95.5t10 91.5t2 72.5zM930 1622q0 -60 -44 -103.5t-104 -43.5q-62 0 -106.5 43.5t-44.5 105.5q0 61 44 103t105 42
q62 0 106 -43t44 -104zM537 1622q0 -60 -44 -103.5t-104 -43.5q-62 0 -106.5 43.5t-44.5 105.5q0 61 44 103t105 42q62 0 106 -43t44 -104z" />
    <glyph glyph-name="multiply" unicode="&#xd7;" 
d="M739 295l-227 227l-227 -227l-174 174l227 227l-227 228l174 174l227 -228l227 228l174 -174l-227 -228l227 -227z" />
    <glyph glyph-name="Oslash" unicode="&#xd8;" horiz-adv-x="1218" 
d="M1157 1292l-121 -174q90 -196 90 -422q0 -103 -17 -201.5t-57 -194t-99 -166.5t-150 -115t-203 -44q-91 0 -164.5 30.5t-146.5 92.5l-96 -139l-132 90l125 189q-6 13 -19.5 38t-19.5 39q-59 137 -59 359q0 103 16 200.5t54.5 193t96 166t148 114t203.5 43.5
q96 0 172.5 -33.5t153.5 -102.5l92 131zM459 616l241 357q-30 84 -98 84q-46 0 -77 -42t-44 -108.5t-17.5 -116.5t-4.5 -98v-76zM754 745l-242 -356q25 -80 96 -80q46 0 78 42.5t45.5 108.5t19 118.5t5.5 99.5q0 44 -2 67z" />
    <glyph glyph-name="Ugrave" unicode="&#xd9;" horiz-adv-x="1116" 
d="M1022 1366v-967q0 -106 -30 -179t-107 -138q-124 -107 -310 -107q-213 0 -346 119q-74 66 -103.5 154.5t-29.5 202.5v915h369v-883q0 -27 1 -44t6 -42t14 -39t28 -25t45 -11q27 0 46 11t28 24.5t14 39.5t5.5 41.5t0.5 44.5v883h369zM664 1475h-205l-178 303h284z" />
    <glyph glyph-name="Uacute" unicode="&#xda;" horiz-adv-x="1116" 
d="M1022 1366v-967q0 -106 -30 -179t-107 -138q-124 -107 -310 -107q-213 0 -346 119q-74 66 -103.5 154.5t-29.5 202.5v915h369v-883q0 -27 1 -44t6 -42t14 -39t28 -25t45 -11q27 0 46 11t28 24.5t14 39.5t5.5 41.5t0.5 44.5v883h369zM838 1778l-181 -303h-202l96 303h287z
" />
    <glyph glyph-name="Ucircumflex" unicode="&#xdb;" horiz-adv-x="1116" 
d="M1022 1366v-967q0 -106 -30 -179t-107 -138q-124 -107 -310 -107q-213 0 -346 119q-74 66 -103.5 154.5t-29.5 202.5v915h369v-883q0 -27 1 -44t6 -42t14 -39t28 -25t45 -11q27 0 46 11t28 24.5t14 39.5t5.5 41.5t0.5 44.5v883h369zM571 1782l281 -201l-117 -135
l-170 115l-168 -119l-125 135z" />
    <glyph glyph-name="Udieresis" unicode="&#xdc;" horiz-adv-x="1116" 
d="M1022 1366v-967q0 -106 -30 -179t-107 -138q-124 -107 -310 -107q-213 0 -346 119q-74 66 -103.5 154.5t-29.5 202.5v915h369v-883q0 -27 1 -44t6 -42t14 -39t28 -25t45 -11q27 0 46 11t28 24.5t14 39.5t5.5 41.5t0.5 44.5v883h369zM903 1622q0 -60 -43.5 -103.5
t-103.5 -43.5q-62 0 -107 43.5t-45 105.5q0 61 44.5 103t105.5 42q62 0 105.5 -43t43.5 -104zM510 1622q0 -60 -44 -103.5t-104 -43.5q-62 0 -106.5 43.5t-44.5 105.5q0 61 44 103t105 42q62 0 106 -43t44 -104z" />
    <glyph glyph-name="Yacute" unicode="&#xdd;" 
d="M1024 1366l-315 -788v-578h-369v578l-340 788h385q7 -22 32.5 -100t37 -114t29.5 -97t30 -111q62 222 129 422h381zM797 1778l-181 -303h-202l96 303h287z" />
    <glyph glyph-name="Thorn" unicode="&#xde;" horiz-adv-x="1034" 
d="M465 1366v-190q185 -4 293 -52q120 -53 181.5 -165t61.5 -250q0 -195 -106 -318q-67 -77 -159.5 -106t-213.5 -29h-57v-256h-369v1366h369zM465 563h18q67 0 106.5 43t39.5 111q0 66 -36.5 113t-100.5 47q-15 0 -27 -3v-311z" />
    <glyph glyph-name="germandbls" unicode="&#xdf;" horiz-adv-x="1077" 
d="M23 956h98q0 183 22 265q34 132 151 213.5t257 81.5q169 0 293.5 -112.5t124.5 -279.5q0 -66 -18 -122.5t-60.5 -102t-106.5 -61.5q75 -9 121 -50q58 -51 87.5 -134.5t29.5 -168.5q0 -80 -24.5 -165t-69.5 -148q-118 -165 -363 -172v293q29 8 48.5 28t27.5 49t11 53.5
t3 57.5q0 178 -90 189v286q68 4 68 125q0 119 -80 119q-26 0 -43 -11.5t-24 -33.5t-9 -40t-2 -44v-1071h-354v670h-98v286z" />
    <glyph glyph-name="agrave" unicode="&#xe0;" horiz-adv-x="1017" 
d="M936 0h-356l6 81l6 81q-91 -182 -246 -182q-58 0 -105.5 24t-78 66t-52.5 92t-33.5 109t-16.5 110t-5 102q0 63 7.5 125t28 130.5t52.5 120t86.5 85t124.5 33.5q149 0 230 -172q-1 12 -4 66.5t-7 84.5h363v-956zM575 520q0 164 -73 164q-22 0 -38.5 -12.5t-26 -37
t-15 -46t-7.5 -55.5t-2.5 -48t-0.5 -41q0 -172 80 -172q15 0 27.5 6t21 18.5t15 25.5t10 33t6 35t3 38t1 35t0 32.5t-0.5 24.5zM674 1085h-205l-178 304h284z" />
    <glyph glyph-name="aacute" unicode="&#xe1;" horiz-adv-x="1017" 
d="M936 0h-356l6 81l6 81q-91 -182 -246 -182q-58 0 -105.5 24t-78 66t-52.5 92t-33.5 109t-16.5 110t-5 102q0 63 7.5 125t28 130.5t52.5 120t86.5 85t124.5 33.5q149 0 230 -172q-1 12 -4 66.5t-7 84.5h363v-956zM575 520q0 164 -73 164q-22 0 -38.5 -12.5t-26 -37
t-15 -46t-7.5 -55.5t-2.5 -48t-0.5 -41q0 -172 80 -172q15 0 27.5 6t21 18.5t15 25.5t10 33t6 35t3 38t1 35t0 32.5t-0.5 24.5zM756 1389l-181 -304h-202l96 304h287z" />
    <glyph glyph-name="acircumflex" unicode="&#xe2;" horiz-adv-x="1017" 
d="M936 0h-356l6 81l6 81q-91 -182 -246 -182q-58 0 -105.5 24t-78 66t-52.5 92t-33.5 109t-16.5 110t-5 102q0 63 7.5 125t28 130.5t52.5 120t86.5 85t124.5 33.5q149 0 230 -172q-1 12 -4 66.5t-7 84.5h363v-956zM575 520q0 164 -73 164q-22 0 -38.5 -12.5t-26 -37
t-15 -46t-7.5 -55.5t-2.5 -48t-0.5 -41q0 -172 80 -172q15 0 27.5 6t21 18.5t15 25.5t10 33t6 35t3 38t1 35t0 32.5t-0.5 24.5zM541 1413l264 -239l-119 -130l-151 136l-164 -144l-123 138z" />
    <glyph glyph-name="atilde" unicode="&#xe3;" horiz-adv-x="1017" 
d="M936 0h-356l6 81l6 81q-91 -182 -246 -182q-58 0 -105.5 24t-78 66t-52.5 92t-33.5 109t-16.5 110t-5 102q0 63 7.5 125t28 130.5t52.5 120t86.5 85t124.5 33.5q149 0 230 -172q-1 12 -4 66.5t-7 84.5h363v-956zM575 520q0 164 -73 164q-22 0 -38.5 -12.5t-26 -37
t-15 -46t-7.5 -55.5t-2.5 -48t-0.5 -41q0 -172 80 -172q15 0 27.5 6t21 18.5t15 25.5t10 33t6 35t3 38t1 35t0 32.5t-0.5 24.5zM901 1362v-29q0 -102 -57.5 -172.5t-157.5 -70.5q-54 0 -132 33.5t-108 33.5q-55 0 -55 -72h-186v5q0 53 11 98.5t34 84t64.5 61t97.5 22.5
q54 0 134 -34t113 -34q58 0 58 74h184z" />
    <glyph glyph-name="adieresis" unicode="&#xe4;" horiz-adv-x="1017" 
d="M936 0h-356l6 81l6 81q-91 -182 -246 -182q-58 0 -105.5 24t-78 66t-52.5 92t-33.5 109t-16.5 110t-5 102q0 63 7.5 125t28 130.5t52.5 120t86.5 85t124.5 33.5q149 0 230 -172q-1 12 -4 66.5t-7 84.5h363v-956zM575 520q0 164 -73 164q-22 0 -38.5 -12.5t-26 -37
t-15 -46t-7.5 -55.5t-2.5 -48t-0.5 -41q0 -172 80 -172q15 0 27.5 6t21 18.5t15 25.5t10 33t6 35t3 38t1 35t0 32.5t-0.5 24.5zM889 1233q0 -60 -44 -104t-104 -44q-62 0 -106.5 43.5t-44.5 106.5q0 61 44 103t105 42q62 0 106 -43t44 -104zM496 1233q0 -60 -44 -104
t-104 -44q-62 0 -106.5 43.5t-44.5 106.5q0 61 44 103t105 42q62 0 106 -43t44 -104z" />
    <glyph glyph-name="aring" unicode="&#xe5;" horiz-adv-x="1017" 
d="M936 0h-356l6 81l6 81q-91 -182 -246 -182q-58 0 -105.5 24t-78 66t-52.5 92t-33.5 109t-16.5 110t-5 102q0 63 7.5 125t28 130.5t52.5 120t86.5 85t124.5 33.5q149 0 230 -172q-1 12 -4 66.5t-7 84.5h363v-956zM575 520q0 164 -73 164q-22 0 -38.5 -12.5t-26 -37
t-15 -46t-7.5 -55.5t-2.5 -48t-0.5 -41q0 -172 80 -172q15 0 27.5 6t21 18.5t15 25.5t10 33t6 35t3 38t1 35t0 32.5t-0.5 24.5zM322 1268q0 82 57 139t139 57t139.5 -57t57.5 -139t-57.5 -139.5t-139.5 -57.5t-139 57.5t-57 139.5zM442 1268q0 -32 22 -54t54 -22t54 22
t22 54t-22 53.5t-54 21.5t-54 -21.5t-22 -53.5z" />
    <glyph glyph-name="ae" unicode="&#xe6;" horiz-adv-x="1505" 
d="M160 657v277q158 43 284 43q94 0 162.5 -20t132.5 -74q133 94 275 94q107 0 191.5 -41t137 -111t80 -160.5t27.5 -193.5q0 -42 -2 -65h-522q6 -164 94 -164q57 0 80 71l338 -6q-25 -90 -59 -149t-99 -105q-105 -73 -270 -73q-85 0 -151 23t-132 75q-145 -98 -309 -98
q-153 0 -258 91t-105 240q0 147 97.5 226t248.5 79q85 0 183 -20q-17 117 -191 117q-121 0 -233 -56zM926 596h178q-15 133 -92 133q-20 0 -35 -9.5t-23.5 -21.5t-14.5 -33t-8.5 -34t-4.5 -35zM586 307q0 40 -27 62t-67 22q-39 0 -66 -23.5t-27 -62.5q0 -40 28 -61t69 -21
q39 0 64.5 22.5t25.5 61.5z" />
    <glyph glyph-name="ccedilla" unicode="&#xe7;" horiz-adv-x="620" 
d="M580 311v-325q-50 -6 -97 -6q-102 0 -185 42.5t-135 113.5t-80 160t-28 187q0 99 32.5 188.5t90 157.5t143.5 108t187 40q22 0 72 -4v-311q-76 -4 -117 -50t-41 -123q0 -65 36 -121.5t97 -56.5h25zM567 -217l-231 -240l-146 111l201 250z" />
    <glyph glyph-name="egrave" unicode="&#xe8;" horiz-adv-x="985" 
d="M571 324l347 -2q-37 -166 -147.5 -254t-278.5 -88q-212 0 -324.5 132.5t-112.5 348.5q0 138 50 253t153.5 188t243.5 73q106 0 190 -41.5t135.5 -112.5t78 -160.5t26.5 -191.5q0 -11 -1 -33t-1 -33h-520q0 -147 82 -147q30 0 51.5 19t27.5 49zM414 594h166q-1 29 -8 54.5
t-27 46t-49 20.5q-42 0 -61 -36.5t-21 -84.5zM623 1085h-205l-178 304h284z" />
    <glyph glyph-name="eacute" unicode="&#xe9;" horiz-adv-x="985" 
d="M571 324l347 -2q-37 -166 -147.5 -254t-278.5 -88q-212 0 -324.5 132.5t-112.5 348.5q0 138 50 253t153.5 188t243.5 73q106 0 190 -41.5t135.5 -112.5t78 -160.5t26.5 -191.5q0 -11 -1 -33t-1 -33h-520q0 -147 82 -147q30 0 51.5 19t27.5 49zM414 594h166q-1 29 -8 54.5
t-27 46t-49 20.5q-42 0 -61 -36.5t-21 -84.5zM768 1389l-180 -304h-203l96 304h287z" />
    <glyph glyph-name="ecircumflex" unicode="&#xea;" horiz-adv-x="985" 
d="M571 324l347 -2q-37 -166 -147.5 -254t-278.5 -88q-212 0 -324.5 132.5t-112.5 348.5q0 138 50 253t153.5 188t243.5 73q106 0 190 -41.5t135.5 -112.5t78 -160.5t26.5 -191.5q0 -11 -1 -33t-1 -33h-520q0 -147 82 -147q30 0 51.5 19t27.5 49zM414 594h166q-1 29 -8 54.5
t-27 46t-49 20.5q-42 0 -61 -36.5t-21 -84.5zM524 1413l264 -239l-118 -130l-152 136l-164 -144l-123 138z" />
    <glyph glyph-name="edieresis" unicode="&#xeb;" horiz-adv-x="985" 
d="M571 324l347 -2q-37 -166 -147.5 -254t-278.5 -88q-212 0 -324.5 132.5t-112.5 348.5q0 138 50 253t153.5 188t243.5 73q106 0 190 -41.5t135.5 -112.5t78 -160.5t26.5 -191.5q0 -11 -1 -33t-1 -33h-520q0 -147 82 -147q30 0 51.5 19t27.5 49zM414 594h166q-1 29 -8 54.5
t-27 46t-49 20.5q-42 0 -61 -36.5t-21 -84.5zM858 1233q0 -60 -43.5 -104t-103.5 -44q-62 0 -107 44t-45 106q0 61 44.5 103t105.5 42q62 0 105.5 -43t43.5 -104zM465 1233q0 -60 -44 -104t-104 -44q-62 0 -106.5 43.5t-44.5 106.5q0 61 44 103t105 42q62 0 106 -43t44 -104
z" />
    <glyph glyph-name="igrave" unicode="&#xec;" horiz-adv-x="518" 
d="M436 0h-354v956h354v-956zM397 1085h-204l-179 304h285z" />
    <glyph glyph-name="iacute" unicode="&#xed;" horiz-adv-x="518" 
d="M436 0h-354v956h354v-956zM500 1389l-181 -304h-202l96 304h287z" />
    <glyph glyph-name="icircumflex" unicode="&#xee;" horiz-adv-x="518" 
d="M436 0h-354v956h354v-956zM270 1413l265 -239l-119 -130l-152 136l-164 -144l-123 138z" />
    <glyph glyph-name="idieresis" unicode="&#xef;" horiz-adv-x="518" 
d="M436 0h-354v956h354v-956zM604 1233q0 -60 -43.5 -104t-103.5 -44q-62 0 -107 44t-45 106q0 61 44.5 103t105.5 42q62 0 105.5 -43t43.5 -104zM211 1233q0 -60 -44 -104t-104 -44q-62 0 -106.5 43.5t-44.5 106.5q0 61 44 103t105 42q62 0 106 -43t44 -104z" />
    <glyph glyph-name="eth" unicode="&#xf0;" horiz-adv-x="999" 
d="M791 1358l-170 -94q159 -140 242 -334.5t83 -413.5q0 -125 -25 -223t-94 -176q-122 -137 -323 -137q-145 0 -248 65.5t-152 175.5t-49 254q0 100 27.5 188.5t79 158t134 110.5t185.5 43q-42 102 -94 164l-223 -123l-72 129l187 102q-79 57 -195 107l92 143
q162 -45 307 -135l236 129zM600 477q0 30 -3.5 63t-13 74t-32 67t-53.5 26q-30 0 -51.5 -27t-31.5 -67.5t-14 -74.5t-4 -61q0 -29 4 -62t13.5 -74.5t32 -68t53.5 -26.5t52.5 26.5t31 68t13 74.5t3.5 62z" />
    <glyph glyph-name="ntilde" unicode="&#xf1;" horiz-adv-x="1005" 
d="M924 0h-357v506q0 25 -1 37t-5 35t-16.5 34t-32.5 11q-76 0 -76 -142v-481h-354v956h354q-4 -120 -8 -182q86 203 252 203q66 0 115 -28t76.5 -76t40 -103.5t12.5 -118.5v-651zM870 1362v-29q0 -102 -57.5 -172.5t-157.5 -70.5q-54 0 -131.5 33.5t-107.5 33.5
q-56 0 -56 -72h-186v5q0 53 11 98.5t34 84t64.5 61t97.5 22.5q53 0 134 -34t114 -34q57 0 57 74h184z" />
    <glyph glyph-name="ograve" unicode="&#xf2;" horiz-adv-x="997" 
d="M944 469q0 -218 -117.5 -353.5t-332.5 -135.5q-142 0 -243 68t-148.5 178t-47.5 249q0 103 28.5 193t82.5 159t139 109.5t191 40.5q111 0 197.5 -39.5t140.5 -109t82 -160.5t28 -199zM600 477q0 30 -4 64t-13.5 74.5t-31.5 67t-53 26.5q-30 0 -51.5 -26.5t-31 -67.5
t-13 -74.5t-3.5 -63.5t4 -63.5t13.5 -73.5t31 -66t52.5 -26q30 0 51.5 26t31 66.5t13.5 74t4 62.5zM610 1085h-204l-179 304h285z" />
    <glyph glyph-name="oacute" unicode="&#xf3;" horiz-adv-x="997" 
d="M944 469q0 -218 -117.5 -353.5t-332.5 -135.5q-142 0 -243 68t-148.5 178t-47.5 249q0 103 28.5 193t82.5 159t139 109.5t191 40.5q111 0 197.5 -39.5t140.5 -109t82 -160.5t28 -199zM600 477q0 30 -4 64t-13.5 74.5t-31.5 67t-53 26.5q-30 0 -51.5 -26.5t-31 -67.5
t-13 -74.5t-3.5 -63.5t4 -63.5t13.5 -73.5t31 -66t52.5 -26q30 0 51.5 26t31 66.5t13.5 74t4 62.5zM774 1389l-180 -304h-203l96 304h287z" />
    <glyph glyph-name="ocircumflex" unicode="&#xf4;" horiz-adv-x="997" 
d="M944 469q0 -218 -117.5 -353.5t-332.5 -135.5q-142 0 -243 68t-148.5 178t-47.5 249q0 103 28.5 193t82.5 159t139 109.5t191 40.5q111 0 197.5 -39.5t140.5 -109t82 -160.5t28 -199zM600 477q0 30 -4 64t-13.5 74.5t-31.5 67t-53 26.5q-30 0 -51.5 -26.5t-31 -67.5
t-13 -74.5t-3.5 -63.5t4 -63.5t13.5 -73.5t31 -66t52.5 -26q30 0 51.5 26t31 66.5t13.5 74t4 62.5zM528 1413l265 -239l-119 -130l-152 136l-164 -144l-122 138z" />
    <glyph glyph-name="otilde" unicode="&#xf5;" horiz-adv-x="997" 
d="M944 469q0 -218 -117.5 -353.5t-332.5 -135.5q-142 0 -243 68t-148.5 178t-47.5 249q0 103 28.5 193t82.5 159t139 109.5t191 40.5q111 0 197.5 -39.5t140.5 -109t82 -160.5t28 -199zM600 477q0 30 -4 64t-13.5 74.5t-31.5 67t-53 26.5q-30 0 -51.5 -26.5t-31 -67.5
t-13 -74.5t-3.5 -63.5t4 -63.5t13.5 -73.5t31 -66t52.5 -26q30 0 51.5 26t31 66.5t13.5 74t4 62.5zM840 1362v-29q0 -102 -57.5 -172.5t-157.5 -70.5q-54 0 -132 33.5t-108 33.5q-55 0 -55 -72h-187v5q0 53 11 98.5t34 84t64.5 61t97.5 22.5q54 0 135 -34t113 -34
q57 0 57 74h185z" />
    <glyph glyph-name="odieresis" unicode="&#xf6;" horiz-adv-x="997" 
d="M944 469q0 -218 -117.5 -353.5t-332.5 -135.5q-142 0 -243 68t-148.5 178t-47.5 249q0 103 28.5 193t82.5 159t139 109.5t191 40.5q111 0 197.5 -39.5t140.5 -109t82 -160.5t28 -199zM600 477q0 30 -4 64t-13.5 74.5t-31.5 67t-53 26.5q-30 0 -51.5 -26.5t-31 -67.5
t-13 -74.5t-3.5 -63.5t4 -63.5t13.5 -73.5t31 -66t52.5 -26q30 0 51.5 26t31 66.5t13.5 74t4 62.5zM838 1233q0 -60 -44 -104t-104 -44q-62 0 -106.5 43.5t-44.5 106.5q0 61 44 103t105 42q62 0 106 -43t44 -104zM444 1233q0 -60 -43.5 -104t-103.5 -44q-62 0 -107 44
t-45 106q0 61 44.5 103t105.5 42q62 0 105.5 -43t43.5 -104z" />
    <glyph glyph-name="divide" unicode="&#xf7;" 
d="M664 1044q0 -63 -44.5 -107t-107.5 -44t-107.5 44t-44.5 107t44.5 107.5t107.5 44.5t107.5 -44.5t44.5 -107.5zM956 573h-888v246h888v-246zM664 348q0 -63 -44.5 -107t-107.5 -44t-107.5 44t-44.5 107t44.5 107.5t107.5 44.5t107.5 -44.5t44.5 -107.5z" />
    <glyph glyph-name="oslash" unicode="&#xf8;" horiz-adv-x="997" 
d="M944 967l-102 -148q102 -137 102 -350q0 -218 -117.5 -353.5t-332.5 -135.5q-64 0 -105.5 8.5t-99.5 34.5l-96 -138l-138 99l103 149q-103 138 -103 342q0 103 28.5 193t82.5 159t139 109.5t191 40.5q117 0 215 -49l94 135zM600 477q0 30 -4 64t-13.5 74.5t-31.5 67
t-53 26.5q-30 0 -51.5 -26.5t-31 -67.5t-13 -74.5t-3.5 -63.5t4 -63.5t13.5 -73.5t31 -66t52.5 -26q30 0 51.5 26t31 66.5t13.5 74t4 62.5z" />
    <glyph glyph-name="ugrave" unicode="&#xf9;" horiz-adv-x="1021" 
d="M940 956v-587q0 -103 -29.5 -174t-107.5 -127q-125 -88 -291 -88t-291 88q-78 56 -108.5 127t-30.5 174v587h354v-561q0 -27 2 -43.5t9 -36.5t23 -29.5t42 -9.5q21 0 36 9t22.5 20t11 32.5t4 33.5t0.5 36v11v538h354zM602 1085h-205l-178 304h285z" />
    <glyph glyph-name="uacute" unicode="&#xfa;" horiz-adv-x="1021" 
d="M940 956v-587q0 -103 -29.5 -174t-107.5 -127q-125 -88 -291 -88t-291 88q-78 56 -108.5 127t-30.5 174v587h354v-561q0 -27 2 -43.5t9 -36.5t23 -29.5t42 -9.5q21 0 36 9t22.5 20t11 32.5t4 33.5t0.5 36v11v538h354zM797 1389l-181 -304h-202l96 304h287z" />
    <glyph glyph-name="ucircumflex" unicode="&#xfb;" horiz-adv-x="1021" 
d="M940 956v-587q0 -103 -29.5 -174t-107.5 -127q-125 -88 -291 -88t-291 88q-78 56 -108.5 127t-30.5 174v587h354v-561q0 -27 2 -43.5t9 -36.5t23 -29.5t42 -9.5q21 0 36 9t22.5 20t11 32.5t4 33.5t0.5 36v11v538h354zM530 1413l265 -239l-119 -130l-152 136l-164 -144
l-122 138z" />
    <glyph glyph-name="udieresis" unicode="&#xfc;" horiz-adv-x="1021" 
d="M940 956v-587q0 -103 -29.5 -174t-107.5 -127q-125 -88 -291 -88t-291 88q-78 56 -108.5 127t-30.5 174v587h354v-561q0 -27 2 -43.5t9 -36.5t23 -29.5t42 -9.5q21 0 36 9t22.5 20t11 32.5t4 33.5t0.5 36v11v538h354zM864 1233q0 -60 -43.5 -104t-103.5 -44
q-62 0 -107 44t-45 106q0 61 44.5 103t105.5 42q62 0 105.5 -43t43.5 -104zM471 1233q0 -60 -43.5 -104t-103.5 -44q-62 0 -107 44t-45 106q0 61 44.5 103t105.5 42q62 0 105.5 -43t43.5 -104z" />
    <glyph glyph-name="yacute" unicode="&#xfd;" horiz-adv-x="933" 
d="M934 956l-453 -1396h-364l168 479l-285 917h356q6 -23 22.5 -87.5t23.5 -94t20 -86t20 -94t15 -87t12 -93.5q2 12 11 80t13 93.5t13.5 74.5t19.5 88l54 206h354zM756 1389l-181 -304h-202l96 304h287z" />
    <glyph glyph-name="thorn" unicode="&#xfe;" horiz-adv-x="1013" 
d="M436 1493v-537q0 -45 -8 -135q40 77 90.5 116.5t128.5 39.5q70 0 125.5 -34t89.5 -86t56.5 -121t31 -132t8.5 -125q0 -51 -5.5 -102.5t-18 -110t-35.5 -108t-55 -90.5t-80 -64.5t-107 -23.5q-79 0 -130 37t-99 112q8 -94 8 -145v-424h-354v1933h354zM592 489q0 26 -3 53
t-10.5 62.5t-25.5 57.5t-45 22t-45 -23t-25 -59.5t-9.5 -63.5t-2.5 -53q0 -28 2 -54.5t9 -65.5t25 -62.5t44 -23.5q28 0 47 24t26.5 63t10 67t2.5 56z" />
    <glyph glyph-name="ydieresis" unicode="&#xff;" horiz-adv-x="933" 
d="M934 956l-453 -1396h-364l168 479l-285 917h356q6 -23 22.5 -87.5t23.5 -94t20 -86t20 -94t15 -87t12 -93.5q2 12 11 80t13 93.5t13.5 74.5t19.5 88l54 206h354zM825 1233q0 -60 -43.5 -104t-103.5 -44q-62 0 -107 44t-45 106q0 61 44.5 103t105.5 42q62 0 105.5 -43
t43.5 -104zM432 1233q0 -60 -43.5 -104t-103.5 -44q-62 0 -107 44t-45 106q0 61 44.5 103t105.5 42q62 0 105.5 -43t43.5 -104z" />
    <glyph glyph-name="Amacron" unicode="&#x100;" horiz-adv-x="1089" 
d="M1079 0h-381l-28 174h-248l-31 -174h-381l330 1366h451zM471 465h156q-49 323 -70 573q-4 -32 -11 -96t-11 -96q-28 -200 -64 -381zM911 1522h-696v192h696v-192z" />
    <glyph glyph-name="amacron" unicode="&#x101;" horiz-adv-x="1017" 
d="M936 0h-356l6 81l6 81q-91 -182 -246 -182q-58 0 -105.5 24t-78 66t-52.5 92t-33.5 109t-16.5 110t-5 102q0 63 7.5 125t28 130.5t52.5 120t86.5 85t124.5 33.5q149 0 230 -172q-1 12 -4 66.5t-7 84.5h363v-956zM575 520q0 164 -73 164q-22 0 -38.5 -12.5t-26 -37
t-15 -46t-7.5 -55.5t-2.5 -48t-0.5 -41q0 -172 80 -172q15 0 27.5 6t21 18.5t15 25.5t10 33t6 35t3 38t1 35t0 32.5t-0.5 24.5zM881 1133h-697v192h697v-192z" />
    <glyph glyph-name="Abreve" unicode="&#x102;" horiz-adv-x="1089" 
d="M1079 0h-381l-28 174h-248l-31 -174h-381l330 1366h451zM471 465h156q-49 323 -70 573q-4 -32 -11 -96t-11 -96q-28 -200 -64 -381zM731 1776h141q-12 -140 -99.5 -223t-227.5 -83t-228 83t-100 223h141q26 -64 69.5 -86.5t117.5 -22.5t117 22.5t69 86.5z" />
    <glyph glyph-name="abreve" unicode="&#x103;" horiz-adv-x="1017" 
d="M936 0h-356l6 81l6 81q-91 -182 -246 -182q-58 0 -105.5 24t-78 66t-52.5 92t-33.5 109t-16.5 110t-5 102q0 63 7.5 125t28 130.5t52.5 120t86.5 85t124.5 33.5q149 0 230 -172q-1 12 -4 66.5t-7 84.5h363v-956zM575 520q0 164 -73 164q-22 0 -38.5 -12.5t-26 -37
t-15 -46t-7.5 -55.5t-2.5 -48t-0.5 -41q0 -172 80 -172q15 0 27.5 6t21 18.5t15 25.5t10 33t6 35t3 38t1 35t0 32.5t-0.5 24.5zM696 1370h142q-12 -140 -100 -222.5t-228 -82.5t-228 82.5t-100 222.5h142q26 -64 68.5 -86t117.5 -22t117.5 22t68.5 86z" />
    <glyph glyph-name="Aogonek" unicode="&#x104;" horiz-adv-x="1089" 
d="M340 1366h451l288 -1366h-118q-58 -83 -58 -135q0 -38 23 -58q21 -18 59 -18q34 0 70 18l-17 -157q-73 -25 -131 -25q-85 0 -139 39q-61 42 -61 125q0 63 38 119q28 45 82 92h-129l-28 174h-248l-31 -174h-381zM471 465h156q-29 185 -41 295q-18 186 -29 278
q-13 -131 -37 -284q-16 -110 -49 -289z" />
    <glyph glyph-name="aogonek" unicode="&#x105;" horiz-adv-x="1017" 
d="M573 956h363v-956h-111q-49 -73 -49 -133q0 -33 21 -51q21 -19 59 -19q32 0 66 19l-17 -150q-58 -24 -117 -24q-45 0 -89 13t-70 36q-45 42 -45 110q0 57 34 113q23 39 70 86h-108l12 162q-33 -71 -80 -115q-70 -67 -164 -67q-103 0 -172 75q-68 76 -94.5 197t-26.5 242
q0 129 33.5 241t93.5 172q70 70 170 70q97 0 164 -70q45 -48 68 -102zM412 471v-27q0 -116 37 -153q16 -19 43 -19q20 0 40 17q43 40 43 168v63q0 121 -34 150q-18 14 -37 14q-25 0 -47 -18q-24 -23 -34.5 -82t-10.5 -113z" />
    <glyph glyph-name="Cacute" unicode="&#x106;" horiz-adv-x="911" 
d="M864 420l-22 -395q-63 -28 -109.5 -39t-109.5 -11q-114 0 -209 40t-159 107.5t-108.5 158t-65 190.5t-20.5 207q0 114 23 218t71.5 195t119 157.5t171 104.5t220.5 38q57 0 94.5 -7t87.5 -28v-389q-40 42 -79 62t-91 20q-56 0 -99.5 -23.5t-69.5 -60t-42.5 -86t-22.5 -97
t-6 -98.5q0 -49 6 -95t22.5 -94t42 -83t67.5 -57.5t96 -22.5q55 0 99 22t93 66zM930 1778l-180 -303h-203l96 303h287z" />
    <glyph glyph-name="cacute" unicode="&#x107;" horiz-adv-x="620" 
d="M580 311v-325q-50 -6 -97 -6q-102 0 -185 42.5t-135 113.5t-80 160t-28 187q0 99 32.5 188.5t90 157.5t143.5 108t187 40q22 0 72 -4v-311q-76 -4 -117 -50t-41 -123q0 -65 36 -121.5t97 -56.5h25zM705 1389l-181 -304h-202l96 304h287z" />
    <glyph glyph-name="Ccircumflex" unicode="&#x108;" horiz-adv-x="911" 
d="M864 420l-22 -395q-63 -28 -109.5 -39t-109.5 -11q-114 0 -209 40t-159 107.5t-108.5 158t-65 190.5t-20.5 207q0 114 23 218t71.5 195t119 157.5t171 104.5t220.5 38q57 0 94.5 -7t87.5 -28v-389q-40 42 -79 62t-91 20q-56 0 -99.5 -23.5t-69.5 -60t-42.5 -86t-22.5 -97
t-6 -98.5q0 -49 6 -95t22.5 -94t42 -83t67.5 -57.5t96 -22.5q55 0 99 22t93 66zM680 1782l281 -201l-117 -135l-170 115l-168 -119l-125 135z" />
    <glyph glyph-name="ccircumflex" unicode="&#x109;" horiz-adv-x="620" 
d="M580 311v-325q-50 -6 -97 -6q-102 0 -185 42.5t-135 113.5t-80 160t-28 187q0 99 32.5 188.5t90 157.5t143.5 108t187 40q22 0 72 -4v-311q-76 -4 -117 -50t-41 -123q0 -65 36 -121.5t97 -56.5h25zM463 1413l264 -239l-119 -130l-151 136l-164 -144l-123 138z" />
    <glyph glyph-name="Cdotaccent" unicode="&#x10a;" horiz-adv-x="911" 
d="M864 420l-22 -395q-63 -28 -109.5 -39t-109.5 -11q-114 0 -209 40t-159 107.5t-108.5 158t-65 190.5t-20.5 207q0 114 23 218t71.5 195t119 157.5t171 104.5t220.5 38q57 0 94.5 -7t87.5 -28v-389q-40 42 -79 62t-91 20q-56 0 -99.5 -23.5t-69.5 -60t-42.5 -86t-22.5 -97
t-6 -98.5q0 -49 6 -95t22.5 -94t42 -83t67.5 -57.5t96 -22.5q55 0 99 22t93 66zM819 1628q0 -63 -45 -108t-108 -45q-65 0 -111.5 45t-46.5 110q0 64 45.5 109t110.5 45q64 0 109.5 -45.5t45.5 -110.5z" />
    <glyph glyph-name="cdotaccent" unicode="&#x10b;" horiz-adv-x="620" 
d="M580 311v-325q-50 -6 -97 -6q-102 0 -185 42.5t-135 113.5t-80 160t-28 187q0 99 32.5 188.5t90 157.5t143.5 108t187 40q22 0 72 -4v-311q-76 -4 -117 -50t-41 -123q0 -65 36 -121.5t97 -56.5h25zM616 1239q0 -63 -45 -108.5t-108 -45.5q-65 0 -111.5 45.5t-46.5 110.5
q0 64 45.5 109t110.5 45q64 0 109.5 -45.5t45.5 -110.5z" />
    <glyph glyph-name="Ccaron" unicode="&#x10c;" horiz-adv-x="911" 
d="M864 420l-22 -395q-63 -28 -109.5 -39t-109.5 -11q-114 0 -209 40t-159 107.5t-108.5 158t-65 190.5t-20.5 207q0 114 23 218t71.5 195t119 157.5t171 104.5t220.5 38q57 0 94.5 -7t87.5 -28v-389q-40 42 -79 62t-91 20q-56 0 -99.5 -23.5t-69.5 -60t-42.5 -86t-22.5 -97
t-6 -98.5q0 -49 6 -95t22.5 -94t42 -83t67.5 -57.5t96 -22.5q55 0 99 22t93 66zM971 1642l-305 -200l-275 205l125 141l164 -115l174 111z" />
    <glyph glyph-name="ccaron" unicode="&#x10d;" horiz-adv-x="620" 
d="M580 311v-325q-50 -6 -97 -6q-102 0 -185 42.5t-135 113.5t-80 160t-28 187q0 99 32.5 188.5t90 157.5t143.5 108t187 40q22 0 72 -4v-311q-76 -4 -117 -50t-41 -123q0 -65 36 -121.5t97 -56.5h25zM727 1276l-283 -240l-274 240l123 137l164 -143l151 135z" />
    <glyph glyph-name="Dcaron" unicode="&#x10e;" horiz-adv-x="1099" 
d="M96 1366h318q153 0 273 -51t196 -143t115.5 -216t39.5 -274q0 -254 -94 -420q-81 -145 -204 -203.5t-300 -58.5h-344v1366zM465 1024v-694q41 1 74 17.5t53.5 44.5t35 61t21.5 73t10 74.5t3 71.5q0 44 -4 86t-16.5 92t-33.5 87t-57.5 62t-85.5 25zM807 1642l-305 -200
l-275 205l125 141l164 -115l174 111z" />
    <glyph glyph-name="dcaron" unicode="&#x10f;" horiz-adv-x="1417" 
d="M936 0h-363v41q0 17 3.5 49t3.5 39q-46 -72 -95.5 -110.5t-122.5 -38.5q-72 0 -128 32.5t-89 82.5t-54 117.5t-28.5 129.5t-7.5 127q0 54 5 106.5t16.5 112.5t34 109.5t54.5 91t81.5 65t111.5 23.5q81 0 133.5 -40.5t94.5 -119.5q-6 153 -6 154v522h356v-1493zM592 487
q0 195 -82 195q-29 0 -48 -22.5t-27 -59t-10.5 -64t-2.5 -57.5q0 -194 88 -194q82 0 82 202zM1430 1366l-189 -453h-211l96 453h304z" />
    <glyph glyph-name="Dcroat" unicode="&#x110;" horiz-adv-x="1099" 
d="M96 1366h320q147 0 262 -44t203 -148q157 -184 157 -486q0 -358 -178 -541q-80 -83 -183 -115t-237 -32h-344v594h-82v211h82v561zM465 594v-264q197 11 197 340q0 197 -72 293q-26 34 -50.5 47.5t-64.5 13.5h-10v-219h108v-211h-108z" />
    <glyph glyph-name="dcroat" unicode="&#x111;" horiz-adv-x="1081" 
d="M936 1022v-1022h-363v41l7 88q-39 -69 -86 -106q-58 -43 -138 -43q-108 0 -180 75q-66 68 -93.5 169t-27.5 200q0 270 123 393q74 74 174 74q84 0 146 -47q57 -39 88 -113q-4 131 -6 154v137h-246v215h248v256h354v-256h125v-215h-125zM512 629q-30 0 -51 -25
q-20 -23 -29.5 -74t-9.5 -100q0 -43 10.5 -85.5t30.5 -61.5q22 -19 47 -19q27 0 43 19q39 42 39 161q0 124 -39 166q-19 19 -41 19z" />
    <glyph glyph-name="Emacron" unicode="&#x112;" horiz-adv-x="841" 
d="M780 0h-684v1366h684v-322h-315v-198h283v-309h-283v-209h315v-328zM788 1522h-696v192h696v-192z" />
    <glyph glyph-name="emacron" unicode="&#x113;" horiz-adv-x="985" 
d="M571 324l347 -2q-37 -166 -147.5 -254t-278.5 -88q-212 0 -324.5 132.5t-112.5 348.5q0 138 50 253t153.5 188t243.5 73q106 0 190 -41.5t135.5 -112.5t78 -160.5t26.5 -191.5q0 -11 -1 -33t-1 -33h-520q0 -147 82 -147q30 0 51.5 19t27.5 49zM414 594h166q-1 29 -8 54.5
t-27 46t-49 20.5q-42 0 -61 -36.5t-21 -84.5zM842 1133h-697v192h697v-192z" />
    <glyph glyph-name="Edotaccent" unicode="&#x116;" horiz-adv-x="841" 
d="M780 0h-684v1366h684v-322h-315v-198h283v-309h-283v-209h315v-328zM596 1628q0 -63 -45.5 -108t-108.5 -45q-65 0 -111 45t-46 110q0 64 45 109t110 45q64 0 110 -46t46 -110z" />
    <glyph glyph-name="edotaccent" unicode="&#x117;" horiz-adv-x="985" 
d="M571 324l347 -2q-37 -166 -147.5 -254t-278.5 -88q-212 0 -324.5 132.5t-112.5 348.5q0 138 50 253t153.5 188t243.5 73q106 0 190 -41.5t135.5 -112.5t78 -160.5t26.5 -191.5q0 -11 -1 -33t-1 -33h-520q0 -147 82 -147q30 0 51.5 19t27.5 49zM414 594h166q-1 29 -8 54.5
t-27 46t-49 20.5q-42 0 -61 -36.5t-21 -84.5zM649 1239q0 -63 -45 -108.5t-108 -45.5q-65 0 -111.5 45.5t-46.5 110.5q0 64 45.5 109t110.5 45q64 0 109.5 -45.5t45.5 -110.5z" />
    <glyph glyph-name="Eogonek" unicode="&#x118;" horiz-adv-x="841" 
d="M96 1366h684v-322h-315v-198h283v-309h-283v-209h315v-328h-114q-58 -83 -58 -135q0 -38 23 -58q21 -18 59 -18q34 0 70 18l-17 -157q-73 -25 -131 -25q-85 0 -139 39q-61 42 -61 125q0 61 39 119q29 47 81 92h-436v1366z" />
    <glyph glyph-name="eogonek" unicode="&#x119;" horiz-adv-x="985" 
d="M571 324h347q-29 -165 -162 -269q-21 -16 -70 -49t-70 -53q-43 -40 -43 -86q0 -33 21 -51q19 -19 53 -19t72 19l-17 -150q-57 -24 -124 -24q-92 0 -140 41q-57 47 -57 127q0 52 30 96.5t72 73.5q-92 0 -168 30.5t-127 79.5q-133 130 -133 371q0 125 41.5 229t112.5 172
q116 113 291 113q185 0 295 -115q20 -21 39 -48.5t43.5 -76t39.5 -119.5t15 -153q0 -40 -2 -60h-520q0 -92 32 -127q20 -20 50 -20q32 0 55 23q18 18 24 45zM414 594h166q0 63 -31 96q-22 25 -53 25q-29 0 -50 -21q-32 -32 -32 -100z" />
    <glyph glyph-name="Ecaron" unicode="&#x11a;" horiz-adv-x="841" 
d="M780 0h-684v1366h684v-322h-315v-198h283v-309h-283v-209h315v-328zM745 1642l-305 -200l-274 205l125 141l164 -115l174 111z" />
    <glyph glyph-name="ecaron" unicode="&#x11b;" horiz-adv-x="985" 
d="M571 324l347 -2q-37 -166 -147.5 -254t-278.5 -88q-212 0 -324.5 132.5t-112.5 348.5q0 138 50 253t153.5 188t243.5 73q106 0 190 -41.5t135.5 -112.5t78 -160.5t26.5 -191.5q0 -11 -1 -33t-1 -33h-520q0 -147 82 -147q30 0 51.5 19t27.5 49zM414 594h166q-1 29 -8 54.5
t-27 46t-49 20.5q-42 0 -61 -36.5t-21 -84.5zM788 1276l-282 -240l-275 240l123 137l164 -143l152 135z" />
    <glyph glyph-name="Gcircumflex" unicode="&#x11c;" horiz-adv-x="1146" 
d="M1085 788v-55q0 -159 -18 -288.5t-72 -233.5q-60 -115 -167.5 -175.5t-239.5 -60.5q-114 0 -206 41t-151 108t-98 159.5t-55.5 189.5t-16.5 203t16 204t55.5 192.5t98 164t150.5 112t207 42.5q165 0 282.5 -89.5t186.5 -248.5l-359 -131q-5 54 -32 96.5t-76 42.5
q-152 0 -152 -418q0 -31 0.5 -49.5t3 -58.5t7 -66t15 -60t25 -54.5t37.5 -35t52 -14.5q48 0 78.5 33.5t40.5 75t10 88.5h-136v286h514zM629 1782l280 -201l-116 -135l-170 115l-168 -119l-125 135z" />
    <glyph glyph-name="gcircumflex" unicode="&#x11d;" horiz-adv-x="1009" 
d="M928 956v-981q0 -163 -72 -262q-58 -78 -153.5 -115.5t-204.5 -37.5q-188 0 -296 82.5t-134 263.5h362q0 -33 20.5 -55.5t53.5 -22.5q28 0 46 12t25.5 34.5t10 42t2.5 46.5v148q-92 -125 -223 -125q-69 0 -124.5 33.5t-89.5 85t-56.5 119t-31 130.5t-8.5 125
q0 60 8.5 123.5t31 132t56 121t87.5 87t122 34.5q117 0 215 -146l-6 125h359zM584 481q0 207 -78 207q-84 0 -84 -201q0 -28 2.5 -56t10 -66.5t26 -62t45.5 -23.5q78 0 78 202zM518 1413l264 -239l-118 -130l-152 136l-164 -144l-123 138z" />
    <glyph glyph-name="Gbreve" unicode="&#x11e;" horiz-adv-x="1146" 
d="M1085 788v-55q0 -159 -18 -288.5t-72 -233.5q-60 -115 -167.5 -175.5t-239.5 -60.5q-114 0 -206 41t-151 108t-98 159.5t-55.5 189.5t-16.5 203t16 204t55.5 192.5t98 164t150.5 112t207 42.5q165 0 282.5 -89.5t186.5 -248.5l-359 -131q-5 54 -32 96.5t-76 42.5
q-152 0 -152 -418q0 -31 0.5 -49.5t3 -58.5t7 -66t15 -60t25 -54.5t37.5 -35t52 -14.5q48 0 78.5 33.5t40.5 75t10 88.5h-136v286h514zM780 1776h142q-12 -140 -100 -223t-228 -83t-228 83t-100 223h142q26 -64 69 -86.5t117 -22.5t117 22.5t69 86.5z" />
    <glyph glyph-name="gbreve" unicode="&#x11f;" horiz-adv-x="1009" 
d="M928 956v-981q0 -163 -72 -262q-58 -78 -153.5 -115.5t-204.5 -37.5q-188 0 -296 82.5t-134 263.5h362q0 -33 20.5 -55.5t53.5 -22.5q28 0 46 12t25.5 34.5t10 42t2.5 46.5v148q-92 -125 -223 -125q-69 0 -124.5 33.5t-89.5 85t-56.5 119t-31 130.5t-8.5 125
q0 60 8.5 123.5t31 132t56 121t87.5 87t122 34.5q117 0 215 -146l-6 125h359zM584 481q0 207 -78 207q-84 0 -84 -201q0 -28 2.5 -56t10 -66.5t26 -62t45.5 -23.5q78 0 78 202zM713 1370h141q-12 -140 -100 -222.5t-228 -82.5t-227.5 82.5t-99.5 222.5h141q26 -64 68.5 -86
t117.5 -22t118 22t69 86z" />
    <glyph glyph-name="Gdotaccent" unicode="&#x120;" horiz-adv-x="1146" 
d="M1085 788v-55q0 -159 -18 -288.5t-72 -233.5q-60 -115 -167.5 -175.5t-239.5 -60.5q-114 0 -206 41t-151 108t-98 159.5t-55.5 189.5t-16.5 203t16 204t55.5 192.5t98 164t150.5 112t207 42.5q165 0 282.5 -89.5t186.5 -248.5l-359 -131q-5 54 -32 96.5t-76 42.5
q-152 0 -152 -418q0 -31 0.5 -49.5t3 -58.5t7 -66t15 -60t25 -54.5t37.5 -35t52 -14.5q48 0 78.5 33.5t40.5 75t10 88.5h-136v286h514zM741 1628q0 -63 -45 -108t-108 -45q-65 0 -111.5 45t-46.5 110q0 64 45.5 109t110.5 45q64 0 109.5 -45.5t45.5 -110.5z" />
    <glyph glyph-name="gdotaccent" unicode="&#x121;" horiz-adv-x="1009" 
d="M928 956v-981q0 -163 -72 -262q-58 -78 -153.5 -115.5t-204.5 -37.5q-188 0 -296 82.5t-134 263.5h362q0 -33 20.5 -55.5t53.5 -22.5q28 0 46 12t25.5 34.5t10 42t2.5 46.5v148q-92 -125 -223 -125q-69 0 -124.5 33.5t-89.5 85t-56.5 119t-31 130.5t-8.5 125
q0 60 8.5 123.5t31 132t56 121t87.5 87t122 34.5q117 0 215 -146l-6 125h359zM584 481q0 207 -78 207q-84 0 -84 -201q0 -28 2.5 -56t10 -66.5t26 -62t45.5 -23.5q78 0 78 202zM637 1239q0 -63 -45.5 -108.5t-108.5 -45.5q-65 0 -111 45t-46 111q0 64 45 109t110 45
t110.5 -45.5t45.5 -110.5z" />
    <glyph glyph-name="Gcommaaccent" unicode="&#x122;" horiz-adv-x="1146" 
d="M1085 788v-55q0 -159 -18 -288.5t-72 -233.5q-60 -115 -167.5 -175.5t-239.5 -60.5q-114 0 -206 41t-151 108t-98 159.5t-55.5 189.5t-16.5 203t16 204t55.5 192.5t98 164t150.5 112t207 42.5q165 0 282.5 -89.5t186.5 -248.5l-359 -131q-5 54 -32 96.5t-76 42.5
q-152 0 -152 -418q0 -31 0.5 -49.5t3 -58.5t7 -66t15 -60t25 -54.5t37.5 -35t52 -14.5q48 0 78.5 33.5t40.5 75t10 88.5h-136v286h514zM754 -92l-164 -387h-209l72 387h301z" />
    <glyph glyph-name="gcommaaccent" unicode="&#x123;" horiz-adv-x="1009" 
d="M928 956v-981q0 -163 -72 -262q-58 -78 -153.5 -115.5t-204.5 -37.5q-188 0 -296 82.5t-134 263.5h362q0 -33 20.5 -55.5t53.5 -22.5q28 0 46 12t25.5 34.5t10 42t2.5 46.5v148q-92 -125 -223 -125q-69 0 -124.5 33.5t-89.5 85t-56.5 119t-31 130.5t-8.5 125
q0 60 8.5 123.5t31 132t56 121t87.5 87t122 34.5q117 0 215 -146l-6 125h359zM584 481q0 207 -78 207q-84 0 -84 -201q0 -28 2.5 -56t10 -66.5t26 -62t45.5 -23.5q78 0 78 202zM315 1051l164 387h209l-72 -387h-301z" />
    <glyph glyph-name="Hcircumflex" unicode="&#x124;" horiz-adv-x="1103" 
d="M1010 0h-369v549h-176v-549h-369v1366h369v-483h176v483h369v-1366zM567 1782l281 -201l-117 -135l-170 115l-168 -119l-125 135z" />
    <glyph glyph-name="hcircumflex" unicode="&#x125;" horiz-adv-x="1005" 
d="M924 0h-357v506q0 25 -1 37t-5 35t-16.5 34t-32.5 11q-76 0 -76 -142v-481h-354v1493h354v-535q0 -62 -8 -184q86 203 252 203q66 0 115 -28t76.5 -76t40 -103.5t12.5 -118.5v-651zM279 1894l264 -239l-119 -129l-152 135l-163 -143l-123 137z" />
    <glyph glyph-name="Hbar" unicode="&#x126;" horiz-adv-x="1103" 
d="M96 0v1034h-102v248h102v84h369v-84h176v84h369v-84h102v-248h-102v-1034h-369v549h-176v-549h-369zM641 1034h-176v-172h176v172z" />
    <glyph glyph-name="hbar" unicode="&#x127;" horiz-adv-x="1069" 
d="M987 0h-356v420q0 24 -1 37t-5.5 35.5t-17 33.5t-32.5 11q-75 0 -75 -142v-395h-355v1022h-125v215h125v256h355v-256h248v-215h-246l-2 -117q0 -29 -8 -217q86 203 251 203q66 0 115 -28t76.5 -76t40 -103.5t12.5 -118.5v-565z" />
    <glyph glyph-name="Imacron" unicode="&#x12a;" horiz-adv-x="559" 
d="M465 0h-369v1366h369v-1366zM629 1522h-697v192h697v-192z" />
    <glyph glyph-name="imacron" unicode="&#x12b;" horiz-adv-x="518" 
d="M436 0h-354v956h354v-956zM608 1133h-696v192h696v-192z" />
    <glyph glyph-name="Iogonek" unicode="&#x12e;" horiz-adv-x="559" 
d="M96 1366h369v-1366q-57 -82 -57 -135q0 -39 22 -58q21 -18 59 -18q34 0 70 18l-16 -157q-73 -25 -131 -25q-86 0 -140 39q-61 42 -61 125q0 61 39 119q28 45 82 92h-236v1366z" />
    <glyph glyph-name="iogonek" unicode="&#x12f;" horiz-adv-x="518" 
d="M82 956h354v-956q-34 -25 -61 -63q-31 -45 -31 -74q0 -31 23 -49q24 -17 55 -17q29 0 67 19l-16 -150q-58 -24 -125 -24q-88 0 -137 36q-59 43 -59 119q0 68 45 119q37 43 94 84h-209v956zM53 1253q0 85 61 146t146 61t146 -61t61 -146t-61 -145.5t-146 -60.5t-146 60.5
t-61 145.5z" />
    <glyph glyph-name="Idotaccent" unicode="&#x130;" horiz-adv-x="559" 
d="M465 0h-369v1366h369v-1366zM432 1628q0 -63 -45 -108t-108 -45q-65 0 -111.5 45t-46.5 110q0 64 45 109t110 45q64 0 110 -46t46 -110z" />
    <glyph glyph-name="dotlessi" unicode="&#x131;" horiz-adv-x="518" 
d="M436 0h-354v956h354v-956z" />
    <glyph glyph-name="Jcircumflex" unicode="&#x134;" horiz-adv-x="724" 
d="M629 1366v-948q0 -82 -8.5 -141t-36.5 -115q-94 -187 -342 -187q-118 0 -242 45v381q62 -79 147 -79q35 0 58.5 14t35 40t15.5 52.5t4 60.5v877h369zM444 1782l281 -201l-117 -135l-170 115l-168 -119l-125 135z" />
    <glyph glyph-name="jcircumflex" unicode="&#x135;" horiz-adv-x="520" 
d="M438 -440h-354l-2 1396h356v-1396zM258 1413l264 -239l-119 -130l-151 136l-164 -144l-123 138z" />
    <glyph glyph-name="Kcommaaccent" unicode="&#x136;" horiz-adv-x="1107" 
d="M1098 0h-398l-245 653l10 -653h-369v1366h369l-10 -610l217 610h389l-291 -659zM731 -92l-164 -387h-209l72 387h301z" />
    <glyph glyph-name="kcommaaccent" unicode="&#x137;" horiz-adv-x="1013" 
d="M1014 0h-408q-20 55 -57 145t-65 165t-48 149v-459h-354v1493h354v-954q20 66 47.5 133.5t65.5 152.5t57 131h383l-235 -440zM684 -92l-164 -387h-209l72 387h301z" />
    <glyph glyph-name="Lacute" unicode="&#x139;" horiz-adv-x="755" 
d="M741 0h-645v1366h369v-1038h276v-328zM541 1778l-181 -303h-202l96 303h287z" />
    <glyph glyph-name="lacute" unicode="&#x13a;" horiz-adv-x="518" 
d="M436 0h-354v1493h354v-1493zM500 1880l-181 -303h-202l96 303h287z" />
    <glyph glyph-name="Lcommaaccent" unicode="&#x13b;" horiz-adv-x="755" 
d="M741 0h-645v1366h369v-1038h276v-328zM588 -92l-164 -387h-209l72 387h301z" />
    <glyph glyph-name="lcommaaccent" unicode="&#x13c;" horiz-adv-x="518" 
d="M436 0h-354v1493h354v-1493zM418 -92l-164 -387h-209l72 387h301z" />
    <glyph glyph-name="Lcaron" unicode="&#x13d;" horiz-adv-x="976" 
d="M741 0h-645v1366h369v-1038h276v-328zM948 1366l-184 -428h-205l94 428h295z" />
    <glyph glyph-name="lcaron" unicode="&#x13e;" horiz-adv-x="915" 
d="M436 0h-354v1493h354v-1493zM928 1366l-189 -453h-211l97 453h303z" />
    <glyph glyph-name="Ldot" unicode="&#x13f;" horiz-adv-x="802" 
d="M741 0h-645v1366h369v-1038h276v-328zM838 682q0 -63 -45.5 -108.5t-108.5 -45.5q-65 0 -111.5 45.5t-46.5 110.5q0 64 45.5 109t110.5 45q64 0 110 -46t46 -110z" />
    <glyph glyph-name="ldot" unicode="&#x140;" horiz-adv-x="788" 
d="M436 0h-354v1493h354v-1493zM809 745q0 -63 -45.5 -108t-108.5 -45q-65 0 -111 45t-46 111q0 64 45 108.5t110 44.5t110.5 -45.5t45.5 -110.5z" />
    <glyph glyph-name="Lslash" unicode="&#x141;" horiz-adv-x="768" 
d="M756 0h-647v444l-109 -127v248l109 125v676h368v-438l182 196v-254l-182 -192v-350h279v-328z" />
    <glyph glyph-name="lslash" unicode="&#x142;" horiz-adv-x="600" 
d="M477 1493v-485l96 94v-230l-96 -96v-776h-354v498l-96 -97v232l96 94v766h354z" />
    <glyph glyph-name="Nacute" unicode="&#x143;" horiz-adv-x="1153" 
d="M1057 0h-352q-24 66 -71.5 191t-77 203.5t-66.5 188t-64 203.5q23 -334 23 -438v-348h-353v1366h353l184 -479q36 -96 112 -344q-40 336 -40 504v319h352v-1366zM868 1778l-180 -303h-203l97 303h286z" />
    <glyph glyph-name="nacute" unicode="&#x144;" horiz-adv-x="1005" 
d="M924 0h-357v506q0 25 -1 37t-5 35t-16.5 34t-32.5 11q-76 0 -76 -142v-481h-354v956h354q-4 -120 -8 -182q86 203 252 203q66 0 115 -28t76.5 -76t40 -103.5t12.5 -118.5v-651zM807 1389l-180 -304h-203l96 304h287z" />
    <glyph glyph-name="Ncommaaccent" unicode="&#x145;" horiz-adv-x="1153" 
d="M1057 0h-352q-24 66 -71.5 191t-77 203.5t-66.5 188t-64 203.5q23 -334 23 -438v-348h-353v1366h353l184 -479q36 -96 112 -344q-40 336 -40 504v319h352v-1366zM731 -92l-164 -387h-209l72 387h301z" />
    <glyph glyph-name="ncommaaccent" unicode="&#x146;" horiz-adv-x="1005" 
d="M924 0h-357v506q0 25 -1 37t-5 35t-16.5 34t-32.5 11q-76 0 -76 -142v-481h-354v956h354q-4 -120 -8 -182q86 203 252 203q66 0 115 -28t76.5 -76t40 -103.5t12.5 -118.5v-651zM674 -92l-164 -387h-209l72 387h301z" />
    <glyph glyph-name="Ncaron" unicode="&#x147;" horiz-adv-x="1153" 
d="M1057 0h-352q-24 66 -71.5 191t-77 203.5t-66.5 188t-64 203.5q23 -334 23 -438v-348h-353v1366h353l184 -479q36 -96 112 -344q-40 336 -40 504v319h352v-1366zM889 1642l-305 -200l-275 205l125 141l164 -115l174 111z" />
    <glyph glyph-name="ncaron" unicode="&#x148;" horiz-adv-x="1005" 
d="M924 0h-357v506q0 25 -1 37t-5 35t-16.5 34t-32.5 11q-76 0 -76 -142v-481h-354v956h354q-4 -120 -8 -182q86 203 252 203q66 0 115 -28t76.5 -76t40 -103.5t12.5 -118.5v-651zM809 1276l-283 -240l-274 240l123 137l164 -143l151 135z" />
    <glyph glyph-name="Omacron" unicode="&#x14c;" horiz-adv-x="1161" 
d="M1100 696q0 -101 -16 -198t-54.5 -193t-95.5 -168.5t-146.5 -117t-199.5 -44.5q-107 0 -205 49t-168 134q-154 185 -154 538q0 100 18 196t59 187.5t100.5 160t149 110t198.5 41.5q108 0 196.5 -42t146 -111t97.5 -160.5t57 -187t17 -194.5zM717 682q0 50 -3.5 97
t-15 115.5t-41 110.5t-73.5 42t-74.5 -42t-43.5 -108.5t-17.5 -116.5t-4.5 -96q0 -36 1.5 -72.5t10 -92t22 -96.5t40 -71t62.5 -30t63 30t40.5 70.5t21.5 95.5t10 91.5t2 72.5zM930 1522h-697v192h697v-192z" />
    <glyph glyph-name="omacron" unicode="&#x14d;" horiz-adv-x="997" 
d="M944 469q0 -218 -117.5 -353.5t-332.5 -135.5q-142 0 -243 68t-148.5 178t-47.5 249q0 103 28.5 193t82.5 159t139 109.5t191 40.5q111 0 197.5 -39.5t140.5 -109t82 -160.5t28 -199zM600 477q0 30 -4 64t-13.5 74.5t-31.5 67t-53 26.5q-30 0 -51.5 -26.5t-31 -67.5
t-13 -74.5t-3.5 -63.5t4 -63.5t13.5 -73.5t31 -66t52.5 -26q30 0 51.5 26t31 66.5t13.5 74t4 62.5zM848 1133h-696v192h696v-192z" />
    <glyph glyph-name="Obreve" unicode="&#x14e;" horiz-adv-x="1161" 
d="M1100 696q0 -101 -16 -198t-54.5 -193t-95.5 -168.5t-146.5 -117t-199.5 -44.5q-107 0 -205 49t-168 134q-154 185 -154 538q0 100 18 196t59 187.5t100.5 160t149 110t198.5 41.5q108 0 196.5 -42t146 -111t97.5 -160.5t57 -187t17 -194.5zM717 682q0 50 -3.5 97
t-15 115.5t-41 110.5t-73.5 42t-74.5 -42t-43.5 -108.5t-17.5 -116.5t-4.5 -96q0 -36 1.5 -72.5t10 -92t22 -96.5t40 -71t62.5 -30t63 30t40.5 70.5t21.5 95.5t10 91.5t2 72.5zM766 1776h141q-12 -140 -99.5 -223t-227.5 -83t-228 83t-100 223h141q26 -64 69.5 -86.5
t117.5 -22.5t117 22.5t69 86.5z" />
    <glyph glyph-name="obreve" unicode="&#x14f;" horiz-adv-x="997" 
d="M944 469q0 -218 -117.5 -353.5t-332.5 -135.5q-142 0 -243 68t-148.5 178t-47.5 249q0 103 28.5 193t82.5 159t139 109.5t191 40.5q111 0 197.5 -39.5t140.5 -109t82 -160.5t28 -199zM600 477q0 30 -4 64t-13.5 74.5t-31.5 67t-53 26.5q-30 0 -51.5 -26.5t-31 -67.5
t-13 -74.5t-3.5 -63.5t4 -63.5t13.5 -73.5t31 -66t52.5 -26q30 0 51.5 26t31 66.5t13.5 74t4 62.5zM686 1370h141q-12 -140 -99.5 -222.5t-227.5 -82.5t-228 82.5t-100 222.5h141q26 -64 69 -86t118 -22t117.5 22t68.5 86z" />
    <glyph glyph-name="Ohungarumlaut" unicode="&#x150;" horiz-adv-x="1161" 
d="M1100 696q0 -101 -16 -198t-54.5 -193t-95.5 -168.5t-146.5 -117t-199.5 -44.5q-107 0 -205 49t-168 134q-154 185 -154 538q0 100 18 196t59 187.5t100.5 160t149 110t198.5 41.5q108 0 196.5 -42t146 -111t97.5 -160.5t57 -187t17 -194.5zM717 682q0 50 -3.5 97
t-15 115.5t-41 110.5t-73.5 42t-74.5 -42t-43.5 -108.5t-17.5 -116.5t-4.5 -96q0 -36 1.5 -72.5t10 -92t22 -96.5t40 -71t62.5 -30t63 30t40.5 70.5t21.5 95.5t10 91.5t2 72.5zM991 1778l-180 -303h-182l96 303h266zM649 1778l-180 -303h-182l96 303h266z" />
    <glyph glyph-name="ohungarumlaut" unicode="&#x151;" horiz-adv-x="997" 
d="M944 469q0 -218 -117.5 -353.5t-332.5 -135.5q-142 0 -243 68t-148.5 178t-47.5 249q0 103 28.5 193t82.5 159t139 109.5t191 40.5q111 0 197.5 -39.5t140.5 -109t82 -160.5t28 -199zM600 477q0 30 -4 64t-13.5 74.5t-31.5 67t-53 26.5q-30 0 -51.5 -26.5t-31 -67.5
t-13 -74.5t-3.5 -63.5t4 -63.5t13.5 -73.5t31 -66t52.5 -26q30 0 51.5 26t31 66.5t13.5 74t4 62.5zM899 1389l-180 -304h-182l96 304h266zM557 1389l-180 -304h-182l96 304h266z" />
    <glyph glyph-name="OE" unicode="&#x152;" horiz-adv-x="1449" 
d="M1389 0h-666v100q-74 -116 -211 -116q-155 0 -266 114q-185 191 -185 584t191 584q114 114 272 114q137 0 199 -108v94h663v-322h-309v-198h279v-309h-279v-209h312v-328zM444 668q0 -248 72 -320q29 -29 66 -29t65 31q68 73 68 342q0 229 -56 312q-27 43 -71 43
q-40 0 -70 -33q-74 -85 -74 -346z" />
    <glyph glyph-name="oe" unicode="&#x153;" horiz-adv-x="1509" 
d="M1102 322h338q-38 -164 -152 -253t-276 -89q-150 0 -262 88q-56 -51 -108 -69.5t-124 -18.5q-151 0 -256.5 66t-156 178t-50.5 261q0 143 50.5 252t154 173t248.5 65q77 0 137.5 -19t120.5 -69q62 51 118.5 69.5t133.5 18.5q137 -1 238 -68.5t150.5 -177t49.5 -244.5
q0 -13 -1 -39.5t-1 -42.5h-526q1 -25 5 -48t13 -50.5t29 -44t47 -16.5q31 0 51.5 21.5t28.5 56.5zM928 594h178q-17 121 -92 121q-19 0 -34.5 -9t-23.5 -20.5t-14.5 -31t-9 -31t-4.5 -29.5zM602 479q0 32 -3.5 65.5t-13 74t-31.5 66.5t-54 26q-30 0 -51.5 -26.5t-31 -67.5
t-13 -74.5t-3.5 -63.5q0 -32 4 -65.5t13.5 -74t31.5 -66t54 -25.5q29 0 50 26.5t30.5 67.5t13.5 75t4 62z" />
    <glyph glyph-name="Racute" unicode="&#x154;" horiz-adv-x="1091" 
d="M1067 0h-399q-157 420 -209 567q6 -88 6 -180v-387h-369v1366h377q173 0 285 -47q119 -51 182.5 -163t63.5 -247q0 -244 -211 -342zM465 733h24q67 0 107.5 51.5t40.5 120.5q0 154 -172 154v-326zM786 1778l-180 -303h-203l97 303h286z" />
    <glyph glyph-name="racute" unicode="&#x155;" horiz-adv-x="704" 
d="M684 979v-397q-52 30 -98 30q-71 0 -113 -55q-24 -30 -30.5 -64t-6.5 -83v-410h-354v956h354l-18 -186q81 204 266 209zM664 1389l-181 -304h-202l96 304h287z" />
    <glyph glyph-name="Rcommaaccent" unicode="&#x156;" horiz-adv-x="1091" 
d="M1067 0h-399q-157 420 -209 567q6 -88 6 -180v-387h-369v1366h377q173 0 285 -47q119 -51 182.5 -163t63.5 -247q0 -244 -211 -342zM465 733h24q67 0 107.5 51.5t40.5 120.5q0 154 -172 154v-326zM680 -92l-164 -387h-209l72 387h301z" />
    <glyph glyph-name="rcommaaccent" unicode="&#x157;" horiz-adv-x="704" 
d="M684 979v-397q-52 30 -98 30q-71 0 -113 -55q-24 -30 -30.5 -64t-6.5 -83v-410h-354v956h354l-18 -186q81 204 266 209zM582 -92l-164 -387h-209l72 387h301z" />
    <glyph glyph-name="Rcaron" unicode="&#x158;" horiz-adv-x="1091" 
d="M1067 0h-399q-157 420 -209 567q6 -88 6 -180v-387h-369v1366h377q173 0 285 -47q119 -51 182.5 -163t63.5 -247q0 -244 -211 -342zM465 733h24q67 0 107.5 51.5t40.5 120.5q0 154 -172 154v-326zM807 1642l-305 -200l-275 205l125 141l164 -115l174 111z" />
    <glyph glyph-name="rcaron" unicode="&#x159;" horiz-adv-x="704" 
d="M684 979v-397q-52 30 -98 30q-71 0 -113 -55q-24 -30 -30.5 -64t-6.5 -83v-410h-354v956h354l-18 -186q81 204 266 209zM666 1276l-283 -240l-274 240l122 137l164 -143l152 135z" />
    <glyph glyph-name="Sacute" unicode="&#x15a;" horiz-adv-x="827" 
d="M741 1321v-418q-41 63 -97.5 106.5t-119.5 43.5q-38 0 -67 -23t-29 -59q0 -28 19.5 -54.5t50.5 -50.5t68.5 -51t75 -62t68.5 -77.5t50.5 -104t19.5 -133.5q0 -195 -121 -329t-313 -134q-135 0 -278 60v428q109 -150 233 -150q43 0 76 24t33 66q0 39 -36 77t-87 77
t-102.5 86.5t-87.5 125t-36 173.5q0 119 52 221.5t148 165t216 62.5q131 0 264 -70zM766 1778l-180 -303h-203l96 303h287z" />
    <glyph glyph-name="sacute" unicode="&#x15b;" horiz-adv-x="808" 
d="M758 899l-123 -260q-84 84 -146 84q-22 0 -38.5 -11.5t-16.5 -33.5q0 -26 25 -47t62.5 -34t81.5 -35.5t81.5 -49.5t62.5 -78t25 -119q0 -104 -55 -182t-141 -115.5t-189 -37.5q-92 0 -167 24t-173 76l129 264q96 -100 178 -100q27 0 48.5 13t21.5 38q0 26 -35.5 46.5
t-86 40t-101 48t-86 84.5t-35.5 135q0 102 59 178.5t146.5 113t187.5 36.5q129 0 285 -78zM745 1389l-180 -304h-203l97 304h286z" />
    <glyph glyph-name="Scircumflex" unicode="&#x15c;" horiz-adv-x="827" 
d="M741 1321v-418q-41 63 -97.5 106.5t-119.5 43.5q-38 0 -67 -23t-29 -59q0 -28 19.5 -54.5t50.5 -50.5t68.5 -51t75 -62t68.5 -77.5t50.5 -104t19.5 -133.5q0 -195 -121 -329t-313 -134q-135 0 -278 60v428q109 -150 233 -150q43 0 76 24t33 66q0 39 -36 77t-87 77
t-102.5 86.5t-87.5 125t-36 173.5q0 119 52 221.5t148 165t216 62.5q131 0 264 -70zM506 1782l280 -201l-116 -135l-170 115l-168 -119l-125 135z" />
    <glyph glyph-name="scircumflex" unicode="&#x15d;" horiz-adv-x="808" 
d="M758 899l-123 -260q-84 84 -146 84q-22 0 -38.5 -11.5t-16.5 -33.5q0 -26 25 -47t62.5 -34t81.5 -35.5t81.5 -49.5t62.5 -78t25 -119q0 -104 -55 -182t-141 -115.5t-189 -37.5q-92 0 -167 24t-173 76l129 264q96 -100 178 -100q27 0 48.5 13t21.5 38q0 26 -35.5 46.5
t-86 40t-101 48t-86 84.5t-35.5 135q0 102 59 178.5t146.5 113t187.5 36.5q129 0 285 -78zM492 1413l264 -239l-119 -130l-152 136l-163 -144l-123 138z" />
    <glyph glyph-name="Scedilla" unicode="&#x15e;" horiz-adv-x="827" 
d="M741 1321v-418q-41 63 -97.5 106.5t-119.5 43.5q-38 0 -67 -23t-29 -59q0 -28 19.5 -54.5t50.5 -50.5t68.5 -51t75 -62t68.5 -77.5t50.5 -104t19.5 -133.5q0 -195 -121 -329t-313 -134q-135 0 -278 60v428q109 -150 233 -150q43 0 76 24t33 66q0 39 -36 77t-87 77
t-102.5 86.5t-87.5 125t-36 173.5q0 119 52 221.5t148 165t216 62.5q131 0 264 -70zM553 -231l-254 -254l-158 108l221 281z" />
    <glyph glyph-name="scedilla" unicode="&#x15f;" horiz-adv-x="808" 
d="M758 899l-123 -260q-84 84 -146 84q-22 0 -38.5 -11.5t-16.5 -33.5q0 -26 25 -47t62.5 -34t81.5 -35.5t81.5 -49.5t62.5 -78t25 -119q0 -104 -55 -182t-141 -115.5t-189 -37.5q-92 0 -167 24t-173 76l129 264q96 -100 178 -100q27 0 48.5 13t21.5 38q0 26 -35.5 46.5
t-86 40t-101 48t-86 84.5t-35.5 135q0 102 59 178.5t146.5 113t187.5 36.5q129 0 285 -78zM563 -217l-231 -240l-146 111l201 250z" />
    <glyph glyph-name="Scaron" unicode="&#x160;" horiz-adv-x="827" 
d="M741 1321v-418q-41 63 -97.5 106.5t-119.5 43.5q-38 0 -67 -23t-29 -59q0 -28 19.5 -54.5t50.5 -50.5t68.5 -51t75 -62t68.5 -77.5t50.5 -104t19.5 -133.5q0 -195 -121 -329t-313 -134q-135 0 -278 60v428q109 -150 233 -150q43 0 76 24t33 66q0 39 -36 77t-87 77
t-102.5 86.5t-87.5 125t-36 173.5q0 119 52 221.5t148 165t216 62.5q131 0 264 -70zM786 1642l-305 -200l-274 205l125 141l164 -115l174 111z" />
    <glyph glyph-name="scaron" unicode="&#x161;" horiz-adv-x="808" 
d="M758 899l-123 -260q-84 84 -146 84q-22 0 -38.5 -11.5t-16.5 -33.5q0 -26 25 -47t62.5 -34t81.5 -35.5t81.5 -49.5t62.5 -78t25 -119q0 -104 -55 -182t-141 -115.5t-189 -37.5q-92 0 -167 24t-173 76l129 264q96 -100 178 -100q27 0 48.5 13t21.5 38q0 26 -35.5 46.5
t-86 40t-101 48t-86 84.5t-35.5 135q0 102 59 178.5t146.5 113t187.5 36.5q129 0 285 -78zM750 1276l-283 -240l-274 240l122 137l164 -143l152 135z" />
    <glyph glyph-name="Tcedilla" unicode="&#x162;" horiz-adv-x="774" 
d="M774 1038h-203v-1038h-368v1038h-203v328h774v-328zM573 -231l-254 -254l-157 108l221 281z" />
    <glyph glyph-name="tcedilla" unicode="&#x163;" horiz-adv-x="616" 
d="M602 670h-117v-670h-354v670h-102v286h102v281h354v-281h117v-286zM489 -217l-231 -240l-145 111l200 250z" />
    <glyph glyph-name="Tcaron" unicode="&#x164;" horiz-adv-x="774" 
d="M571 1038h203v328h-774v-328h203v-1038h368v1038zM705 1642l-306 -200l-274 205l125 141l164 -115l174 111z" />
    <glyph glyph-name="tcaron" unicode="&#x165;" horiz-adv-x="966" 
d="M602 670h-117v-670h-354v670h-102v286h102v281h354v-281h117v-286zM969 1489l-189 -453h-211l97 453h303z" />
    <glyph glyph-name="Utilde" unicode="&#x168;" horiz-adv-x="1116" 
d="M1022 1366v-967q0 -106 -30 -179t-107 -138q-124 -107 -310 -107q-213 0 -346 119q-74 66 -103.5 154.5t-29.5 202.5v915h369v-883q0 -27 1 -44t6 -42t14 -39t28 -25t45 -11q27 0 46 11t28 24.5t14 39.5t5.5 41.5t0.5 44.5v883h369zM905 1751v-29q0 -102 -57.5 -172.5
t-157.5 -70.5q-54 0 -131.5 33.5t-107.5 33.5q-56 0 -56 -71h-186v4q0 53 11 98.5t34 84t64.5 61t97.5 22.5q53 0 134 -34t114 -34q57 0 57 74h184z" />
    <glyph glyph-name="utilde" unicode="&#x169;" horiz-adv-x="1021" 
d="M940 956v-587q0 -103 -29.5 -174t-107.5 -127q-125 -88 -291 -88t-291 88q-78 56 -108.5 127t-30.5 174v587h354v-561q0 -27 2 -43.5t9 -36.5t23 -29.5t42 -9.5q21 0 36 9t22.5 20t11 32.5t4 33.5t0.5 36v11v538h354zM858 1362v-29q0 -102 -57.5 -172.5t-157.5 -70.5
q-54 0 -132 33.5t-108 33.5q-55 0 -55 -72h-186v5q0 53 11 98.5t34 84t64.5 61t97.5 22.5q53 0 134 -34t113 -34q58 0 58 74h184z" />
    <glyph glyph-name="Umacron" unicode="&#x16a;" horiz-adv-x="1116" 
d="M1022 1366v-967q0 -106 -30 -179t-107 -138q-124 -107 -310 -107q-213 0 -346 119q-74 66 -103.5 154.5t-29.5 202.5v915h369v-883q0 -27 1 -44t6 -42t14 -39t28 -25t45 -11q27 0 46 11t28 24.5t14 39.5t5.5 41.5t0.5 44.5v883h369zM907 1522h-696v192h696v-192z" />
    <glyph glyph-name="umacron" unicode="&#x16b;" horiz-adv-x="1021" 
d="M940 956v-587q0 -103 -29.5 -174t-107.5 -127q-125 -88 -291 -88t-291 88q-78 56 -108.5 127t-30.5 174v587h354v-561q0 -27 2 -43.5t9 -36.5t23 -29.5t42 -9.5q21 0 36 9t22.5 20t11 32.5t4 33.5t0.5 36v11v538h354zM860 1133h-696v192h696v-192z" />
    <glyph glyph-name="Ubreve" unicode="&#x16c;" horiz-adv-x="1116" 
d="M1022 1366v-967q0 -106 -30 -179t-107 -138q-124 -107 -310 -107q-213 0 -346 119q-74 66 -103.5 154.5t-29.5 202.5v915h369v-883q0 -27 1 -44t6 -42t14 -39t28 -25t45 -11q27 0 46 11t28 24.5t14 39.5t5.5 41.5t0.5 44.5v883h369zM743 1776h142q-12 -140 -100 -223
t-228 -83t-228 83t-100 223h142q26 -64 69 -86.5t117 -22.5t117 22.5t69 86.5z" />
    <glyph glyph-name="ubreve" unicode="&#x16d;" horiz-adv-x="1021" 
d="M940 956v-587q0 -103 -29.5 -174t-107.5 -127q-125 -88 -291 -88t-291 88q-78 56 -108.5 127t-30.5 174v587h354v-561q0 -27 2 -43.5t9 -36.5t23 -29.5t42 -9.5q21 0 36 9t22.5 20t11 32.5t4 33.5t0.5 36v11v538h354zM698 1370h142q-12 -140 -100 -222.5t-228 -82.5
t-228 82.5t-100 222.5h142q26 -64 68.5 -86t117.5 -22t117.5 22t68.5 86z" />
    <glyph glyph-name="Uring" unicode="&#x16e;" horiz-adv-x="1116" 
d="M1022 1366v-967q0 -106 -30 -179t-107 -138q-124 -107 -310 -107q-213 0 -346 119q-74 66 -103.5 154.5t-29.5 202.5v915h369v-883q0 -27 1 -44t6 -42t14 -39t28 -25t45 -11q27 0 46 11t28 24.5t14 39.5t5.5 41.5t0.5 44.5v883h369zM362 1659q0 82 57.5 139t139.5 57
t139.5 -57t57.5 -139q0 -81 -58 -139t-137 -58q-83 0 -141 58.5t-58 138.5zM483 1659q0 -32 22 -54t54 -22t54 22t22 54t-22 54t-54 22t-54 -22t-22 -54z" />
    <glyph glyph-name="uring" unicode="&#x16f;" horiz-adv-x="1021" 
d="M940 956v-587q0 -103 -29.5 -174t-107.5 -127q-125 -88 -291 -88t-291 88q-78 56 -108.5 127t-30.5 174v587h354v-561q0 -27 2 -43.5t9 -36.5t23 -29.5t42 -9.5q21 0 36 9t22.5 20t11 32.5t4 33.5t0.5 36v11v538h354zM311 1268q0 82 57.5 139t139.5 57t139.5 -57
t57.5 -139t-57.5 -139.5t-139.5 -57.5t-139.5 57.5t-57.5 139.5zM432 1268q0 -32 22 -54t54 -22t54 22t22 54t-22 53.5t-54 21.5t-54 -21.5t-22 -53.5z" />
    <glyph glyph-name="Uhungarumlaut" unicode="&#x170;" horiz-adv-x="1116" 
d="M1022 1366v-967q0 -106 -30 -179t-107 -138q-124 -107 -310 -107q-213 0 -346 119q-74 66 -103.5 154.5t-29.5 202.5v915h369v-883q0 -27 1 -44t6 -42t14 -39t28 -25t45 -11q27 0 46 11t28 24.5t14 39.5t5.5 41.5t0.5 44.5v883h369zM971 1778l-180 -303h-183l97 303h266z
M629 1778l-180 -303h-183l96 303h267z" />
    <glyph glyph-name="uhungarumlaut" unicode="&#x171;" horiz-adv-x="1021" 
d="M940 956v-587q0 -103 -29.5 -174t-107.5 -127q-125 -88 -291 -88t-291 88q-78 56 -108.5 127t-30.5 174v587h354v-561q0 -27 2 -43.5t9 -36.5t23 -29.5t42 -9.5q21 0 36 9t22.5 20t11 32.5t4 33.5t0.5 36v11v538h354zM909 1389l-180 -304h-182l96 304h266zM567 1389
l-180 -304h-182l96 304h266z" />
    <glyph glyph-name="Uogonek" unicode="&#x172;" horiz-adv-x="1116" 
d="M1022 1366v-942q0 -77 -11.5 -137t-47.5 -117q-28 -46 -69.5 -84t-89.5 -72.5t-65 -50.5q-47 -41 -47 -100q0 -37 23 -56q21 -18 59 -18q34 0 70 18l-17 -157q-72 -25 -135 -25q-83 0 -135 41q-61 47 -61 125q0 94 98 182q-254 0 -387 129q-67 65 -89 140.5t-22 173.5
v950h369v-883q0 -98 27 -133q19 -28 67 -28q49 0 68 28q26 34 26 133v883h369z" />
    <glyph glyph-name="uogonek" unicode="&#x173;" horiz-adv-x="1021" 
d="M940 956v-575q0 -109 -21.5 -172t-76.5 -117q-40 -39 -102.5 -80t-84.5 -65q-34 -36 -34 -80q0 -34 20 -51q19 -19 53 -19t72 19l-16 -150q-67 -24 -129 -24q-83 0 -136 41q-57 43 -57 118q0 53 30 100.5t68 78.5q-79 0 -147 16t-111 41t-64 41t-32 28q-90 92 -90 252
v598h354v-565q0 -75 25 -98q20 -17 49 -17q31 0 51 17q25 23 25 98v565h354z" />
    <glyph glyph-name="Ydieresis" unicode="&#x178;" 
d="M1024 1366l-315 -788v-578h-369v578l-340 788h385q7 -22 32.5 -100t37 -114t29.5 -97t30 -111q62 222 129 422h381zM858 1622q0 -60 -43.5 -103.5t-103.5 -43.5q-62 0 -107 43.5t-45 105.5q0 61 44.5 103t105.5 42q62 0 105.5 -43t43.5 -104zM465 1622q0 -60 -44 -103.5
t-104 -43.5q-62 0 -106.5 43.5t-44.5 105.5q0 61 44 103t105 42q62 0 106 -43t44 -104z" />
    <glyph glyph-name="Zacute" unicode="&#x179;" horiz-adv-x="1054" 
d="M1020 1366v-39q-31 -68 -139.5 -311t-180.5 -398.5t-147 -306.5q89 8 422 17v-328h-940v29l293 667q87 198 184 348h-397v322h905zM827 1778l-180 -303h-203l97 303h286z" />
    <glyph glyph-name="zacute" unicode="&#x17a;" horiz-adv-x="890" 
d="M856 956l-225 -487q-52 -108 -94 -180h264v-289h-766l231 496q60 123 90 174h-270v286h770zM735 1389l-180 -304h-203l97 304h286z" />
    <glyph glyph-name="Zdotaccent" unicode="&#x17b;" horiz-adv-x="1054" 
d="M1020 1366v-39q-31 -68 -139.5 -311t-180.5 -398.5t-147 -306.5q89 8 422 17v-328h-940v29l293 667q87 198 184 348h-397v322h905zM721 1628q0 -63 -45.5 -108t-108.5 -45q-65 0 -111 45t-46 110q0 64 45 109t110 45t110.5 -46t45.5 -110z" />
    <glyph glyph-name="zdotaccent" unicode="&#x17c;" horiz-adv-x="890" 
d="M856 956l-225 -487q-52 -108 -94 -180h264v-289h-766l231 496q60 123 90 174h-270v286h770zM631 1239q0 -63 -45.5 -108.5t-108.5 -45.5q-65 0 -111.5 45.5t-46.5 110.5q0 64 45.5 109t110.5 45t110.5 -45.5t45.5 -110.5z" />
    <glyph glyph-name="Zcaron" unicode="&#x17d;" horiz-adv-x="1054" 
d="M1020 1366v-39q-31 -68 -139.5 -311t-180.5 -398.5t-147 -306.5q89 8 422 17v-328h-940v29l293 667q87 198 184 348h-397v322h905zM858 1642l-305 -200l-274 205l124 141l164 -115l174 111z" />
    <glyph glyph-name="zcaron" unicode="&#x17e;" horiz-adv-x="890" 
d="M856 956l-225 -487q-52 -108 -94 -180h264v-289h-766l231 496q60 123 90 174h-270v286h770zM748 1276l-283 -240l-275 240l123 137l164 -143l152 135z" />
    <glyph glyph-name="uni018F" unicode="&#x18f;" horiz-adv-x="1138" 
d="M61 788h635q-15 173 -65 236q-32 37 -80 37q-38 0 -72 -29q-36 -36 -47 -110l-358 112q55 150 168 246q131 111 317 111q201 0 328 -127q89 -89 139.5 -241t50.5 -329q0 -392 -178 -579q-132 -140 -344 -140q-102 0 -178.5 31t-140.5 100q-175 192 -175 627v55zM696 518
h-264q7 -140 55 -186q27 -27 74 -27q46 0 74 31q26 26 42.5 79t18.5 103z" />
    <glyph glyph-name="florin" unicode="&#x192;" horiz-adv-x="1089" 
d="M1022 1493l-45 -283q-11 0 -33 3.5t-33 3.5q-65 0 -77 -70l-37 -191h143l-37 -192h-145l-131 -680q-33 -171 -120.5 -263.5t-252.5 -92.5q-61 0 -156 26l54 293q40 -4 63 -4q45 0 67 15.5t31 58.5l125 647h-139l35 192h141l43 218q17 83 39.5 140.5t60.5 105.5t98.5 72
t143.5 24q60 0 162 -23z" />
    <glyph glyph-name="uni01CF" unicode="&#x1cf;" horiz-adv-x="559" 
d="M465 0h-369v1366h369v-1366zM582 1642l-306 -200l-274 205l125 141l164 -115l174 111z" />
    <glyph glyph-name="uni01D0" unicode="&#x1d0;" horiz-adv-x="518" 
d="M436 0h-354v956h354v-956zM543 1276l-283 -240l-274 240l123 137l163 -143l152 135z" />
    <glyph glyph-name="uni01DD" unicode="&#x1dd;" horiz-adv-x="985" 
d="M403 631l-323 78q42 115 135 186q107 80 274 80q199 0 310 -111q133 -133 133 -368q0 -127 -41.5 -231.5t-112.5 -172.5q-115 -112 -291 -112q-185 0 -294 114q-22 23 -43 54t-47 87t-39 138.5t-7 177.5h521q0 94 -33 127q-20 20 -56 20q-31 0 -55 -16q-24 -17 -31 -51z
M573 360h-165q0 -64 30 -96q21 -24 54 -24q29 0 49 20q32 32 32 100z" />
    <glyph glyph-name="Gcaron" unicode="&#x1e6;" horiz-adv-x="1146" 
d="M1085 788v-55q0 -159 -18 -288.5t-72 -233.5q-60 -115 -167.5 -175.5t-239.5 -60.5q-114 0 -206 41t-151 108t-98 159.5t-55.5 189.5t-16.5 203t16 204t55.5 192.5t98 164t150.5 112t207 42.5q165 0 282.5 -89.5t186.5 -248.5l-359 -131q-5 54 -32 96.5t-76 42.5
q-152 0 -152 -418q0 -31 0.5 -49.5t3 -58.5t7 -66t15 -60t25 -54.5t37.5 -35t52 -14.5q48 0 78.5 33.5t40.5 75t10 88.5h-136v286h514zM889 1642l-305 -200l-275 205l125 141l164 -115l174 111z" />
    <glyph glyph-name="gcaron" unicode="&#x1e7;" horiz-adv-x="1009" 
d="M928 956v-981q0 -163 -72 -262q-58 -78 -153.5 -115.5t-204.5 -37.5q-188 0 -296 82.5t-134 263.5h362q0 -33 20.5 -55.5t53.5 -22.5q28 0 46 12t25.5 34.5t10 42t2.5 46.5v148q-92 -125 -223 -125q-69 0 -124.5 33.5t-89.5 85t-56.5 119t-31 130.5t-8.5 125
q0 60 8.5 123.5t31 132t56 121t87.5 87t122 34.5q117 0 215 -146l-6 125h359zM584 481q0 207 -78 207q-84 0 -84 -201q0 -28 2.5 -56t10 -66.5t26 -62t45.5 -23.5q78 0 78 202zM782 1276l-282 -240l-275 240l123 137l164 -143l152 135z" />
    <glyph glyph-name="AEacute" unicode="&#x1fc;" horiz-adv-x="1259" 
d="M1198 0h-524l-25 174h-237l-31 -174h-381l315 1366h883v-322h-367l31 -198h307v-309h-254l37 -209h246v-328zM457 457h153q-57 406 -71 579q-30 -258 -82 -579zM903 1778l-180 -303h-203l96 303h287z" />
    <glyph glyph-name="aeacute" unicode="&#x1fd;" horiz-adv-x="1505" 
d="M160 657v277q158 43 284 43q94 0 162.5 -20t132.5 -74q133 94 275 94q107 0 191.5 -41t137 -111t80 -160.5t27.5 -193.5q0 -42 -2 -65h-522q6 -164 94 -164q57 0 80 71l338 -6q-25 -90 -59 -149t-99 -105q-105 -73 -270 -73q-85 0 -151 23t-132 75q-145 -98 -309 -98
q-153 0 -258 91t-105 240q0 147 97.5 226t248.5 79q85 0 183 -20q-17 117 -191 117q-121 0 -233 -56zM926 596h178q-15 133 -92 133q-20 0 -35 -9.5t-23.5 -21.5t-14.5 -33t-8.5 -34t-4.5 -35zM586 307q0 40 -27 62t-67 22q-39 0 -66 -23.5t-27 -62.5q0 -40 28 -61t69 -21
q39 0 64.5 22.5t25.5 61.5zM1026 1389l-180 -304h-203l96 304h287z" />
    <glyph glyph-name="Scommaaccent" unicode="&#x218;" horiz-adv-x="827" 
d="M741 1321v-418q-41 63 -97.5 106.5t-119.5 43.5q-38 0 -67 -23t-29 -59q0 -28 19.5 -54.5t50.5 -50.5t68.5 -51t75 -62t68.5 -77.5t50.5 -104t19.5 -133.5q0 -195 -121 -329t-313 -134q-135 0 -278 60v428q109 -150 233 -150q43 0 76 24t33 66q0 39 -36 77t-87 77
t-102.5 86.5t-87.5 125t-36 173.5q0 119 52 221.5t148 165t216 62.5q131 0 264 -70zM537 -92l-164 -387h-209l72 387h301z" />
    <glyph glyph-name="scommaaccent" unicode="&#x219;" horiz-adv-x="808" 
d="M758 899l-123 -260q-84 84 -146 84q-22 0 -38.5 -11.5t-16.5 -33.5q0 -26 25 -47t62.5 -34t81.5 -35.5t81.5 -49.5t62.5 -78t25 -119q0 -104 -55 -182t-141 -115.5t-189 -37.5q-92 0 -167 24t-173 76l129 264q96 -100 178 -100q27 0 48.5 13t21.5 38q0 26 -35.5 46.5
t-86 40t-101 48t-86 84.5t-35.5 135q0 102 59 178.5t146.5 113t187.5 36.5q129 0 285 -78zM592 -92l-164 -387h-209l72 387h301z" />
    <glyph glyph-name="Tcommaaccent" unicode="&#x21a;" horiz-adv-x="774" 
d="M774 1038h-203v-1038h-368v1038h-203v328h774v-328zM537 -92l-164 -387h-209l72 387h301z" />
    <glyph glyph-name="tcommaaccent" unicode="&#x21b;" horiz-adv-x="616" 
d="M602 670h-117v-670h-354v670h-102v286h102v281h354v-281h117v-286zM459 -92l-164 -387h-209l72 387h301z" />
    <glyph glyph-name="uni0228" unicode="&#x228;" horiz-adv-x="841" 
d="M780 0h-684v1366h684v-322h-315v-198h283v-309h-283v-209h315v-328zM653 -231l-254 -254l-157 108l221 281z" />
    <glyph glyph-name="uni0229" unicode="&#x229;" horiz-adv-x="985" 
d="M571 324l347 -2q-37 -166 -147.5 -254t-278.5 -88q-212 0 -324.5 132.5t-112.5 348.5q0 138 50 253t153.5 188t243.5 73q106 0 190 -41.5t135.5 -112.5t78 -160.5t26.5 -191.5q0 -11 -1 -33t-1 -33h-520q0 -147 82 -147q30 0 51.5 19t27.5 49zM414 594h166q-1 29 -8 54.5
t-27 46t-49 20.5q-42 0 -61 -36.5t-21 -84.5zM659 -217l-231 -240l-145 111l200 250z" />
    <glyph glyph-name="uni0237" unicode="&#x237;" horiz-adv-x="520" 
d="M438 -440h-354l-2 1396h356v-1396z" />
    <glyph glyph-name="uni0259" unicode="&#x259;" horiz-adv-x="985" 
d="M403 631l-323 78q42 115 135 186q107 80 274 80q199 0 310 -111q133 -133 133 -368q0 -127 -41.5 -231.5t-112.5 -172.5q-115 -112 -291 -112q-185 0 -294 114q-22 23 -43 54t-47 87t-39 138.5t-7 177.5h521q0 94 -33 127q-20 20 -56 20q-31 0 -55 -16q-24 -17 -31 -51z
M573 360h-165q0 -64 30 -96q21 -24 54 -24q29 0 49 20q32 32 32 100z" />
    <glyph glyph-name="afii57929" unicode="&#x2bc;" horiz-adv-x="573" 
d="M498 1366l-189 -453h-211l97 453h303z" />
    <glyph glyph-name="circumflex" unicode="&#x2c6;" 
d="M524 1413l264 -239l-118 -130l-152 136l-164 -144l-123 138z" />
    <glyph glyph-name="caron" unicode="&#x2c7;" 
d="M788 1276l-282 -240l-275 240l123 137l164 -143l152 135z" />
    <glyph glyph-name="uni02C9" unicode="&#x2c9;" horiz-adv-x="1021" 
d="M860 1133h-696v192h696v-192z" />
    <glyph glyph-name="breve" unicode="&#x2d8;" 
d="M698 1370h142q-12 -140 -100 -222.5t-228 -82.5t-228 82.5t-100 222.5h142q26 -64 68.5 -86t117.5 -22t117.5 22t68.5 86z" />
    <glyph glyph-name="dotaccent" unicode="&#x2d9;" 
d="M668 1239q0 -63 -45.5 -108.5t-108.5 -45.5q-65 0 -111.5 45.5t-46.5 110.5q0 64 45.5 109t110.5 45q64 0 110 -45.5t46 -110.5z" />
    <glyph glyph-name="ring" unicode="&#x2da;" 
d="M362 1268q0 82 57.5 139t139.5 57t139.5 -57t57.5 -139t-57.5 -139.5t-139.5 -57.5t-139.5 57.5t-57.5 139.5zM483 1268q0 -32 22 -54t54 -22t54 22t22 54t-22 53.5t-54 21.5t-54 -21.5t-22 -53.5z" />
    <glyph glyph-name="ogonek" unicode="&#x2db;" 
d="M483 0h125q-18 -25 -33.5 -64t-15.5 -67q0 -34 21 -51q21 -19 59 -19q40 0 72 19l-17 -144q-55 -24 -116 -24q-78 0 -123 33q-60 43 -60 124q0 54 35 115q30 49 53 78z" />
    <glyph glyph-name="tilde" unicode="&#x2dc;" 
d="M860 1362v-29q0 -102 -57.5 -172.5t-157.5 -70.5q-54 0 -131.5 33.5t-107.5 33.5q-56 0 -56 -72h-186v5q0 53 11 98.5t34 84t64.5 61t97.5 22.5q53 0 134 -34t113 -34q58 0 58 74h184z" />
    <glyph glyph-name="hungarumlaut" unicode="&#x2dd;" 
d="M950 1389l-180 -304h-182l96 304h266zM608 1389l-180 -304h-182l96 304h266z" />
    <glyph glyph-name="acutecomb" unicode="&#x301;" horiz-adv-x="4" 
d="M-182 1389l-180 -304h-203l96 304h287z" />
    <glyph glyph-name="uni0394" unicode="&#x394;" horiz-adv-x="1366" 
d="M1331 0h-1298l502 1366h288zM946 242l-266 798l-266 -798h532z" />
    <glyph glyph-name="uni0394" unicode="&#x2206;" horiz-adv-x="1366" 
d="M1331 0h-1298l502 1366h288zM946 242l-266 798l-266 -798h532z" />
    <glyph glyph-name="uni03A9" unicode="&#x3a9;" horiz-adv-x="1366" 
d="M1307 0h-551v213q274 153 274 508q0 80 -21.5 156t-62.5 140t-109 103t-153 39q-68 0 -126.5 -25.5t-98.5 -68.5t-68 -99.5t-41.5 -118.5t-13.5 -126q0 -175 65 -302t211 -206v-213h-553v240h279q-147 92 -214 214t-67 296q0 180 78 328t221.5 234.5t325.5 86.5
q183 0 326.5 -86t221 -233.5t77.5 -329.5q0 -114 -34 -219t-104 -183q-48 -51 -139 -108h277v-240z" />
    <glyph glyph-name="uni03A9" unicode="&#x2126;" horiz-adv-x="1366" 
d="M1307 0h-551v213q274 153 274 508q0 80 -21.5 156t-62.5 140t-109 103t-153 39q-68 0 -126.5 -25.5t-98.5 -68.5t-68 -99.5t-41.5 -118.5t-13.5 -126q0 -175 65 -302t211 -206v-213h-553v240h279q-147 92 -214 214t-67 296q0 180 78 328t221.5 234.5t325.5 86.5
q183 0 326.5 -86t221 -233.5t77.5 -329.5q0 -114 -34 -219t-104 -183q-48 -51 -139 -108h277v-240z" />
    <glyph glyph-name="pi" unicode="&#x3c0;" horiz-adv-x="1449" 
d="M1372 670h-155v-670h-353v670h-276v-670h-352v670h-158v286h1294v-286z" />
    <glyph glyph-name="afii10023" unicode="&#x401;" horiz-adv-x="841" 
d="M780 0h-684v1366h684v-322h-315v-198h283v-309h-283v-209h315v-328zM401 1608q0 -60 -43.5 -104t-103.5 -44q-62 0 -107 44t-45 106q0 61 44.5 103t105.5 42q62 0 105.5 -43t43.5 -104zM774 1608q0 -60 -43.5 -104t-103.5 -44q-62 0 -107 44t-45 106q0 61 44.5 103
t105.5 42q62 0 105.5 -43t43.5 -104z" />
    <glyph glyph-name="afii10051" unicode="&#x402;" horiz-adv-x="1224" 
d="M928 1038h-316v-133q0 -75 -10 -131q104 68 221 68q141 0 230 -86q121 -119 121 -344q0 -111 -31 -209t-90 -156q-82 -80 -219 -80q-65 0 -150 29l29 291q22 -19 47 -19q20 0 35 15q26 24 26 110q0 73 -30 105q-25 28 -70 28q-48 0 -109 -34v-492h-368v1038h-203v328h887
v-328z" />
    <glyph glyph-name="afii10052" unicode="&#x403;" horiz-adv-x="794" 
d="M748 1044h-283v-1044h-369v1366h652v-322zM705 1778l-181 -303h-202l96 303h287z" />
    <glyph glyph-name="afii10053" unicode="&#x404;" horiz-adv-x="993" 
d="M924 438l-21 -395q-121 -68 -262 -68q-236 0 -381 140q-199 194 -199 565q0 191 51.5 331t131.5 224q149 156 407 156q152 0 267 -70v-383q-44 52 -91 76q-61 35 -131 35q-107 0 -170 -66q-52 -56 -69 -137h315v-309h-317q17 -101 82 -154q62 -51 159 -51q76 0 131 28
q51 25 97 78z" />
    <glyph glyph-name="afii10054" unicode="&#x405;" horiz-adv-x="827" 
d="M741 1321v-418q-41 63 -97.5 106.5t-119.5 43.5q-38 0 -67 -23t-29 -59q0 -28 19.5 -54.5t50.5 -50.5t68.5 -51t75 -62t68.5 -77.5t50.5 -104t19.5 -133.5q0 -195 -121 -329t-313 -134q-135 0 -278 60v428q109 -150 233 -150q43 0 76 24t33 66q0 39 -36 77t-87 77
t-102.5 86.5t-87.5 125t-36 173.5q0 119 52 221.5t148 165t216 62.5q131 0 264 -70z" />
    <glyph glyph-name="afii10055" unicode="&#x406;" horiz-adv-x="559" 
d="M465 0h-369v1366h369v-1366z" />
    <glyph glyph-name="afii10056" unicode="&#x407;" horiz-adv-x="559" 
d="M465 0h-369v1366h369v-1366zM535 1622q0 -60 -32.5 -103.5t-78.5 -43.5q-47 0 -82 43.5t-35 105.5q0 60 35 102.5t80 42.5q47 0 80 -43t33 -104zM254 1622q0 -59 -34 -103t-79 -44q-48 0 -82 43.5t-34 105.5q0 61 34 103t80 42t80.5 -43t34.5 -104z" />
    <glyph glyph-name="afii10057" unicode="&#x408;" horiz-adv-x="724" 
d="M629 1366v-948q0 -82 -8.5 -141t-36.5 -115q-94 -187 -342 -187q-118 0 -242 45v381q62 -79 147 -79q35 0 58.5 14t35 40t15.5 52.5t4 60.5v877h369z" />
    <glyph glyph-name="afii10058" unicode="&#x409;" horiz-adv-x="1681" 
d="M1149 0h-426v1030h-164v-452q0 -374 -143 -510q-96 -91 -260 -91q-77 0 -146 17v360q35 -28 76 -28q52 0 84 32q45 47 45 181v827h868v-502h21q137 0 241 -30t175 -107q100 -107 100 -291q0 -211 -117 -323q-120 -113 -354 -113zM1083 569v-272q86 -10 127 29
q41 38 41 106q0 66 -37 103q-21 21 -57 30.5t-74 3.5z" />
    <glyph glyph-name="afii10059" unicode="&#x40a;" horiz-adv-x="1599" 
d="M1067 0h-426v569h-176v-569h-369v1366h369v-502h176v502h360v-502h21q137 0 241 -30t175 -107q100 -107 100 -291q0 -211 -117 -323q-120 -113 -354 -113zM1001 569v-272q86 -10 127 29q41 38 41 106q0 67 -36 103q-21 21 -57.5 30.5t-74.5 3.5z" />
    <glyph glyph-name="afii10060" unicode="&#x40b;" horiz-adv-x="1230" 
d="M244 0v1038h-203v328h887v-328h-316v-211q109 23 185 23q152 0 243 -80q48 -42 73.5 -102.5t30.5 -107.5t5 -116v-444h-361v399q0 67 -26 95q-28 28 -78 28q-37 0 -72 -14v-508h-368z" />
    <glyph glyph-name="afii10061" unicode="&#x40c;" horiz-adv-x="1107" 
d="M1098 0h-398l-245 653l10 -653h-369v1366h369l-10 -610l217 610h389l-291 -659zM868 1778l-180 -303h-203l97 303h286z" />
    <glyph glyph-name="afii10062" unicode="&#x40e;" horiz-adv-x="1044" 
d="M10 1366h385l68 -219q53 -163 69 -301q22 157 64 307l57 213h381l-483 -1366h-371l164 461zM668 1790l258 -72q-31 -131 -142 -202q-92 -60 -252 -60q-159 0 -251 60q-111 71 -142 202l258 72q7 -58 45 -88q36 -27 90 -27q56 0 91 27q32 25 45 88z" />
    <glyph glyph-name="afii10145" unicode="&#x40f;" horiz-adv-x="1101" 
d="M465 1366v-1032h172v1032h369v-1366h-291v-266h-328v266h-291v1366h369z" />
    <glyph glyph-name="afii10017" unicode="&#x410;" horiz-adv-x="1089" 
d="M1079 0h-381l-28 174h-248l-31 -174h-381l330 1366h451zM471 465h156q-49 323 -70 573q-4 -32 -11 -96t-11 -96q-28 -200 -64 -381z" />
    <glyph glyph-name="afii10018" unicode="&#x411;" horiz-adv-x="1056" 
d="M528 0h-432v1366h766v-322h-397v-208h47q38 0 64 -1t71 -7t80 -17.5t77 -34.5t75 -55q116 -112 116 -305q0 -185 -116 -301q-117 -115 -351 -115zM465 557v-260q83 -13 127 31q35 35 35 100t-37 98q-47 44 -125 31z" />
    <glyph glyph-name="afii10019" unicode="&#x412;" horiz-adv-x="1085" 
d="M96 1366h428q188 0 293 -61q86 -50 133 -137t47 -189q0 -125 -65 -197t-189 -82q281 -36 281 -309q0 -178 -116 -284.5t-296 -106.5h-516v1366zM465 1069v-233q8 -2 22 -2q62 0 104 29.5t42 88.5t-35.5 89t-95.5 30q-25 0 -37 -2zM465 557v-260q10 -2 31 -2
q66 0 108.5 34t42.5 99q0 66 -42.5 98.5t-110.5 32.5q-5 0 -14.5 -1t-14.5 -1z" />
    <glyph glyph-name="afii10020" unicode="&#x413;" horiz-adv-x="794" 
d="M748 1044h-283v-1044h-369v1366h652v-322z" />
    <glyph glyph-name="afii10021" unicode="&#x414;" horiz-adv-x="1173" 
d="M193 1366h845v-1034h115v-598h-311v266h-510v-266h-312v598q57 11 91 45q36 34 55.5 91t23 101.5t3.5 114.5v682zM528 1034v-329q0 -109 -5.5 -166.5t-26.5 -108.5q-23 -56 -72 -98h254v702h-150z" />
    <glyph glyph-name="afii10022" unicode="&#x415;" horiz-adv-x="841" 
d="M780 0h-684v1366h684v-322h-315v-198h283v-309h-283v-209h315v-328z" />
    <glyph glyph-name="afii10024" unicode="&#x416;" horiz-adv-x="1511" 
d="M1499 0h-373l-204 657l10 -657h-348l10 657l-205 -657h-373l281 707l-287 659h369l215 -614l-10 614h348l-10 -614l215 614h364l-282 -659z" />
    <glyph glyph-name="afii10025" unicode="&#x417;" horiz-adv-x="968" 
d="M102 926v374q138 91 326 91q215 0 334 -119q108 -104 108 -281q0 -138 -71 -213q-27 -28 -64 -48t-58.5 -26t-35.5 -8q113 -9 186 -82q80 -75 80 -213q0 -92 -32 -174.5t-95 -140.5q-51 -48 -121 -74.5t-117.5 -31.5t-109.5 -5q-174 0 -330 76v406q53 -67 111 -103
q65 -41 145 -41q82 0 119 37q31 31 31 72q0 59 -49 86q-41 24 -142 24h-59v314h64q93 0 135 26q41 27 41 74q0 50 -41 80q-41 27 -99 27q-81 0 -147 -39q-57 -33 -109 -88z" />
    <glyph glyph-name="afii10026" unicode="&#x418;" horiz-adv-x="1138" 
d="M96 0v1366h348v-379q0 -92 -41 -461q88 258 142 398l174 442h323v-1366h-348v365q0 87 23 438q-24 -84 -47 -154t-35 -102t-33.5 -85.5t-28.5 -70.5l-153 -391h-324z" />
    <glyph glyph-name="afii10027" unicode="&#x419;" horiz-adv-x="1138" 
d="M96 0v1366h348v-379q0 -92 -41 -461q88 258 142 398l174 442h323v-1366h-348v365q0 87 23 438q-24 -84 -47 -154t-35 -102t-33.5 -85.5t-28.5 -70.5l-153 -391h-324zM709 1790l258 -72q-31 -131 -142 -202q-92 -60 -252 -60q-159 0 -251 60q-111 71 -142 202l258 72
q7 -58 45 -88q36 -27 90 -27q57 0 91 27q32 25 45 88z" />
    <glyph glyph-name="afii10028" unicode="&#x41a;" horiz-adv-x="1107" 
d="M1098 0h-398l-245 653l10 -653h-369v1366h369l-10 -610l217 610h389l-291 -659z" />
    <glyph glyph-name="afii10029" unicode="&#x41b;" horiz-adv-x="1185" 
d="M215 1366h877v-1366h-369v1030h-164v-452q0 -374 -143 -510q-96 -91 -260 -91q-77 0 -146 17v360q35 -28 76 -28q52 0 84 32q45 47 45 181v827z" />
    <glyph glyph-name="afii10030" unicode="&#x41c;" horiz-adv-x="1568" 
d="M1501 0h-385l-29 623q-2 41 -4 123.5t-4 123.5q-11 -123 -37 -262l-114 -608h-301l-107 657q-12 71 -24 213q-6 -279 -7 -303l-32 -567h-396l160 1366h459q6 -34 30 -173.5t33 -198t23 -163.5t20 -192q12 111 31 224t52.5 281.5t43.5 221.5h455z" />
    <glyph glyph-name="afii10031" unicode="&#x41d;" horiz-adv-x="1103" 
d="M1010 0h-369v549h-176v-549h-369v1366h369v-483h176v483h369v-1366z" />
    <glyph glyph-name="afii10032" unicode="&#x41e;" horiz-adv-x="1161" 
d="M1100 684q0 -205 -55.5 -353.5t-145.5 -232.5q-129 -123 -317 -123q-191 0 -320 123q-90 84 -145.5 232.5t-55.5 353.5q0 105 16.5 198.5t39 153.5t53.5 112.5t51 76t41 43.5q129 123 320 123q188 0 317 -123q21 -20 41 -43.5t51 -76t53.5 -112.5t39 -153.5t16.5 -198.5z
M582 1047q-40 0 -62 -25q-76 -76 -76 -338t76 -338q22 -24 62 -24q35 0 59 24q76 76 76 338t-76 338q-25 25 -59 25z" />
    <glyph glyph-name="afii10033" unicode="&#x41f;" horiz-adv-x="1095" 
d="M1001 0h-368v1032h-168v-1032h-369v1366h905v-1366z" />
    <glyph glyph-name="afii10034" unicode="&#x420;" horiz-adv-x="1034" 
d="M96 1366h357q186 0 303 -51q120 -54 182.5 -165t62.5 -249q0 -242 -146.5 -358t-389.5 -94v-449h-369v1366zM465 754h18q66 0 106 43t40 110q0 66 -37.5 113t-102.5 47h-24v-313z" />
    <glyph glyph-name="afii10035" unicode="&#x421;" horiz-adv-x="911" 
d="M864 420l-22 -395q-63 -28 -109.5 -39t-109.5 -11q-114 0 -209 40t-159 107.5t-108.5 158t-65 190.5t-20.5 207q0 114 23 218t71.5 195t119 157.5t171 104.5t220.5 38q57 0 94.5 -7t87.5 -28v-389q-40 42 -79 62t-91 20q-56 0 -99.5 -23.5t-69.5 -60t-42.5 -86t-22.5 -97
t-6 -98.5q0 -49 6 -95t22.5 -94t42 -83t67.5 -57.5t96 -22.5q55 0 99 22t93 66z" />
    <glyph glyph-name="afii10036" unicode="&#x422;" horiz-adv-x="774" 
d="M774 1038h-203v-1038h-368v1038h-203v328h774v-328z" />
    <glyph glyph-name="afii10037" unicode="&#x423;" horiz-adv-x="1044" 
d="M10 1366h385l68 -219q53 -163 69 -301q22 157 64 307l57 213h381l-483 -1366h-371l164 461z" />
    <glyph glyph-name="afii10038" unicode="&#x424;" horiz-adv-x="1495" 
d="M567 0v176q-73 2 -139 20.5t-110.5 46.5t-65 43.5t-33.5 28.5q-143 143 -143 418q0 255 145 400q59 59 149 98t197 43v168h361v-168q107 -4 197 -43t149 -98q145 -145 145 -400q0 -275 -143 -418q-13 -13 -33.5 -28.5t-65 -43.5t-110.5 -46.5t-139 -20.5v-176h-361z
M899 950v-450q84 3 131 57q45 52 45 170q0 119 -47 170q-50 53 -129 53zM596 500v450q-79 0 -129 -53q-47 -51 -47 -170q0 -118 45 -170q47 -54 131 -57z" />
    <glyph glyph-name="afii10039" unicode="&#x425;" horiz-adv-x="1058" 
d="M1059 0h-410q-18 48 -47.5 138t-38.5 116q-32 99 -35 113l-18 -60t-18 -61q-11 -35 -91 -246h-401l332 709l-314 657h410q103 -322 104 -324q15 71 89 324h413l-311 -657z" />
    <glyph glyph-name="afii10040" unicode="&#x426;" horiz-adv-x="1169" 
d="M465 1366v-1032h172v1032h369v-1032h143v-600h-328v266h-725v1366h369z" />
    <glyph glyph-name="afii10041" unicode="&#x427;" horiz-adv-x="1081" 
d="M618 0v543q-109 -23 -184 -23q-153 0 -244 80q-36 32 -59.5 71.5t-33 85.5t-12.5 82t-3 87v440h360v-395q0 -65 27 -94q29 -29 78 -29q36 0 71 14v504h369v-1366h-369z" />
    <glyph glyph-name="afii10042" unicode="&#x428;" horiz-adv-x="1607" 
d="M457 1366v-1032h168v1032h360v-1032h168v1032h360v-1366h-1417v1366h361z" />
    <glyph glyph-name="afii10043" unicode="&#x429;" horiz-adv-x="1685" 
d="M457 1366v-1032h168v1032h360v-1032h168v1032h360v-1032h152v-600h-328v266h-1241v1366h361z" />
    <glyph glyph-name="afii10044" unicode="&#x42a;" horiz-adv-x="1167" 
d="M635 0h-434v1038h-170v328h538v-502h21q137 0 241 -30t175 -107q100 -107 100 -291q0 -211 -117 -323q-120 -113 -354 -113zM569 569v-272q86 -10 127 29q41 38 41 106q0 66 -37 103q-21 21 -57 30.5t-74 3.5z" />
    <glyph glyph-name="afii10045" unicode="&#x42b;" horiz-adv-x="1540" 
d="M1446 0h-369v1366h369v-1366zM522 0h-426v1366h369v-502h12q137 0 241 -30t175 -107q100 -107 100 -291q0 -212 -116 -323q-120 -113 -355 -113zM465 569v-272q86 -10 127 29q41 38 41 106q0 66 -37 103q-21 21 -57 30.5t-74 3.5z" />
    <glyph glyph-name="afii10046" unicode="&#x42c;" horiz-adv-x="1062" 
d="M530 0h-434v1366h369v-502h20q137 0 241 -30t175 -107q100 -107 100 -291q0 -212 -116 -323q-120 -113 -355 -113zM465 569v-272q86 -10 127 29q41 38 41 106q0 66 -37 103q-21 21 -57 30.5t-74 3.5z" />
    <glyph glyph-name="afii10047" unicode="&#x42d;" horiz-adv-x="993" 
d="M90 37l-20 401q53 -57 96 -78q53 -28 129 -28q102 0 164 51q30 26 52 67t28 87h-318v309h316q-6 40 -27 80t-51 67q-60 56 -158 56q-70 0 -135 -35q-45 -23 -90 -76v383q115 70 268 70q255 0 406 -154q182 -184 182 -537q0 -112 -19 -210t-50.5 -167.5t-63 -116
t-66.5 -81.5q-150 -150 -401 -150q-130 0 -242 62z" />
    <glyph glyph-name="afii10048" unicode="&#x42e;" horiz-adv-x="1681" 
d="M1620 684q0 -205 -55.5 -353.5t-145.5 -232.5q-129 -123 -327 -123q-190 0 -312 119q-86 85 -128.5 210.5t-49.5 244.5h-137v-549h-369v1366h369v-496h145q9 113 55 222t115 176q126 123 322 123q188 0 317 -123q21 -20 41 -43.5t51 -76t53.5 -112.5t39 -153.5
t16.5 -198.5zM1102 1047q-40 0 -62 -25q-75 -75 -75 -338t75 -338q22 -24 62 -24q35 0 59 24q76 76 76 338t-76 338q-25 25 -59 25z" />
    <glyph glyph-name="afii10049" unicode="&#x42f;" horiz-adv-x="1107" 
d="M41 0l262 539q-94 21 -158 98q-69 87 -69 235q0 216 119 349q72 78 179 111.5t257 33.5h381v-1366h-369v367q0 118 8 180l-211 -547h-399zM643 733v326q-87 11 -139 -41q-41 -41 -41 -119q0 -80 45 -125q45 -41 117 -41h18z" />
    <glyph glyph-name="afii10065" unicode="&#x430;" horiz-adv-x="1017" 
d="M936 0h-356l6 81l6 81q-91 -182 -246 -182q-58 0 -105.5 24t-78 66t-52.5 92t-33.5 109t-16.5 110t-5 102q0 63 7.5 125t28 130.5t52.5 120t86.5 85t124.5 33.5q149 0 230 -172q-1 12 -4 66.5t-7 84.5h363v-956zM575 520q0 164 -73 164q-22 0 -38.5 -12.5t-26 -37
t-15 -46t-7.5 -55.5t-2.5 -48t-0.5 -41q0 -172 80 -172q15 0 27.5 6t21 18.5t15 25.5t10 33t6 35t3 38t1 35t0 32.5t-0.5 24.5z" />
    <glyph glyph-name="afii10066" unicode="&#x431;" horiz-adv-x="1003" 
d="M670 1128l-72 -20q-125 -36 -184 -92q-35 -35 -59 -89.5t-25 -115.5q26 69 88 111q67 45 157 45q159 0 256 -101q119 -121 119 -356q0 -271 -141 -414q-116 -116 -320 -116q-160 0 -264 94q-164 150 -164 536q0 75 2.5 131.5t12.5 134.5t27.5 138t50.5 123t79 108
q29 29 59.5 50.5t71.5 38.5t57 23t64 21q53 17 75.5 24.5t45.5 18t35 21.5q32 29 35 74h262q0 -179 -74 -273q-60 -78 -194 -115zM506 698q-38 0 -57 -32q-43 -62 -43 -199q0 -125 43 -186q20 -33 57 -33t57 33q43 61 43 186q0 137 -43 199q-19 32 -57 32z" />
    <glyph glyph-name="afii10067" unicode="&#x432;" horiz-adv-x="974" 
d="M82 956h414q194 0 284 -57q115 -76 115 -215q0 -94 -53 -143q-49 -46 -123 -49q88 -5 147 -64q60 -60 60 -152q0 -142 -88 -210q-83 -66 -228 -66h-528v956zM434 573h10q58 0 86 19q33 21 33 67q0 44 -31 62q-21 14 -88 14h-10v-162zM434 221h8q55 0 84 15q39 22 39 73
q0 42 -33 66q-20 14 -90 14h-8v-168z" />
    <glyph glyph-name="afii10068" unicode="&#x433;" horiz-adv-x="739" 
d="M698 670h-262v-670h-354v956h616v-286z" />
    <glyph glyph-name="afii10069" unicode="&#x434;" horiz-adv-x="1073" 
d="M178 956h774v-677h109v-515h-283v236h-483v-236h-283v515q60 13 99 49q43 41 55 106.5t12 169.5v352zM612 279v399h-125v-158q0 -89 -16 -137q-20 -64 -70 -104h211z" />
    <glyph glyph-name="afii10070" unicode="&#x435;" horiz-adv-x="985" 
d="M571 324l347 -2q-37 -166 -147.5 -254t-278.5 -88q-212 0 -324.5 132.5t-112.5 348.5q0 138 50 253t153.5 188t243.5 73q106 0 190 -41.5t135.5 -112.5t78 -160.5t26.5 -191.5q0 -11 -1 -33t-1 -33h-520q0 -147 82 -147q30 0 51.5 19t27.5 49zM414 594h166q-1 29 -8 54.5
t-27 46t-49 20.5q-42 0 -61 -36.5t-21 -84.5z" />
    <glyph glyph-name="afii10072" unicode="&#x436;" horiz-adv-x="1458" 
d="M1454 0h-393l-78 197q-43 104 -82 245v-442h-344v442q-39 -141 -82 -245l-78 -197h-393l238 489l-224 467h369l86 -213q49 -118 84 -241v454h344v-454q35 123 84 241l86 213h369l-223 -467z" />
    <glyph glyph-name="afii10073" unicode="&#x437;" horiz-adv-x="890" 
d="M182 621l-129 247q175 109 361 109q162 0 256 -55q131 -78 131 -228q0 -90 -53 -143q-50 -50 -127 -59q96 -4 155 -60q58 -54 58 -141q0 -75 -39.5 -142.5t-110.5 -109.5q-101 -59 -262 -59q-137 0 -234 38q-70 26 -147 82l133 256q40 -50 84 -73q50 -27 104 -27
q51 0 78 16q29 17 29 43q0 15 -13 30t-42 22q-36 8 -97 8h-47v223h43q69 0 97 8q45 10 45 49q0 60 -97 60q-49 0 -100 -29q-33 -19 -76 -65z" />
    <glyph glyph-name="afii10074" unicode="&#x438;" horiz-adv-x="1036" 
d="M82 956h340v-268q0 -108 -14 -252q31 96 71 185l152 335h323v-956h-340v256q0 95 13 264q-27 -91 -72 -192l-149 -328h-324v956z" />
    <glyph glyph-name="afii10075" unicode="&#x439;" horiz-adv-x="1036" 
d="M82 956h340v-268q0 -108 -14 -252q31 96 71 185l152 335h323v-956h-340v256q0 95 13 264q-27 -91 -72 -192l-149 -328h-324v956zM629 1386l235 -59q-27 -134 -135 -203q-82 -51 -209 -51t-209 51q-108 69 -135 203l236 59q6 -58 34 -86q23 -26 74 -26t74 26q29 29 35 86z
" />
    <glyph glyph-name="afii10076" unicode="&#x43a;" horiz-adv-x="1013" 
d="M1014 0h-408l-69 164q-44 95 -101 252v-416h-354v956h354v-452q31 121 107 301l63 151h383l-231 -473z" />
    <glyph glyph-name="afii10077" unicode="&#x43b;" horiz-adv-x="1034" 
d="M952 956v-956h-356v670h-123v-213q0 -296 -104 -400q-80 -80 -222 -80q-57 0 -139 21v285q21 -15 51 -15q38 0 64 23q41 41 41 182v483h788z" />
    <glyph glyph-name="afii10078" unicode="&#x43c;" horiz-adv-x="1294" 
d="M768 0h-242l-77 346q-27 119 -37 219q-4 -43 -17 -221l-24 -344h-342l133 956h373l75 -342q2 -9 8 -34t9 -38.5t7.5 -37.5t7.5 -50t5 -57q7 77 37 217l76 342h373l133 -956h-342l-25 344q-9 105 -16 221q-12 -112 -37 -221z" />
    <glyph glyph-name="afii10079" unicode="&#x43d;" horiz-adv-x="1003" 
d="M436 956v-325h131v325h355v-956h-355v344h-131v-344h-354v956h354z" />
    <glyph glyph-name="afii10080" unicode="&#x43e;" horiz-adv-x="997" 
d="M944 479q0 -110 -35 -213t-104 -170q-116 -116 -305 -116t-305 116q-69 68 -104.5 170.5t-35.5 212.5q0 108 35.5 210t104.5 171q117 117 305 117t305 -117q69 -69 104 -170.5t35 -210.5zM500 709q-38 0 -58 -33q-43 -62 -43 -199q0 -135 43 -196q20 -33 58 -33
q37 0 57 33q43 61 43 196q0 137 -43 199q-20 33 -57 33z" />
    <glyph glyph-name="afii10081" unicode="&#x43f;" horiz-adv-x="999" 
d="M918 0h-355v670h-127v-670h-354v956h836v-956z" />
    <glyph glyph-name="afii10082" unicode="&#x440;" horiz-adv-x="1013" 
d="M436 956l-8 -135q41 76 91 116t128 40q70 0 125.5 -34t89.5 -86t56.5 -121t31 -132.5t8.5 -126.5q0 -51 -5.5 -103t-18 -110t-36 -107t-55.5 -90t-80.5 -64t-107.5 -23q-77 0 -128.5 38t-98.5 111q8 -106 8 -158v-411h-354v1396h354zM592 492q0 27 -3 53.5t-10.5 61
t-25.5 56t-45 21.5q-22 0 -38 -16.5t-24 -38.5t-13 -53t-6 -51.5t-1 -41.5q0 -27 2.5 -54.5t9.5 -65t24.5 -61t43.5 -23.5q28 0 47 24t26.5 63t10 68t2.5 58z" />
    <glyph glyph-name="afii10083" unicode="&#x441;" horiz-adv-x="620" 
d="M580 311v-325q-50 -6 -97 -6q-102 0 -185 42.5t-135 113.5t-80 160t-28 187q0 99 32.5 188.5t90 157.5t143.5 108t187 40q22 0 72 -4v-311q-76 -4 -117 -50t-41 -123q0 -65 36 -121.5t97 -56.5h25z" />
    <glyph glyph-name="afii10084" unicode="&#x442;" horiz-adv-x="739" 
d="M719 670h-172v-670h-354v670h-173v286h699v-286z" />
    <glyph glyph-name="afii10085" unicode="&#x443;" horiz-adv-x="933" 
d="M934 956l-453 -1396h-364l168 479l-285 917h356q6 -23 22.5 -87.5t23.5 -94t20 -86t20 -94t15 -87t12 -93.5q2 12 11 80t13 93.5t13.5 74.5t19.5 88l54 206h354z" />
    <glyph glyph-name="afii10086" unicode="&#x444;" horiz-adv-x="1327" 
d="M489 -440v426q-188 5 -307 129q-76 78 -102.5 169.5t-26.5 198.5q0 220 119 346q57 61 140.5 98.5t176.5 43.5v395h349v-395q63 -3 120 -19.5t96 -40.5t60 -41t35 -32q125 -130 125 -357q0 -104 -26.5 -195.5t-102.5 -170.5q-127 -127 -307 -129v-426h-349zM807 684v-412
q63 3 102 45q49 54 49 162q0 114 -53 164q-41 38 -98 41zM520 272v412q-61 -4 -102 -45q-49 -51 -49 -156q0 -115 49 -166q39 -42 102 -45z" />
    <glyph glyph-name="afii10087" unicode="&#x445;" horiz-adv-x="987" 
d="M987 0h-412q-61 156 -77 225q-39 -107 -101 -225h-397l291 492l-275 464h404q12 -34 69 -206q18 55 78 206h394l-283 -456z" />
    <glyph glyph-name="afii10088" unicode="&#x446;" horiz-adv-x="1071" 
d="M569 956h357v-669h125v-523h-291v236h-678v956h356v-669h131v669z" />
    <glyph glyph-name="afii10089" unicode="&#x447;" horiz-adv-x="989" 
d="M551 0v330q-80 -21 -158 -21q-151 0 -235 76q-86 82 -86 256v315h348v-266q0 -54 14 -74q17 -24 55 -24q33 0 62 16v348h356v-956h-356z" />
    <glyph glyph-name="afii10090" unicode="&#x448;" horiz-adv-x="1478" 
d="M565 956h348v-669h136v669h348v-956h-1315v956h348v-669h135v669z" />
    <glyph glyph-name="afii10091" unicode="&#x449;" horiz-adv-x="1542" 
d="M565 956h348v-669h136v669h348v-669h125v-523h-291v236h-1149v956h348v-669h135v669z" />
    <glyph glyph-name="afii10092" unicode="&#x44a;" horiz-adv-x="1077" 
d="M537 616h139q190 0 278 -84q82 -77 82 -213q0 -147 -86 -229q-92 -90 -272 -90h-498v670h-160v286h517v-340zM537 225h12q79 0 110 31q21 21 21 55q0 39 -21 58q-28 26 -110 26h-12v-170z" />
    <glyph glyph-name="afii10093" unicode="&#x44b;" horiz-adv-x="1409" 
d="M1358 0h-357v956h357v-956zM438 616h131q191 0 279 -84q82 -77 82 -213q0 -147 -86 -229q-92 -90 -273 -90h-489v956h356v-340zM438 225h13q79 0 110 31q21 21 21 55q0 39 -21 58q-28 26 -110 26h-13v-170z" />
    <glyph glyph-name="afii10094" unicode="&#x44c;" horiz-adv-x="978" 
d="M438 616h140q190 0 278 -84q82 -77 82 -213q0 -147 -86 -229q-92 -90 -272 -90h-498v956h356v-340zM438 225h13q79 0 110 31q21 21 21 55q0 39 -21 58q-28 26 -110 26h-13v-170z" />
    <glyph glyph-name="afii10095" unicode="&#x44d;" horiz-adv-x="800" 
d="M82 29v280q59 -59 158 -59q69 0 114 39q34 30 43 84h-215v217h215q-13 56 -49 84q-42 33 -104 33q-91 0 -162 -66v287q96 49 217 49q186 0 309 -119q62 -62 101 -158t39 -221t-39.5 -225t-104.5 -164q-110 -110 -299 -110q-138 0 -223 49z" />
    <glyph glyph-name="afii10096" unicode="&#x44e;" horiz-adv-x="1452" 
d="M1399 479q0 -123 -38 -222.5t-101 -162.5q-114 -114 -304 -114q-196 0 -307 116q-96 104 -112 252h-109v-348h-346v956h346v-329h111q18 143 114 239q111 111 297 111q195 0 310 -115q63 -63 101 -162.5t38 -220.5zM954 709q-37 0 -57 -33q-43 -62 -43 -199
q0 -135 43 -196q20 -33 57 -33q38 0 58 33q43 61 43 196q0 137 -43 199q-20 33 -58 33z" />
    <glyph glyph-name="afii10097" unicode="&#x44f;" horiz-adv-x="989" 
d="M61 0l175 328q-78 20 -127 80q-52 66 -52 178q0 175 97 270q45 43 109.5 66.5t115 28.5t119.5 5h409v-956h-356v240q0 14 6 131q-2 -7 -43 -127l-92 -244h-361zM551 512v195h-8q-64 0 -94 -21q-39 -30 -39 -80q0 -46 32 -71q31 -23 99 -23h10z" />
    <glyph glyph-name="afii10071" unicode="&#x451;" horiz-adv-x="985" 
d="M571 324l347 -2q-37 -166 -147.5 -254t-278.5 -88q-212 0 -324.5 132.5t-112.5 348.5q0 138 50 253t153.5 188t243.5 73q106 0 190 -41.5t135.5 -112.5t78 -160.5t26.5 -191.5q0 -11 -1 -33t-1 -33h-520q0 -147 82 -147q30 0 51.5 19t27.5 49zM414 594h166q-1 29 -8 54.5
t-27 46t-49 20.5q-42 0 -61 -36.5t-21 -84.5zM846 1233q0 -60 -44 -104t-104 -44q-62 0 -106.5 43.5t-44.5 106.5q0 61 44 103t105 42q62 0 106 -43t44 -104zM453 1233q0 -60 -44 -104t-104 -44q-62 0 -106.5 43.5t-44.5 106.5q0 61 44 103t105 42q62 0 106 -43t44 -104z
" />
    <glyph glyph-name="afii10099" unicode="&#x452;" horiz-adv-x="1075" 
d="M502 1022v-152q0 -59 -8 -184q31 83 79 131q71 74 175 74q98 0 159 -66q86 -90 86 -325v-486q0 -262 -100 -366q-86 -88 -254 -88q-78 0 -154 20v297q29 -31 68 -31t59 27q21 26 21 100v476q0 45 -15 65q-16 23 -43 23q-31 0 -49 -27q-24 -32 -24 -98v-412h-357v1022
h-125v215h125v256h355v-256h248v-215h-246z" />
    <glyph glyph-name="afii10100" unicode="&#x453;" horiz-adv-x="739" 
d="M698 670h-262v-670h-354v956h616v-286zM674 1389l-180 -304h-203l96 304h287z" />
    <glyph glyph-name="afii10101" unicode="&#x454;" horiz-adv-x="800" 
d="M719 309v-280q-85 -49 -223 -49q-189 0 -299 110q-65 64 -104.5 164t-39.5 225t39 221t101 158q123 119 313 119q120 0 213 -49v-287q-61 66 -156 66q-60 0 -104 -33q-42 -33 -56 -84h215v-217h-215q7 -48 48 -84q49 -39 116 -39q93 0 152 59z" />
    <glyph glyph-name="afii10102" unicode="&#x455;" horiz-adv-x="808" 
d="M758 899l-123 -260q-84 84 -146 84q-22 0 -38.5 -11.5t-16.5 -33.5q0 -26 25 -47t62.5 -34t81.5 -35.5t81.5 -49.5t62.5 -78t25 -119q0 -104 -55 -182t-141 -115.5t-189 -37.5q-92 0 -167 24t-173 76l129 264q96 -100 178 -100q27 0 48.5 13t21.5 38q0 26 -35.5 46.5
t-86 40t-101 48t-86 84.5t-35.5 135q0 102 59 178.5t146.5 113t187.5 36.5q129 0 285 -78z" />
    <glyph glyph-name="afii10103" unicode="&#x456;" horiz-adv-x="518" 
d="M467 1255q0 -86 -60.5 -147t-146.5 -61t-146.5 61.5t-60.5 146.5t61 145t146 60t146 -60t61 -145zM436 0h-354v956h354v-956z" />
    <glyph glyph-name="afii10104" unicode="&#x457;" horiz-adv-x="518" 
d="M436 0h-354v956h354v-956zM514 1255q0 -68 -33.5 -114.5t-79.5 -46.5q-47 0 -79.5 46t-32.5 117q0 69 32.5 115.5t77.5 46.5q48 0 81.5 -47t33.5 -117zM231 1255q0 -69 -32 -115t-78 -46q-48 0 -82.5 46t-34.5 117q0 69 34.5 115.5t82.5 46.5q46 0 78 -47t32 -117z" />
    <glyph glyph-name="afii10105" unicode="&#x458;" horiz-adv-x="520" 
d="M467 1255q0 -85 -60.5 -146.5t-146.5 -61.5t-146.5 61t-60.5 147q0 85 60 145t145 60t147 -59.5t62 -145.5zM438 -440h-354v1396h354v-1396z" />
    <glyph glyph-name="afii10106" unicode="&#x459;" horiz-adv-x="1476" 
d="M944 616h131q191 0 279 -84q82 -77 82 -213q0 -147 -86 -229q-92 -90 -273 -90h-481v670h-123v-213q0 -296 -104 -400q-80 -80 -222 -80q-57 0 -139 21v285q21 -15 51 -15q38 0 64 23q41 41 41 182v483h780v-340zM944 225h12q80 0 111 31q20 20 20 55q0 40 -20 58
q-28 26 -111 26h-12v-170z" />
    <glyph glyph-name="afii10107" unicode="&#x45a;" horiz-adv-x="1464" 
d="M924 616h139q190 0 278 -84q82 -77 82 -213q0 -147 -86 -229q-92 -90 -272 -90h-498v395h-131v-395h-354v956h354v-340h131v340h357v-340zM924 225h12q80 0 111 31q20 20 20 55q0 40 -20 58q-28 26 -111 26h-12v-170z" />
    <glyph glyph-name="afii10108" unicode="&#x45b;" horiz-adv-x="1069" 
d="M987 0h-356v420q0 117 -56 117q-75 0 -75 -142v-395h-355v1022h-125v215h125v256h355v-256h248v-215h-248v-117q0 -29 -8 -217q86 203 251 203q66 0 115 -28t76.5 -76t40 -103.5t12.5 -118.5v-565z" />
    <glyph glyph-name="afii10109" unicode="&#x45c;" horiz-adv-x="1013" 
d="M1014 0h-408l-69 164q-44 95 -101 252v-416h-354v956h354v-452q31 121 107 301l63 151h383l-231 -473zM807 1389l-180 -304h-203l96 304h287z" />
    <glyph glyph-name="afii10110" unicode="&#x45e;" horiz-adv-x="933" 
d="M934 956l-453 -1396h-364l168 479l-285 917h356q6 -23 22.5 -87.5t23.5 -94t20 -86t20 -94t15 -87t12 -93.5q2 12 11 80t13 93.5t13.5 74.5t19.5 88l54 206h354zM586 1386l235 -59q-27 -134 -135 -203q-82 -51 -209 -51t-209 51q-108 69 -135 203l236 59q7 -58 34 -86
q23 -26 74 -26t74 26q29 29 35 86z" />
    <glyph glyph-name="afii10193" unicode="&#x45f;" horiz-adv-x="1007" 
d="M569 956h357v-956h-277v-236h-291v236h-276v956h356v-669h131v669z" />
    <glyph glyph-name="afii10146" unicode="&#x462;" horiz-adv-x="1179" 
d="M647 0h-434v1001h-172v267h172v174h369v-174h213v-267h-213v-149h20q283 0 406 -123q110 -110 110 -305q0 -203 -117 -311q-120 -113 -354 -113zM582 569v-272q8 -2 30 -2q64 0 97 31q41 38 41 106q0 66 -37 103q-36 36 -105 36q-18 0 -26 -2z" />
    <glyph glyph-name="afii10194" unicode="&#x463;" horiz-adv-x="1060" 
d="M520 702v-94h139q193 0 279 -84q82 -78 82 -213q0 -152 -98 -235q-90 -76 -260 -76h-498v702h-123v254h123v410h356v-410h199v-254h-199zM520 225h12q80 0 111 31q21 21 21 55q0 39 -21 58q-28 26 -111 26h-12v-170z" />
    <glyph glyph-name="afii10147" unicode="&#x472;" horiz-adv-x="1161" 
d="M1100 684q0 -205 -55.5 -353.5t-145.5 -232.5q-129 -123 -317 -123q-191 0 -320 123q-90 84 -145.5 232.5t-55.5 353.5q0 105 16.5 198.5t39 153.5t53.5 112.5t51 76t41 43.5q129 123 320 123q188 0 317 -123q21 -20 41 -43.5t51 -76t53.5 -112.5t39 -153.5t16.5 -198.5z
M455 825h252q-2 57 -16.5 117t-43.5 88q-28 25 -65 25q-41 0 -66 -25q-29 -29 -44 -89.5t-17 -115.5zM709 541h-256q0 -58 18 -120t49 -89q24 -21 60 -21q35 0 63 25q32 29 48 88.5t18 116.5z" />
    <glyph glyph-name="afii10195" unicode="&#x473;" horiz-adv-x="997" 
d="M944 479q0 -110 -35 -213t-104 -170q-116 -116 -305 -116t-305 116q-69 68 -104.5 170.5t-35.5 212.5q0 108 35.5 210t104.5 171q117 117 305 117t305 -117q69 -69 104 -170.5t35 -210.5zM399 590h201q-4 76 -45 117q-24 24 -57 24q-34 0 -54 -20q-20 -18 -31.5 -54
t-13.5 -67zM596 373h-193q5 -88 46 -127q21 -21 51 -21t51 21q40 38 45 127z" />
    <glyph glyph-name="afii10148" unicode="&#x474;" horiz-adv-x="1060" 
d="M1061 1366l-373 -1366h-375l-313 1366h387q38 -221 53.5 -311.5t39.5 -265.5t36 -314q8 96 21 213q15 114 36 225l86 453h402z" />
    <glyph glyph-name="afii10196" unicode="&#x475;" horiz-adv-x="913" 
d="M913 956l-278 -956h-371l-264 956h358q4 -19 31 -152.5t39 -205.5q7 -41 27 -246q23 188 108 604h350z" />
    <glyph glyph-name="afii10050" unicode="&#x490;" horiz-adv-x="911" 
d="M96 1366h441v291h327v-613h-399v-1044h-369v1366z" />
    <glyph glyph-name="afii10098" unicode="&#x491;" horiz-adv-x="856" 
d="M82 956h432v287h291v-573h-369v-670h-354v956z" />
    <glyph glyph-name="uni0492" unicode="&#x492;" horiz-adv-x="864" 
d="M817 1044h-282v-198h262v-309h-262v-537h-369v537h-135v309h135v520h651v-322z" />
    <glyph glyph-name="uni0493" unicode="&#x493;" horiz-adv-x="800" 
d="M760 956v-286h-262v-127h204v-287h-204v-256h-355v256h-102v287h102v413h617z" />
    <glyph glyph-name="uni0494" unicode="&#x494;" horiz-adv-x="1077" 
d="M768 1044h-303v-139q0 -75 -10 -131q104 68 221 68q140 0 229 -86q121 -119 121 -344q0 -111 -31 -209t-90 -156q-82 -80 -219 -80q-64 0 -149 29l28 291q22 -19 47 -19q20 0 35 15q27 25 27 110q0 72 -31 105q-25 28 -70 28q-47 0 -108 -34v-492h-369v1366h672v-322z
" />
    <glyph glyph-name="uni0495" unicode="&#x495;" horiz-adv-x="983" 
d="M715 670h-279v-148h31q50 0 87 -3.5t94 -15.5t108 -43t90 -79q86 -107 86 -295q0 -260 -121 -391q-120 -128 -377 -135v278q62 3 103 41q55 51 55 189q0 114 -45 163q-38 45 -111 45v-276h-354v956h633v-286z" />
    <glyph glyph-name="uni0496" unicode="&#x496;" horiz-adv-x="1527" 
d="M379 1366l215 -614l-10 614h348l-10 -614l215 614h364l-282 -659l147 -373h152v-600h-320v266h-72l-204 657l10 -657h-348l10 657l-205 -657h-373l281 707l-287 659h369z" />
    <glyph glyph-name="uni0497" unicode="&#x497;" horiz-adv-x="1454" 
d="M1071 956h369l-223 -467l102 -202h125v-523h-291v236h-88l-82 197q-42 103 -82 245v-442h-344v442q-39 -141 -82 -245l-78 -197h-393l238 489l-224 467h369l86 -213q49 -118 84 -241v454h344v-454q35 123 84 241z" />
    <glyph glyph-name="uni0498" unicode="&#x498;" horiz-adv-x="968" 
d="M102 926v374q138 91 326 91q215 0 334 -119q108 -104 108 -281q0 -138 -71 -213q-27 -28 -64 -48t-58.5 -26t-35.5 -8q113 -9 186 -82q80 -80 80 -217q0 -162 -92 -278q-75 -93 -184 -119v-266h-328v254q-109 11 -201 63v406q53 -67 111 -103q65 -41 145 -41q82 0 119 37
q31 31 31 72q0 59 -49 86q-41 24 -142 24h-59v314h64q93 0 135 26q41 27 41 74q0 50 -41 80q-41 27 -99 27q-81 0 -147 -39q-57 -33 -109 -88z" />
    <glyph glyph-name="uni0499" unicode="&#x499;" horiz-adv-x="890" 
d="M182 621l-129 247q175 109 361 109q162 0 256 -55q131 -78 131 -228q0 -90 -53 -143q-50 -50 -127 -59q96 -4 155 -60q58 -54 58 -141q0 -49 -22.5 -107t-59.5 -96q-58 -61 -156 -88v-236h-291v226q-144 20 -264 110l133 256q40 -50 84 -73q50 -27 104 -27q51 0 78 16
q29 17 29 43q0 15 -13 30t-42 22q-36 8 -97 8h-47v223h43q69 0 97 8q45 10 45 49q0 60 -97 60q-49 0 -100 -29q-33 -19 -76 -65z" />
    <glyph glyph-name="uni049A" unicode="&#x49a;" horiz-adv-x="1116" 
d="M96 1366h369l-10 -610l217 610h389l-291 -659l174 -373h162v-600h-320v266h-86l-245 653l10 -653h-369v1366z" />
    <glyph glyph-name="uni049B" unicode="&#x49b;" horiz-adv-x="1013" 
d="M606 956h383l-231 -473l110 -196h125v-523h-291v236h-90l-75 164q-67 157 -101 252v-416h-354v956h354v-452q31 121 107 301z" />
    <glyph glyph-name="uni049C" unicode="&#x49c;" horiz-adv-x="1323" 
d="M453 600l12 -600h-369v1366h369l-10 -561h88v307h178v-348l207 602h381l-277 -659l281 -707h-389l-203 649v-323h-178v274h-90z" />
    <glyph glyph-name="uni049D" unicode="&#x49d;" horiz-adv-x="1187" 
d="M430 371v-371h-348v956h348v-381h68v195h147v-252q36 158 92 287l64 151h364l-223 -473l236 -483h-377l-70 164q-59 147 -86 237v-241h-147v211h-68z" />
    <glyph glyph-name="uni04A0" unicode="&#x4a0;" horiz-adv-x="1304" 
d="M1294 0h-397l-246 653l11 -653h-369v1044h-262v322h631l-11 -610l217 610h389l-290 -659z" />
    <glyph glyph-name="uni04A1" unicode="&#x4a1;" horiz-adv-x="1177" 
d="M1178 0h-408l-70 164q-39 84 -100 252v-416h-354v670h-226v286h580v-452q31 121 107 301l63 151h383l-231 -473z" />
    <glyph glyph-name="uni04A2" unicode="&#x4a2;" horiz-adv-x="1173" 
d="M641 1366h369v-1032h143v-598h-328v264h-184v549h-176v-549h-369v1366h369v-483h176v483z" />
    <glyph glyph-name="uni04A3" unicode="&#x4a3;" horiz-adv-x="1067" 
d="M436 956v-325h131v325h355v-669h125v-523h-291v236h-189v344h-131v-344h-354v956h354z" />
    <glyph glyph-name="uni04A4" unicode="&#x4a4;" horiz-adv-x="1290" 
d="M1260 1044h-250v-1044h-369v549h-176v-549h-369v1366h369v-483h176v483h619v-322z" />
    <glyph glyph-name="uni04A5" unicode="&#x4a5;" horiz-adv-x="1187" 
d="M1167 670h-245v-670h-355v344h-131v-344h-354v956h354v-325h131v325h600v-286z" />
    <glyph glyph-name="uni04AA" unicode="&#x4aa;" horiz-adv-x="911" 
d="M864 420l-22 -395q-41 -20 -72 -25v-266h-328v270q-137 49 -233 170q-148 188 -148 504q0 360 203 559q157 154 410 154q97 0 174 -35v-389q-75 82 -170 82q-82 0 -137 -50q-34 -31 -57 -78.5t-31.5 -98t-11.5 -81.5t-3 -57q0 -205 88 -293q59 -59 150 -59q95 0 188 88z
" />
    <glyph glyph-name="uni04AB" unicode="&#x4ab;" horiz-adv-x="628" 
d="M588 311v-325q-18 -6 -41 -6v-216h-279v232q-106 66 -159 184q-54 118 -54 283q0 242 142 387q62 62 140 94.5t152 32.5q13 0 44.5 -2t54.5 -2v-311q-66 0 -117 -44q-49 -45 -49 -129q0 -91 55 -143q35 -35 90 -35h21z" />
    <glyph glyph-name="uni04AE" unicode="&#x4ae;" 
d="M1024 1366l-315 -788v-578h-369v578l-340 788h385q7 -22 32.5 -100t37 -114t29.5 -97t30 -111q62 222 129 422h381z" />
    <glyph glyph-name="uni04AF" unicode="&#x4af;" horiz-adv-x="960" 
d="M0 956h369l53 -235q44 -193 59 -324q24 166 60 328l51 231h369l-306 -917v-479h-354v479z" />
    <glyph glyph-name="uni04B0" unicode="&#x4b0;" 
d="M1024 1366l-315 -752v-53h241v-293h-241v-268h-369v268h-242v293h242v53l-340 752h385q7 -22 32.5 -100t37 -114t29.5 -97t30 -111q62 222 129 422h381z" />
    <glyph glyph-name="uni04B1" unicode="&#x4b1;" horiz-adv-x="960" 
d="M0 956h369l53 -225q41 -168 59 -323q24 170 60 327l51 221h369l-306 -813v-37h217v-215h-217v-331h-354v331h-215v215h215v37z" />
    <glyph glyph-name="uni04B2" unicode="&#x4b2;" horiz-adv-x="1062" 
d="M621 1366h413l-311 -657l178 -375h152v-598h-320v264h-84q-18 48 -47.5 138t-38.5 116q-32 99 -35 113l-18 -60t-18 -61q-11 -35 -91 -246h-401l332 709l-314 657h410q103 -322 104 -324q15 71 89 324z" />
    <glyph glyph-name="uni04B3" unicode="&#x4b3;" horiz-adv-x="968" 
d="M420 956q12 -34 69 -206q18 55 78 206h394l-283 -456l137 -213h131v-523h-291v236h-71q-63 127 -86 225q-39 -107 -101 -225h-397l291 492l-275 464h404z" />
    <glyph glyph-name="uni04B6" unicode="&#x4b6;" horiz-adv-x="1150" 
d="M803 0h-185v543q-109 -23 -184 -23q-153 0 -244 80q-36 32 -59.5 71.5t-33 85.5t-12.5 82t-3 87v440h360v-395q0 -65 27 -94q29 -29 78 -29q36 0 71 14v504h369v-1032h143v-598h-327v264z" />
    <glyph glyph-name="uni04B7" unicode="&#x4b7;" horiz-adv-x="1052" 
d="M741 0h-190v330q-80 -21 -158 -21q-151 0 -235 76q-86 82 -86 256v315h348v-266q0 -54 14 -74q17 -24 55 -24q33 0 62 16v348h356v-669h125v-523h-291v236z" />
    <glyph glyph-name="uni04B8" unicode="&#x4b8;" horiz-adv-x="1224" 
d="M762 0v543q-45 -14 -78 -19v-239h-170v231q-97 -4 -192.5 21t-155.5 90q-84 93 -84 268v471h352v-424q0 -51 23 -74q18 -18 57 -18v278h170v-282q40 3 78 18v502h368v-1366h-368z" />
    <glyph glyph-name="uni04B9" unicode="&#x4b9;" horiz-adv-x="1120" 
d="M682 0v338q-42 -17 -68 -19v-176h-147v164h-14q-60 0 -101.5 3t-102.5 24t-99 61q-78 80 -78 246v315h327v-278q0 -61 19 -80q18 -18 49 -18v211h147v-209q35 0 68 20v354h356v-956h-356z" />
    <glyph glyph-name="uni04BA" unicode="&#x4ba;" horiz-adv-x="1083" 
d="M465 1366v-506q109 23 184 23q153 0 244 -80q36 -32 59.5 -71.5t33 -85.5t12.5 -82t3 -87v-477h-360v432q0 65 -27 94q-29 29 -77 29q-37 0 -72 -14v-541h-369v1366h369z" />
    <glyph glyph-name="uni04BB" unicode="&#x4bb;" horiz-adv-x="1005" 
d="M924 0h-357v506q0 25 -1 37t-5 35t-16.5 34t-32.5 11q-76 0 -76 -142v-481h-354v1493h354v-535q0 -62 -8 -184q86 203 252 203q66 0 115 -28t76.5 -76t40 -103.5t12.5 -118.5v-651z" />
    <glyph glyph-name="uni04C0" unicode="&#x4c0;" horiz-adv-x="518" 
d="M436 0h-354v1366h354v-1366z" />
    <glyph glyph-name="uni04C1" unicode="&#x4c1;" horiz-adv-x="1511" 
d="M1499 0h-373l-204 657l10 -657h-348l10 657l-205 -657h-373l281 707l-287 659h369l215 -614l-10 614h348l-10 -614l215 614h364l-282 -659zM891 1790l258 -72q-31 -131 -141 -202q-92 -60 -252 -60t-252 60q-111 71 -142 202l259 72q7 -58 45 -88q36 -27 90 -27
q56 0 90 27q32 25 45 88z" />
    <glyph glyph-name="uni04C2" unicode="&#x4c2;" horiz-adv-x="1458" 
d="M1454 0h-393l-78 197q-43 104 -82 245v-442h-344v442q-39 -141 -82 -245l-78 -197h-393l238 489l-224 467h369l86 -213q49 -118 84 -241v454h344v-454q35 123 84 241l86 213h369l-223 -467zM838 1386l235 -59q-27 -134 -135 -203q-82 -51 -209 -51t-209 51
q-108 69 -135 203l236 59q7 -58 34 -86q23 -26 74 -26t74 26q29 29 35 86z" />
    <glyph glyph-name="uni04C3" unicode="&#x4c3;" horiz-adv-x="1171" 
d="M96 1366h369l-10 -586l217 586h381l-246 -555q105 -17 176 -88q37 -37 61 -87.5t33 -111.5t11 -99.5t2 -96.5v-133q0 -42 -4.5 -90.5t-16.5 -117t-41.5 -132t-71.5 -103.5q-84 -80 -243 -80q-93 0 -176 29l28 291q29 -19 60 -19q29 0 55 21q41 38 41 172v135
q0 149 -41 201q-31 39 -86 39q-54 0 -129 -41v-500h-369v1366z" />
    <glyph glyph-name="uni04C4" unicode="&#x4c4;" horiz-adv-x="1030" 
d="M82 956h354v-452q31 121 107 301l63 151h383l-239 -485q101 -30 161 -125q36 -59 47 -116t11 -136q0 -121 -23.5 -221t-97.5 -178q-125 -131 -393 -135v278q59 0 102 39q55 53 55 205q0 125 -51 172q-45 39 -125 39v-293h-354v956z" />
    <glyph glyph-name="uni04C7" unicode="&#x4c7;" horiz-adv-x="1103" 
d="M641 1366h369v-1450q0 -39 -1.5 -64t-8.5 -67.5t-25 -79t-47 -65.5q-26 -26 -58.5 -43t-69.5 -23.5t-62 -8t-60 -1.5q-93 0 -174 24v285q32 -25 63 -25q35 0 56 25q3 4 6 9t4.5 12t3 11.5t2.5 13.5l1.5 13.5t0.5 15v14v16v14.5v557h-176v-549h-369v1366h369v-483h176v483
z" />
    <glyph glyph-name="uni04C8" unicode="&#x4c8;" horiz-adv-x="1003" 
d="M436 956v-325h131v325h355v-1060q0 -37 -1.5 -62t-8.5 -67.5t-25 -78t-47 -61.5q-72 -67 -238 -67q-90 0 -160 20v256q20 -14 50 -14q40 0 59 24q16 22 16 76v422h-131v-344h-354v956h354z" />
    <glyph glyph-name="uni04D0" unicode="&#x4d0;" horiz-adv-x="1089" 
d="M1079 0h-381l-28 174h-248l-31 -174h-381l330 1366h451zM471 465h156q-49 323 -70 573q-4 -32 -11 -96t-11 -96q-28 -200 -64 -381zM680 1790l258 -72q-31 -131 -141 -202q-92 -60 -252 -60t-252 60q-110 71 -141 202l258 72q7 -58 45 -88q36 -27 90 -27q55 0 90 27
q32 25 45 88z" />
    <glyph glyph-name="uni04D1" unicode="&#x4d1;" horiz-adv-x="1017" 
d="M936 0h-356l6 81l6 81q-91 -182 -246 -182q-58 0 -105.5 24t-78 66t-52.5 92t-33.5 109t-16.5 110t-5 102q0 63 7.5 125t28 130.5t52.5 120t86.5 85t124.5 33.5q149 0 230 -172q-1 12 -4 66.5t-7 84.5h363v-956zM575 520q0 164 -73 164q-22 0 -38.5 -12.5t-26 -37
t-15 -46t-7.5 -55.5t-2.5 -48t-0.5 -41q0 -172 80 -172q15 0 27.5 6t21 18.5t15 25.5t10 33t6 35t3 38t1 35t0 32.5t-0.5 24.5zM643 1386l236 -59q-27 -133 -136 -203q-82 -51 -208 -51q-127 0 -209 51q-109 70 -136 203l236 59q6 -57 35 -86q23 -26 74 -26q50 0 73 26
q29 29 35 86z" />
    <glyph glyph-name="uni04D2" unicode="&#x4d2;" horiz-adv-x="1089" 
d="M1079 0h-381l-28 174h-248l-31 -174h-381l330 1366h451zM471 465h156q-49 323 -70 573q-4 -32 -11 -96t-11 -96q-28 -200 -64 -381zM891 1622q0 -60 -44 -103.5t-104 -43.5q-62 0 -106.5 43.5t-44.5 105.5q0 61 44 103t105 42q62 0 106 -43t44 -104zM498 1622
q0 -60 -44 -103.5t-104 -43.5q-62 0 -106.5 43.5t-44.5 105.5q0 61 44 103t105 42q62 0 106 -43t44 -104z" />
    <glyph glyph-name="uni04D3" unicode="&#x4d3;" horiz-adv-x="1017" 
d="M936 0h-356l6 81l6 81q-91 -182 -246 -182q-58 0 -105.5 24t-78 66t-52.5 92t-33.5 109t-16.5 110t-5 102q0 63 7.5 125t28 130.5t52.5 120t86.5 85t124.5 33.5q149 0 230 -172q-1 12 -4 66.5t-7 84.5h363v-956zM575 520q0 164 -73 164q-22 0 -38.5 -12.5t-26 -37
t-15 -46t-7.5 -55.5t-2.5 -48t-0.5 -41q0 -172 80 -172q15 0 27.5 6t21 18.5t15 25.5t10 33t6 35t3 38t1 35t0 32.5t-0.5 24.5zM889 1233q0 -60 -44 -104t-104 -44q-62 0 -106.5 43.5t-44.5 106.5q0 61 44 103t105 42q62 0 106 -43t44 -104zM496 1233q0 -60 -44 -104
t-104 -44q-62 0 -106.5 43.5t-44.5 106.5q0 61 44 103t105 42q62 0 106 -43t44 -104z" />
    <glyph glyph-name="uni04D4" unicode="&#x4d4;" horiz-adv-x="1259" 
d="M1198 0h-524l-25 174h-237l-31 -174h-381l315 1366h883v-322h-367l31 -198h307v-309h-254l37 -209h246v-328zM457 457h153q-57 406 -71 579q-30 -258 -82 -579z" />
    <glyph glyph-name="uni04D5" unicode="&#x4d5;" horiz-adv-x="1505" 
d="M160 657v277q158 43 284 43q94 0 162.5 -20t132.5 -74q133 94 275 94q107 0 191.5 -41t137 -111t80 -160.5t27.5 -193.5q0 -42 -2 -65h-522q6 -164 94 -164q57 0 80 71l338 -6q-25 -90 -59 -149t-99 -105q-105 -73 -270 -73q-85 0 -151 23t-132 75q-145 -98 -309 -98
q-153 0 -258 91t-105 240q0 147 97.5 226t248.5 79q85 0 183 -20q-17 117 -191 117q-121 0 -233 -56zM926 596h178q-15 133 -92 133q-20 0 -35 -9.5t-23.5 -21.5t-14.5 -33t-8.5 -34t-4.5 -35zM586 307q0 40 -27 62t-67 22q-39 0 -66 -23.5t-27 -62.5q0 -40 28 -61t69 -21
q39 0 64.5 22.5t25.5 61.5z" />
    <glyph glyph-name="uni04D6" unicode="&#x4d6;" horiz-adv-x="841" 
d="M780 0h-684v1366h684v-322h-315v-198h283v-309h-283v-209h315v-328zM563 1790l258 -72q-31 -131 -141 -202q-92 -60 -252 -60t-252 60q-110 71 -141 202l258 72q7 -58 45 -88q36 -27 90 -27q56 0 90 27q32 25 45 88z" />
    <glyph glyph-name="uni04D7" unicode="&#x4d7;" horiz-adv-x="985" 
d="M571 324l347 -2q-37 -166 -147.5 -254t-278.5 -88q-212 0 -324.5 132.5t-112.5 348.5q0 138 50 253t153.5 188t243.5 73q106 0 190 -41.5t135.5 -112.5t78 -160.5t26.5 -191.5q0 -11 -1 -33t-1 -33h-520q0 -147 82 -147q30 0 51.5 19t27.5 49zM414 594h166q-1 29 -8 54.5
t-27 46t-49 20.5q-42 0 -61 -36.5t-21 -84.5zM623 1386l235 -59q-27 -134 -135 -203q-82 -51 -209 -51t-209 51q-108 69 -135 203l236 59q6 -58 34 -86q23 -26 74 -26t74 26q29 29 35 86z" />
    <glyph glyph-name="uni04D8" unicode="&#x4d8;" horiz-adv-x="1138" 
d="M61 788h635q-15 173 -65 236q-32 37 -80 37q-38 0 -72 -29q-36 -36 -47 -110l-358 112q55 150 168 246q131 111 317 111q201 0 328 -127q89 -89 139.5 -241t50.5 -329q0 -392 -178 -579q-132 -140 -344 -140q-102 0 -178.5 31t-140.5 100q-175 192 -175 627v55zM696 518
h-264q7 -140 55 -186q27 -27 74 -27q46 0 74 31q26 26 42.5 79t18.5 103z" />
    <glyph glyph-name="afii10846" unicode="&#x4d9;" horiz-adv-x="985" 
d="M403 631l-323 78q42 115 135 186q107 80 274 80q199 0 310 -111q133 -133 133 -368q0 -127 -41.5 -231.5t-112.5 -172.5q-115 -112 -291 -112q-185 0 -294 114q-22 23 -43 54t-47 87t-39 138.5t-7 177.5h521q0 94 -33 127q-20 20 -56 20q-31 0 -55 -16q-24 -17 -31 -51z
M573 360h-165q0 -64 30 -96q21 -24 54 -24q29 0 49 20q32 32 32 100z" />
    <glyph glyph-name="uni04DA" unicode="&#x4da;" horiz-adv-x="1138" 
d="M61 788h635q-15 173 -65 236q-32 37 -80 37q-38 0 -72 -29q-36 -36 -47 -110l-358 112q55 150 168 246q131 111 317 111q201 0 328 -127q89 -89 139.5 -241t50.5 -329q0 -392 -178 -579q-132 -140 -344 -140q-102 0 -178.5 31t-140.5 100q-175 192 -175 627v55zM696 518
h-264q7 -140 55 -186q27 -27 74 -27q46 0 74 31q26 26 42.5 79t18.5 103zM899 1622q0 -60 -43.5 -103.5t-103.5 -43.5q-62 0 -107 43.5t-45 105.5q0 61 44.5 103t105.5 42q62 0 105.5 -43t43.5 -104zM506 1622q0 -60 -44 -103.5t-104 -43.5q-62 0 -106.5 43.5t-44.5 105.5
q0 61 44 103t105 42q62 0 106 -43t44 -104z" />
    <glyph glyph-name="uni04DB" unicode="&#x4db;" horiz-adv-x="985" 
d="M403 631l-323 78q42 115 135 186q107 80 274 80q199 0 310 -111q133 -133 133 -368q0 -127 -41.5 -231.5t-112.5 -172.5q-115 -112 -291 -112q-185 0 -294 114q-22 23 -43 54t-47 87t-39 138.5t-7 177.5h521q0 94 -33 127q-20 20 -56 20q-31 0 -55 -16q-24 -17 -31 -51z
M573 360h-165q0 -64 30 -96q21 -24 54 -24q29 0 49 20q32 32 32 100zM840 1233q0 -60 -44 -104t-104 -44q-62 0 -106.5 43.5t-44.5 106.5q0 61 44 103t105 42q62 0 106 -43t44 -104zM446 1233q0 -60 -43.5 -104t-103.5 -44q-62 0 -107 44t-45 106q0 61 44.5 103t105.5 42
q62 0 105.5 -43t43.5 -104z" />
    <glyph glyph-name="uni04DC" unicode="&#x4dc;" horiz-adv-x="1511" 
d="M1499 0h-373l-204 657l10 -657h-348l10 657l-205 -657h-373l281 707l-287 659h369l215 -614l-10 614h348l-10 -614l215 614h364l-282 -659zM1092 1622q0 -60 -44 -103.5t-104 -43.5q-62 0 -106.5 43.5t-44.5 105.5q0 61 44 103t105 42q62 0 106 -43t44 -104zM698 1622
q0 -60 -43.5 -103.5t-103.5 -43.5q-62 0 -107 43.5t-45 105.5q0 61 44.5 103t105.5 42q62 0 105.5 -43t43.5 -104z" />
    <glyph glyph-name="uni04DD" unicode="&#x4dd;" horiz-adv-x="1458" 
d="M1454 0h-393l-78 197q-43 104 -82 245v-442h-344v442q-39 -141 -82 -245l-78 -197h-393l238 489l-224 467h369l86 -213q49 -118 84 -241v454h344v-454q35 123 84 241l86 213h369l-223 -467zM1063 1233q0 -60 -44 -104t-104 -44q-62 0 -106.5 43.5t-44.5 106.5
q0 61 44 103t105 42q62 0 106 -43t44 -104zM670 1233q0 -60 -44 -104t-104 -44q-62 0 -106.5 43.5t-44.5 106.5q0 61 44 103t105 42q62 0 106 -43t44 -104z" />
    <glyph glyph-name="uni04DE" unicode="&#x4de;" horiz-adv-x="968" 
d="M102 926v374q138 91 326 91q215 0 334 -119q108 -104 108 -281q0 -138 -71 -213q-27 -28 -64 -48t-58.5 -26t-35.5 -8q113 -9 186 -82q80 -75 80 -213q0 -92 -32 -174.5t-95 -140.5q-51 -48 -121 -74.5t-117.5 -31.5t-109.5 -5q-174 0 -330 76v406q53 -67 111 -103
q65 -41 145 -41q82 0 119 37q31 31 31 72q0 59 -49 86q-41 24 -142 24h-59v314h64q93 0 135 26q41 27 41 74q0 50 -41 80q-41 27 -99 27q-81 0 -147 -39q-57 -33 -109 -88zM786 1622q0 -60 -43.5 -103.5t-103.5 -43.5q-62 0 -107 43.5t-45 105.5q0 61 44.5 103t105.5 42
q62 0 105.5 -43t43.5 -104zM393 1622q0 -60 -43.5 -103.5t-103.5 -43.5q-62 0 -107 43.5t-45 105.5q0 61 44.5 103t105.5 42q62 0 105.5 -43t43.5 -104z" />
    <glyph glyph-name="uni04DF" unicode="&#x4df;" horiz-adv-x="890" 
d="M182 621l-129 247q175 109 361 109q162 0 256 -55q131 -78 131 -228q0 -90 -53 -143q-50 -50 -127 -59q96 -4 155 -60q58 -54 58 -141q0 -75 -39.5 -142.5t-110.5 -109.5q-101 -59 -262 -59q-137 0 -234 38q-70 26 -147 82l133 256q40 -50 84 -73q50 -27 104 -27
q51 0 78 16q29 17 29 43q0 15 -13 30t-42 22q-36 8 -97 8h-47v223h43q69 0 97 8q45 10 45 49q0 60 -97 60q-49 0 -100 -29q-33 -19 -76 -65zM776 1233q0 -60 -43.5 -104t-103.5 -44q-62 0 -107 44t-45 106q0 61 44.5 103t105.5 42q62 0 105.5 -43t43.5 -104zM383 1233
q0 -60 -43.5 -104t-103.5 -44q-62 0 -107 44t-45 106q0 61 44 103t105 42q62 0 106 -43t44 -104z" />
    <glyph glyph-name="uni04E2" unicode="&#x4e2;" horiz-adv-x="1138" 
d="M96 0v1366h348v-379q0 -92 -41 -461q88 258 142 398l174 442h323v-1366h-348v365q0 87 23 438q-24 -84 -47 -154t-35 -102t-33.5 -85.5t-28.5 -70.5l-153 -391h-324zM918 1522h-697v192h697v-192z" />
    <glyph glyph-name="uni04E3" unicode="&#x4e3;" horiz-adv-x="1036" 
d="M82 956h340v-268q0 -108 -14 -252q31 96 71 185l152 335h323v-956h-340v256q0 95 13 264q-27 -91 -72 -192l-149 -328h-324v956zM866 1133h-696v192h696v-192z" />
    <glyph glyph-name="uni04E4" unicode="&#x4e4;" horiz-adv-x="1138" 
d="M96 0v1366h348v-379q0 -92 -41 -461q88 258 142 398l174 442h323v-1366h-348v365q0 87 23 438q-24 -84 -47 -154t-35 -102t-33.5 -85.5t-28.5 -70.5l-153 -391h-324zM915 1622q0 -60 -43.5 -103.5t-103.5 -43.5q-62 0 -107 43.5t-45 105.5q0 61 44.5 103t105.5 42
q62 0 105.5 -43t43.5 -104zM522 1622q0 -60 -43.5 -103.5t-103.5 -43.5q-62 0 -107 43.5t-45 105.5q0 61 44.5 103t105.5 42q62 0 105.5 -43t43.5 -104z" />
    <glyph glyph-name="uni04E5" unicode="&#x4e5;" horiz-adv-x="1036" 
d="M82 956h340v-268q0 -108 -14 -252q31 96 71 185l152 335h323v-956h-340v256q0 95 13 264q-27 -91 -72 -192l-149 -328h-324v956zM864 1233q0 -60 -43.5 -104t-103.5 -44q-62 0 -107 44t-45 106q0 61 44.5 103t105.5 42q62 0 105.5 -43t43.5 -104zM471 1233
q0 -60 -43.5 -104t-103.5 -44q-62 0 -107 44t-45 106q0 61 44.5 103t105.5 42q62 0 105.5 -43t43.5 -104z" />
    <glyph glyph-name="uni04E6" unicode="&#x4e6;" horiz-adv-x="1161" 
d="M1100 684q0 -205 -55.5 -353.5t-145.5 -232.5q-129 -123 -317 -123q-191 0 -320 123q-90 84 -145.5 232.5t-55.5 353.5q0 105 16.5 198.5t39 153.5t53.5 112.5t51 76t41 43.5q129 123 320 123q188 0 317 -123q21 -20 41 -43.5t51 -76t53.5 -112.5t39 -153.5t16.5 -198.5z
M582 1047q-40 0 -62 -25q-76 -76 -76 -338t76 -338q22 -24 62 -24q35 0 59 24q76 76 76 338t-76 338q-25 25 -59 25zM926 1622q0 -60 -44 -103.5t-104 -43.5q-62 0 -106.5 43.5t-44.5 105.5q0 61 44 103t105 42q62 0 106 -43t44 -104zM532 1622q0 -60 -43.5 -103.5
t-103.5 -43.5q-62 0 -107 43.5t-45 105.5q0 61 44.5 103t105.5 42q62 0 105.5 -43t43.5 -104z" />
    <glyph glyph-name="uni04E7" unicode="&#x4e7;" horiz-adv-x="997" 
d="M944 479q0 -110 -35 -213t-104 -170q-116 -116 -305 -116t-305 116q-69 68 -104.5 170.5t-35.5 212.5q0 108 35.5 210t104.5 171q117 117 305 117t305 -117q69 -69 104 -170.5t35 -210.5zM500 709q-38 0 -58 -33q-43 -62 -43 -199q0 -135 43 -196q20 -33 58 -33
q37 0 57 33q43 61 43 196q0 137 -43 199q-20 33 -57 33zM846 1233q0 -60 -44 -104t-104 -44q-62 0 -106.5 43.5t-44.5 106.5q0 61 44 103t105 42q62 0 106 -43t44 -104zM453 1233q0 -60 -44 -104t-104 -44q-62 0 -106.5 43.5t-44.5 106.5q0 61 44 103t105 42q62 0 106 -43
t44 -104z" />
    <glyph glyph-name="uni04E8" unicode="&#x4e8;" horiz-adv-x="1161" 
d="M1100 684q0 -205 -55.5 -353.5t-145.5 -232.5q-129 -123 -317 -123q-191 0 -320 123q-90 84 -145.5 232.5t-55.5 353.5q0 105 16.5 198.5t39 153.5t53.5 112.5t51 76t41 43.5q129 123 320 123q188 0 317 -123q21 -20 41 -43.5t51 -76t53.5 -112.5t39 -153.5t16.5 -198.5z
M455 825h252q-2 57 -16.5 117t-43.5 88q-28 25 -65 25q-41 0 -66 -25q-29 -29 -44 -89.5t-17 -115.5zM709 541h-256q0 -58 18 -120t49 -89q24 -21 60 -21q35 0 63 25q32 29 48 88.5t18 116.5z" />
    <glyph glyph-name="uni04E9" unicode="&#x4e9;" horiz-adv-x="997" 
d="M944 479q0 -110 -35 -213t-104 -170q-116 -116 -305 -116t-305 116q-69 68 -104.5 170.5t-35.5 212.5q0 108 35.5 210t104.5 171q117 117 305 117t305 -117q69 -69 104 -170.5t35 -210.5zM399 590h201q-4 76 -45 117q-24 24 -57 24q-34 0 -54 -20q-20 -18 -31.5 -54
t-13.5 -67zM596 373h-193q5 -88 46 -127q21 -21 51 -21t51 21q40 38 45 127z" />
    <glyph glyph-name="uni04EA" unicode="&#x4ea;" horiz-adv-x="1161" 
d="M1100 684q0 -205 -55.5 -353.5t-145.5 -232.5q-129 -123 -317 -123q-191 0 -320 123q-90 84 -145.5 232.5t-55.5 353.5q0 105 16.5 198.5t39 153.5t53.5 112.5t51 76t41 43.5q129 123 320 123q188 0 317 -123q21 -20 41 -43.5t51 -76t53.5 -112.5t39 -153.5t16.5 -198.5z
M455 825h252q-2 57 -16.5 117t-43.5 88q-28 25 -65 25q-41 0 -66 -25q-29 -29 -44 -89.5t-17 -115.5zM709 541h-256q0 -58 18 -120t49 -89q24 -21 60 -21q35 0 63 25q32 29 48 88.5t18 116.5zM926 1622q0 -60 -44 -103.5t-104 -43.5q-62 0 -106.5 43.5t-44.5 105.5
q0 61 44 103t105 42q62 0 106 -43t44 -104zM532 1622q0 -60 -43.5 -103.5t-103.5 -43.5q-62 0 -107 43.5t-45 105.5q0 61 44.5 103t105.5 42q62 0 105.5 -43t43.5 -104z" />
    <glyph glyph-name="uni04EB" unicode="&#x4eb;" horiz-adv-x="997" 
d="M944 479q0 -110 -35 -213t-104 -170q-116 -116 -305 -116t-305 116q-69 68 -104.5 170.5t-35.5 212.5q0 108 35.5 210t104.5 171q117 117 305 117t305 -117q69 -69 104 -170.5t35 -210.5zM399 590h201q-4 76 -45 117q-24 24 -57 24q-34 0 -54 -20q-20 -18 -31.5 -54
t-13.5 -67zM596 373h-193q5 -88 46 -127q21 -21 51 -21t51 21q40 38 45 127zM846 1233q0 -60 -44 -104t-104 -44q-62 0 -106.5 43.5t-44.5 106.5q0 61 44 103t105 42q62 0 106 -43t44 -104zM453 1233q0 -60 -44 -104t-104 -44q-62 0 -106.5 43.5t-44.5 106.5q0 61 44 103
t105 42q62 0 106 -43t44 -104z" />
    <glyph glyph-name="uni04EE" unicode="&#x4ee;" horiz-adv-x="1044" 
d="M10 1366h385l68 -219q53 -163 69 -301q22 157 64 307l57 213h381l-483 -1366h-371l164 461zM877 1522h-697v192h697v-192z" />
    <glyph glyph-name="uni04EF" unicode="&#x4ef;" horiz-adv-x="933" 
d="M934 956l-453 -1396h-364l168 479l-285 917h356q6 -23 22.5 -87.5t23.5 -94t20 -86t20 -94t15 -87t12 -93.5q2 12 11 80t13 93.5t13.5 74.5t19.5 88l54 206h354zM817 1133h-696v192h696v-192z" />
    <glyph glyph-name="uni04F0" unicode="&#x4f0;" horiz-adv-x="1044" 
d="M10 1366h385l68 -219q53 -163 69 -301q22 157 64 307l57 213h381l-483 -1366h-371l164 461zM868 1622q0 -60 -43.5 -103.5t-103.5 -43.5q-62 0 -107 43.5t-45 105.5q0 61 44.5 103t105.5 42q62 0 105.5 -43t43.5 -104zM475 1622q0 -60 -43.5 -103.5t-103.5 -43.5
q-62 0 -107 43.5t-45 105.5q0 61 44.5 103t105.5 42q62 0 105.5 -43t43.5 -104z" />
    <glyph glyph-name="uni04F1" unicode="&#x4f1;" horiz-adv-x="933" 
d="M934 956l-453 -1396h-364l168 479l-285 917h356q6 -23 22.5 -87.5t23.5 -94t20 -86t20 -94t15 -87t12 -93.5q2 12 11 80t13 93.5t13.5 74.5t19.5 88l54 206h354zM813 1233q0 -60 -43.5 -104t-103.5 -44q-62 0 -107 44t-45 106q0 61 44.5 103t105.5 42q62 0 105.5 -43
t43.5 -104zM420 1233q0 -60 -44 -104t-104 -44q-62 0 -106.5 43.5t-44.5 106.5q0 61 44 103t105 42q62 0 106 -43t44 -104z" />
    <glyph glyph-name="uni04F2" unicode="&#x4f2;" horiz-adv-x="1044" 
d="M10 1366h385l68 -219q53 -163 69 -301q22 157 64 307l57 213h381l-483 -1366h-371l164 461zM940 1778l-180 -303h-182l96 303h266zM598 1778l-180 -303h-182l96 303h266z" />
    <glyph glyph-name="uni04F3" unicode="&#x4f3;" horiz-adv-x="933" 
d="M934 956l-453 -1396h-364l168 479l-285 917h356q6 -23 22.5 -87.5t23.5 -94t20 -86t20 -94t15 -87t12 -93.5q2 12 11 80t13 93.5t13.5 74.5t19.5 88l54 206h354zM879 1389l-181 -304h-182l96 304h267zM537 1389l-181 -304h-182l96 304h267z" />
    <glyph glyph-name="uni04F4" unicode="&#x4f4;" horiz-adv-x="1081" 
d="M618 0v543q-109 -23 -184 -23q-153 0 -244 80q-36 32 -59.5 71.5t-33 85.5t-12.5 82t-3 87v440h360v-395q0 -65 27 -94q29 -29 78 -29q36 0 71 14v504h369v-1366h-369zM879 1622q0 -60 -44 -103.5t-104 -43.5q-62 0 -106.5 43.5t-44.5 105.5q0 61 44 103t105 42
q62 0 106 -43t44 -104zM485 1622q0 -60 -43.5 -103.5t-103.5 -43.5q-62 0 -107 43.5t-45 105.5q0 61 44.5 103t105.5 42q62 0 105.5 -43t43.5 -104z" />
    <glyph glyph-name="uni04F5" unicode="&#x4f5;" horiz-adv-x="989" 
d="M551 0v330q-80 -21 -158 -21q-151 0 -235 76q-86 82 -86 256v315h348v-266q0 -54 14 -74q17 -24 55 -24q33 0 62 16v348h356v-956h-356zM850 1233q0 -60 -44 -104t-104 -44q-62 0 -106.5 43.5t-44.5 106.5q0 61 44 103t105 42q62 0 106 -43t44 -104zM457 1233
q0 -60 -44 -104t-104 -44q-62 0 -106.5 43.5t-44.5 106.5q0 61 44 103t105 42q62 0 106 -43t44 -104z" />
    <glyph glyph-name="uni04F8" unicode="&#x4f8;" horiz-adv-x="1540" 
d="M1446 0h-369v1366h369v-1366zM522 0h-426v1366h369v-502h12q137 0 241 -30t175 -107q100 -107 100 -291q0 -212 -116 -323q-120 -113 -355 -113zM465 569v-272q86 -10 127 29q41 38 41 106q0 66 -37 103q-21 21 -57 30.5t-74 3.5zM1116 1622q0 -60 -43.5 -103.5
t-103.5 -43.5q-62 0 -107 43.5t-45 105.5q0 61 44.5 103t105.5 42q62 0 105.5 -43t43.5 -104zM723 1622q0 -60 -44 -103.5t-104 -43.5q-62 0 -106.5 43.5t-44.5 105.5q0 61 44 103t105 42q62 0 106 -43t44 -104z" />
    <glyph glyph-name="uni04F9" unicode="&#x4f9;" horiz-adv-x="1409" 
d="M1358 0h-357v956h357v-956zM438 616h131q191 0 279 -84q82 -77 82 -213q0 -147 -86 -229q-92 -90 -273 -90h-489v956h356v-340zM438 225h13q79 0 110 31q21 21 21 55q0 39 -21 58q-28 26 -110 26h-13v-170zM1051 1233q0 -60 -44 -104t-104 -44q-62 0 -106.5 43.5
t-44.5 106.5q0 61 44 103t105 42q62 0 106 -43t44 -104zM657 1233q0 -60 -43.5 -104t-103.5 -44q-62 0 -107 44t-45 106q0 61 44.5 103t105.5 42q62 0 105.5 -43t43.5 -104z" />
    <glyph glyph-name="uni1E9E" unicode="&#x1e9e;" horiz-adv-x="1085" 
d="M555 856l78 121q0 59 -19 88q-22 31 -65 31q-40 0 -62 -33q-22 -31 -22 -92v-971h-369v936q0 190 119 317q57 61 142 99.5t188 38.5q94 0 165.5 -19.5t139.5 -75.5q127 -103 137 -292l-162 -203q75 -23 125 -82q74 -85 74 -279q0 -94 -37.5 -180t-103.5 -147
q-122 -113 -328 -113v297q92 13 92 162q0 144 -92 155v242z" />
    <glyph glyph-name="uni2010" unicode="&#x2010;" horiz-adv-x="649" 
d="M547 381h-445v274h445v-274z" />
    <glyph glyph-name="uni2011" unicode="&#x2011;" horiz-adv-x="649" 
d="M547 381h-445v274h445v-274z" />
    <glyph glyph-name="figuredash" unicode="&#x2012;" horiz-adv-x="1175" 
d="M1032 571h-889v246h889v-246z" />
    <glyph glyph-name="endash" unicode="&#x2013;" horiz-adv-x="1175" 
d="M1032 395h-889v246h889v-246z" />
    <glyph glyph-name="emdash" unicode="&#x2014;" horiz-adv-x="1679" 
d="M1536 395h-1393v246h1393v-246z" />
    <glyph glyph-name="afii00208" unicode="&#x2015;" horiz-adv-x="1679" 
d="M1536 395h-1393v246h1393v-246z" />
    <glyph glyph-name="quoteleft" unicode="&#x2018;" horiz-adv-x="679" 
d="M610 1477l-166 -658h-362l237 658h291z" />
    <glyph glyph-name="quoteright" unicode="&#x2019;" horiz-adv-x="663" 
d="M596 1477l-238 -658h-290l165 658h363z" />
    <glyph glyph-name="quotesinglbase" unicode="&#x201a;" horiz-adv-x="665" 
d="M598 326l-240 -656h-290l168 656h362z" />
    <glyph glyph-name="quotedblleft" unicode="&#x201c;" horiz-adv-x="1163" 
d="M1096 1477l-168 -658h-361l238 658h291zM610 1477l-166 -658h-362l237 658h291z" />
    <glyph glyph-name="quotedblright" unicode="&#x201d;" horiz-adv-x="1163" 
d="M1096 1477l-238 -658h-291l166 658h363zM610 1477l-237 -658h-291l168 658h360z" />
    <glyph glyph-name="quotedblbase" unicode="&#x201e;" horiz-adv-x="1150" 
d="M1081 326l-237 -656h-291l168 656h360zM598 326l-240 -656h-290l168 656h362z" />
    <glyph glyph-name="dagger" unicode="&#x2020;" horiz-adv-x="1091" 
d="M1038 872h-327v-1300h-328v1300h-328v287h328v334h328v-334h327v-287z" />
    <glyph glyph-name="daggerdbl" unicode="&#x2021;" horiz-adv-x="1091" 
d="M1038 186h-327v-614h-328v614h-328v281h328v407h-328v283h328v336h328v-336h327v-283h-327v-407h327v-281z" />
    <glyph glyph-name="bullet" unicode="&#x2022;" horiz-adv-x="2048" 
d="M1307 696q0 -116 -82.5 -201t-198.5 -85q-118 0 -200.5 84t-82.5 202t82.5 202.5t200.5 84.5q116 0 198.5 -85.5t82.5 -201.5z" />
    <glyph glyph-name="ellipsis" unicode="&#x2026;" horiz-adv-x="2048" 
d="M1915 184q0 -84 -61 -144t-146 -60q-86 0 -147.5 61t-61.5 147q0 85 60 145t145 60q86 0 148.5 -61.5t62.5 -147.5zM1231 184q0 -85 -60 -144.5t-145 -59.5q-86 0 -147.5 61t-61.5 147q0 85 60 145t145 60q86 0 147.5 -61.5t61.5 -147.5zM549 184q0 -84 -61 -144
t-146 -60q-86 0 -147.5 61t-61.5 147q0 85 61 145t146 60q86 0 147.5 -61.5t61.5 -147.5z" />
    <glyph glyph-name="perthousand" unicode="&#x2030;" horiz-adv-x="2172" 
d="M647 1028q0 -99 -31 -177.5t-98 -127.5t-160 -49q-148 0 -225.5 97.5t-77.5 258.5q0 155 78 249.5t221 94.5q138 0 215.5 -97t77.5 -249zM408 1030q0 144 -56 144q-57 0 -57 -152q0 -150 57 -150q56 0 56 158zM1137 1366l-590 -1366h-189l594 1366h185zM1436 344
q0 -99 -31 -177.5t-98 -127.5t-160 -49q-148 0 -225.5 97.5t-77.5 258.5q0 155 78 249.5t221 94.5q138 0 215.5 -97t77.5 -249zM1196 346q0 143 -55 143q-58 0 -58 -151q0 -150 58 -150q55 0 55 158zM2120 344q0 -99 -31 -177.5t-98 -127.5t-160 -49q-148 0 -225.5 97.5
t-77.5 258.5q0 155 78 249.5t221 94.5q138 0 215.5 -97t77.5 -249zM1880 346q0 143 -55 143q-58 0 -58 -151q0 -150 58 -150q55 0 55 158z" />
    <glyph glyph-name="guilsinglleft" unicode="&#x2039;" horiz-adv-x="579" 
d="M524 145l-159 -118l-310 462l310 463l159 -118l-231 -345z" />
    <glyph glyph-name="guilsinglright" unicode="&#x203a;" horiz-adv-x="579" 
d="M55 145l232 344l-232 345l160 118l309 -463l-309 -462z" />
    <glyph glyph-name="fraction" unicode="&#x2044;" horiz-adv-x="122" 
d="M451 1366l-590 -1366h-189l594 1366h185z" />
    <glyph glyph-name="Euro" unicode="&#x20ac;" horiz-adv-x="1089" 
d="M1047 420l-23 -395q-66 -28 -111 -39t-108 -11q-215 0 -353 132t-186 350h-215l64 159h131q-2 23 -2 70q0 33 2 49h-193l66 160h147q51 229 201.5 362.5t380.5 133.5q57 0 94 -7t88 -28v-389q-40 42 -79 62t-91 20q-145 0 -207 -154h359l-78 -160h-311q-2 -16 -2 -51
q0 -45 2 -68h274l-63 -159h-170q62 -125 190 -125q56 0 100.5 22.5t92.5 65.5z" />
    <glyph glyph-name="uni20B4" unicode="&#x20b4;" horiz-adv-x="1089" 
d="M219 1034v287q98 35 127 43q102 27 207 27q158 0 250 -64q98 -69 98 -197q0 -111 -70 -198h164v-193h-250l-94 -135h344v-190h-417q-29 -32 -29 -72q0 -44 35 -66q28 -18 80 -18q62 0 129 18q56 17 100 43v-286q-85 -28 -135 -39q-102 -19 -180 -19q-76 0 -154 16.5
t-129 49.5q-117 76 -117 223q0 88 43 150h-127v190h238l94 135h-332v193h418q27 34 27 76q0 49 -35 79q-34 27 -86 27t-117 -31q-37 -18 -82 -49z" />
    <glyph glyph-name="uni20B6" unicode="&#x20b6;" horiz-adv-x="1089" 
d="M512 1366q186 0 303 -51q119 -53 182.5 -161t63.5 -232q0 -125 -36 -209.5t-109 -131.5t-166.5 -66t-225.5 -19v-136h287v-190h-287v-170h-368v170h-146v190h146v136h-146v225h146v645h356zM524 721h39q57 0 91 48t34 122q0 73 -31.5 124.5t-87.5 51.5h-45v-346z" />
    <glyph glyph-name="uni20B6" unicode="&#x20cf;" horiz-adv-x="1089" 
d="M512 1366q186 0 303 -51q119 -53 182.5 -161t63.5 -232q0 -125 -36 -209.5t-109 -131.5t-166.5 -66t-225.5 -19v-136h287v-190h-287v-170h-368v170h-146v190h146v136h-146v225h146v645h356zM524 721h39q57 0 91 48t34 122q0 73 -31.5 124.5t-87.5 51.5h-45v-346z" />
    <glyph glyph-name="uni20B6" unicode="&#x20ce;" horiz-adv-x="1089" 
d="M512 1366q186 0 303 -51q119 -53 182.5 -161t63.5 -232q0 -125 -36 -209.5t-109 -131.5t-166.5 -66t-225.5 -19v-136h287v-190h-287v-170h-368v170h-146v190h146v136h-146v225h146v645h356zM524 721h39q57 0 91 48t34 122q0 73 -31.5 124.5t-87.5 51.5h-45v-346z" />
    <glyph glyph-name="uni20B6" unicode="&#x20cd;" horiz-adv-x="1089" 
d="M512 1366q186 0 303 -51q119 -53 182.5 -161t63.5 -232q0 -125 -36 -209.5t-109 -131.5t-166.5 -66t-225.5 -19v-136h287v-190h-287v-170h-368v170h-146v190h146v136h-146v225h146v645h356zM524 721h39q57 0 91 48t34 122q0 73 -31.5 124.5t-87.5 51.5h-45v-346z" />
    <glyph glyph-name="uni20B6" unicode="&#x20cc;" horiz-adv-x="1089" 
d="M512 1366q186 0 303 -51q119 -53 182.5 -161t63.5 -232q0 -125 -36 -209.5t-109 -131.5t-166.5 -66t-225.5 -19v-136h287v-190h-287v-170h-368v170h-146v190h146v136h-146v225h146v645h356zM524 721h39q57 0 91 48t34 122q0 73 -31.5 124.5t-87.5 51.5h-45v-346z" />
    <glyph glyph-name="uni20B6" unicode="&#x20cb;" horiz-adv-x="1089" 
d="M512 1366q186 0 303 -51q119 -53 182.5 -161t63.5 -232q0 -125 -36 -209.5t-109 -131.5t-166.5 -66t-225.5 -19v-136h287v-190h-287v-170h-368v170h-146v190h146v136h-146v225h146v645h356zM524 721h39q57 0 91 48t34 122q0 73 -31.5 124.5t-87.5 51.5h-45v-346z" />
    <glyph glyph-name="uni20B6" unicode="&#x20ca;" horiz-adv-x="1089" 
d="M512 1366q186 0 303 -51q119 -53 182.5 -161t63.5 -232q0 -125 -36 -209.5t-109 -131.5t-166.5 -66t-225.5 -19v-136h287v-190h-287v-170h-368v170h-146v190h146v136h-146v225h146v645h356zM524 721h39q57 0 91 48t34 122q0 73 -31.5 124.5t-87.5 51.5h-45v-346z" />
    <glyph glyph-name="uni20B6" unicode="&#x20c9;" horiz-adv-x="1089" 
d="M512 1366q186 0 303 -51q119 -53 182.5 -161t63.5 -232q0 -125 -36 -209.5t-109 -131.5t-166.5 -66t-225.5 -19v-136h287v-190h-287v-170h-368v170h-146v190h146v136h-146v225h146v645h356zM524 721h39q57 0 91 48t34 122q0 73 -31.5 124.5t-87.5 51.5h-45v-346z" />
    <glyph glyph-name="uni20B6" unicode="&#x20c8;" horiz-adv-x="1089" 
d="M512 1366q186 0 303 -51q119 -53 182.5 -161t63.5 -232q0 -125 -36 -209.5t-109 -131.5t-166.5 -66t-225.5 -19v-136h287v-190h-287v-170h-368v170h-146v190h146v136h-146v225h146v645h356zM524 721h39q57 0 91 48t34 122q0 73 -31.5 124.5t-87.5 51.5h-45v-346z" />
    <glyph glyph-name="uni20B6" unicode="&#x20c7;" horiz-adv-x="1089" 
d="M512 1366q186 0 303 -51q119 -53 182.5 -161t63.5 -232q0 -125 -36 -209.5t-109 -131.5t-166.5 -66t-225.5 -19v-136h287v-190h-287v-170h-368v170h-146v190h146v136h-146v225h146v645h356zM524 721h39q57 0 91 48t34 122q0 73 -31.5 124.5t-87.5 51.5h-45v-346z" />
    <glyph glyph-name="uni20B6" unicode="&#x20c6;" horiz-adv-x="1089" 
d="M512 1366q186 0 303 -51q119 -53 182.5 -161t63.5 -232q0 -125 -36 -209.5t-109 -131.5t-166.5 -66t-225.5 -19v-136h287v-190h-287v-170h-368v170h-146v190h146v136h-146v225h146v645h356zM524 721h39q57 0 91 48t34 122q0 73 -31.5 124.5t-87.5 51.5h-45v-346z" />
    <glyph glyph-name="uni20B6" unicode="&#x20c5;" horiz-adv-x="1089" 
d="M512 1366q186 0 303 -51q119 -53 182.5 -161t63.5 -232q0 -125 -36 -209.5t-109 -131.5t-166.5 -66t-225.5 -19v-136h287v-190h-287v-170h-368v170h-146v190h146v136h-146v225h146v645h356zM524 721h39q57 0 91 48t34 122q0 73 -31.5 124.5t-87.5 51.5h-45v-346z" />
    <glyph glyph-name="uni20B6" unicode="&#x20c4;" horiz-adv-x="1089" 
d="M512 1366q186 0 303 -51q119 -53 182.5 -161t63.5 -232q0 -125 -36 -209.5t-109 -131.5t-166.5 -66t-225.5 -19v-136h287v-190h-287v-170h-368v170h-146v190h146v136h-146v225h146v645h356zM524 721h39q57 0 91 48t34 122q0 73 -31.5 124.5t-87.5 51.5h-45v-346z" />
    <glyph glyph-name="uni20B6" unicode="&#x20c3;" horiz-adv-x="1089" 
d="M512 1366q186 0 303 -51q119 -53 182.5 -161t63.5 -232q0 -125 -36 -209.5t-109 -131.5t-166.5 -66t-225.5 -19v-136h287v-190h-287v-170h-368v170h-146v190h146v136h-146v225h146v645h356zM524 721h39q57 0 91 48t34 122q0 73 -31.5 124.5t-87.5 51.5h-45v-346z" />
    <glyph glyph-name="uni20B6" unicode="&#x20c2;" horiz-adv-x="1089" 
d="M512 1366q186 0 303 -51q119 -53 182.5 -161t63.5 -232q0 -125 -36 -209.5t-109 -131.5t-166.5 -66t-225.5 -19v-136h287v-190h-287v-170h-368v170h-146v190h146v136h-146v225h146v645h356zM524 721h39q57 0 91 48t34 122q0 73 -31.5 124.5t-87.5 51.5h-45v-346z" />
    <glyph glyph-name="uni20B6" unicode="&#x20c1;" horiz-adv-x="1089" 
d="M512 1366q186 0 303 -51q119 -53 182.5 -161t63.5 -232q0 -125 -36 -209.5t-109 -131.5t-166.5 -66t-225.5 -19v-136h287v-190h-287v-170h-368v170h-146v190h146v136h-146v225h146v645h356zM524 721h39q57 0 91 48t34 122q0 73 -31.5 124.5t-87.5 51.5h-45v-346z" />
    <glyph glyph-name="uni20B6" unicode="&#x20c0;" horiz-adv-x="1089" 
d="M512 1366q186 0 303 -51q119 -53 182.5 -161t63.5 -232q0 -125 -36 -209.5t-109 -131.5t-166.5 -66t-225.5 -19v-136h287v-190h-287v-170h-368v170h-146v190h146v136h-146v225h146v645h356zM524 721h39q57 0 91 48t34 122q0 73 -31.5 124.5t-87.5 51.5h-45v-346z" />
    <glyph glyph-name="uni20B6" unicode="&#x20bf;" horiz-adv-x="1089" 
d="M512 1366q186 0 303 -51q119 -53 182.5 -161t63.5 -232q0 -125 -36 -209.5t-109 -131.5t-166.5 -66t-225.5 -19v-136h287v-190h-287v-170h-368v170h-146v190h146v136h-146v225h146v645h356zM524 721h39q57 0 91 48t34 122q0 73 -31.5 124.5t-87.5 51.5h-45v-346z" />
    <glyph glyph-name="uni20B6" unicode="&#x20be;" horiz-adv-x="1089" 
d="M512 1366q186 0 303 -51q119 -53 182.5 -161t63.5 -232q0 -125 -36 -209.5t-109 -131.5t-166.5 -66t-225.5 -19v-136h287v-190h-287v-170h-368v170h-146v190h146v136h-146v225h146v645h356zM524 721h39q57 0 91 48t34 122q0 73 -31.5 124.5t-87.5 51.5h-45v-346z" />
    <glyph glyph-name="uni20B6" unicode="&#x20bd;" horiz-adv-x="1089" 
d="M512 1366q186 0 303 -51q119 -53 182.5 -161t63.5 -232q0 -125 -36 -209.5t-109 -131.5t-166.5 -66t-225.5 -19v-136h287v-190h-287v-170h-368v170h-146v190h146v136h-146v225h146v645h356zM524 721h39q57 0 91 48t34 122q0 73 -31.5 124.5t-87.5 51.5h-45v-346z" />
    <glyph glyph-name="uni20B6" unicode="&#x20bc;" horiz-adv-x="1089" 
d="M512 1366q186 0 303 -51q119 -53 182.5 -161t63.5 -232q0 -125 -36 -209.5t-109 -131.5t-166.5 -66t-225.5 -19v-136h287v-190h-287v-170h-368v170h-146v190h146v136h-146v225h146v645h356zM524 721h39q57 0 91 48t34 122q0 73 -31.5 124.5t-87.5 51.5h-45v-346z" />
    <glyph glyph-name="uni20B6" unicode="&#x20bb;" horiz-adv-x="1089" 
d="M512 1366q186 0 303 -51q119 -53 182.5 -161t63.5 -232q0 -125 -36 -209.5t-109 -131.5t-166.5 -66t-225.5 -19v-136h287v-190h-287v-170h-368v170h-146v190h146v136h-146v225h146v645h356zM524 721h39q57 0 91 48t34 122q0 73 -31.5 124.5t-87.5 51.5h-45v-346z" />
    <glyph glyph-name="uni20B6" unicode="&#x20ba;" horiz-adv-x="1089" 
d="M512 1366q186 0 303 -51q119 -53 182.5 -161t63.5 -232q0 -125 -36 -209.5t-109 -131.5t-166.5 -66t-225.5 -19v-136h287v-190h-287v-170h-368v170h-146v190h146v136h-146v225h146v645h356zM524 721h39q57 0 91 48t34 122q0 73 -31.5 124.5t-87.5 51.5h-45v-346z" />
    <glyph glyph-name="uni20B6" unicode="&#x20b9;" horiz-adv-x="1089" 
d="M512 1366q186 0 303 -51q119 -53 182.5 -161t63.5 -232q0 -125 -36 -209.5t-109 -131.5t-166.5 -66t-225.5 -19v-136h287v-190h-287v-170h-368v170h-146v190h146v136h-146v225h146v645h356zM524 721h39q57 0 91 48t34 122q0 73 -31.5 124.5t-87.5 51.5h-45v-346z" />
    <glyph glyph-name="uni20B6" unicode="&#x20b7;" horiz-adv-x="1089" 
d="M512 1366q186 0 303 -51q119 -53 182.5 -161t63.5 -232q0 -125 -36 -209.5t-109 -131.5t-166.5 -66t-225.5 -19v-136h287v-190h-287v-170h-368v170h-146v190h146v136h-146v225h146v645h356zM524 721h39q57 0 91 48t34 122q0 73 -31.5 124.5t-87.5 51.5h-45v-346z" />
    <glyph glyph-name="uni20B8" unicode="&#x20b8;" horiz-adv-x="1089" 
d="M938 731h-213v-731h-369v731h-202v307h784v-307zM938 1141h-784v225h784v-225z" />
    <glyph glyph-name="afii61352" unicode="&#x2116;" horiz-adv-x="1800" 
d="M1057 0h-352q-24 66 -71.5 191t-77 203.5t-66.5 188t-64 203.5q23 -334 23 -438v-348h-353v1366h353l184 -479q19 -51 37.5 -107t41 -129t33.5 -108q-40 336 -40 504v319h352v-1366zM1739 1055q0 -144 -77 -235t-220 -91q-141 0 -217 92.5t-76 235.5t76.5 238.5
t216.5 95.5q144 0 220.5 -94.5t76.5 -241.5zM1700 401h-512v205h512v-205zM1509 1059q0 22 -2 43.5t-8 49t-20 45t-35 17.5q-19 0 -33 -18t-20.5 -45t-9.5 -50t-3 -42q0 -21 2.5 -42.5t8.5 -48t20 -43t35 -16.5q20 0 34 17.5t20 44.5t8.5 48.5t2.5 39.5z" />
    <glyph glyph-name="uni2117" unicode="&#x2117;" horiz-adv-x="1558" 
d="M512 1083h221q161 0 244 -79q74 -74 74 -195q0 -112 -62 -178q-71 -76 -233 -76h-21v-240h-223v768zM735 731h4q41 0 64 23q24 24 24 67q0 41 -24 62q-22 20 -62 20h-6v-172zM1489 682q0 -147 -55.5 -274.5t-149.5 -225.5q-37 -38 -81 -71t-107 -67.5t-145.5 -54.5
t-172.5 -20t-172.5 20t-145.5 54.5t-107 67.5t-81 71q-94 96 -149 224t-55 278q0 147 55 275t149 225q37 38 81 71t107 67.5t145.5 54.5t172.5 20t172.5 -20t145.5 -54.5t107 -67.5t81 -71q94 -96 149.5 -224t55.5 -278zM778 1247q-218 0 -375 -153q-172 -168 -172 -412
t172 -412q157 -153 375 -153t375 153q172 168 172 412t-172 412q-157 153 -375 153z" />
    <glyph glyph-name="trademark" unicode="&#x2122;" horiz-adv-x="1363" 
d="M1333 588h-237l-19 399l-78 -399h-186l-63 379l-23 -379h-244l92 778h281l57 -336l66 336h276zM461 1169h-123v-581h-227v581h-117v197h467v-197z" />
    <glyph glyph-name="partialdiff" unicode="&#x2202;" 
d="M113 1141l34 229q183 -20 328 -68t262 -149q129 -111 194.5 -267.5t65.5 -334.5q0 -118 -32 -220.5t-93.5 -180.5t-158.5 -123t-219 -45q-196 0 -336 137t-140 332q0 183 121 308.5t303 125.5q153 0 248 -92q-125 303 -577 348zM498 662h-21q-16 0 -61 -17
q-58 -24 -90.5 -79t-32.5 -120q0 -94 57 -159.5t150 -65.5q92 0 150.5 65t58.5 158t-59 155.5t-152 62.5z" />
    <glyph glyph-name="product" unicode="&#x220f;" horiz-adv-x="1501" 
d="M1419 -512h-600v240h164v1568h-463v-1568h160v-240h-598v240h170v1568h-170v240h1337v-240h-168v-1568h168v-240z" />
    <glyph glyph-name="summation" unicode="&#x2211;" horiz-adv-x="1366" 
d="M1288 -512h-1245v266l498 793l-498 723v266h1227v-506h-240l-26 266h-662l512 -749l-512 -819h680l16 272h250v-512z" />
    <glyph glyph-name="minus" unicode="&#x2212;" 
d="M956 573h-888v246h888v-246z" />
    <glyph glyph-name="uni2215" unicode="&#x2215;" horiz-adv-x="1280" 
d="M1194 1493l-1040 -1935h-246l1040 1935h246z" />
    <glyph glyph-name="uni2219" unicode="&#x2219;" horiz-adv-x="669" 
d="M575 694q0 -99 -71 -168t-170 -69q-100 0 -171 70.5t-71 170.5q0 98 71 168t169 70q100 0 171.5 -71t71.5 -171z" />
    <glyph glyph-name="radical" unicode="&#x221a;" horiz-adv-x="1366" 
d="M1366 1454h-367l-337 -1454h-353l-116 555h-193v238h414l37 -172q21 -107 26 -299h23q17 286 88 593l180 779h598v-240z" />
    <glyph glyph-name="infinity" unicode="&#x221e;" horiz-adv-x="1366" 
d="M1331 696q0 -146 -93.5 -241t-238.5 -95q-168 0 -309 162q-148 -162 -321 -162q-146 0 -240 94t-94 240q0 145 93.5 239.5t238.5 94.5q93 0 165 -41t144 -119q146 160 319 160q147 0 241.5 -92.5t94.5 -239.5zM1057 696q0 40 -31 67.5t-72 27.5q-73 0 -141 -97
q73 -94 141 -94q41 0 72 28t31 68zM551 694q-66 94 -139 94q-41 0 -72 -27t-31 -67t31 -67t72 -27q73 0 139 94z" />
    <glyph glyph-name="integral" unicode="&#x222b;" 
d="M930 1516l-49 -238q-62 20 -115 20q-67 0 -92 -37.5t-25 -107.5v-1102q0 -13 0.5 -71t0 -82t-4 -75t-11 -81t-22.5 -67.5t-37 -65.5q-97 -121 -288 -121q-88 0 -193 20l49 238q62 -20 115 -20q22 0 39.5 3.5t29.5 12.5t20.5 17t13.5 24.5t8 26.5t4.5 32t1.5 32v34v90
v1089q0 147 22 228q32 112 125 166.5t217 54.5q65 0 191 -20z" />
    <glyph glyph-name="approxequal" unicode="&#x2248;" 
d="M860 1081l150 -88q-30 -64 -55 -105.5t-64 -84t-90.5 -63.5t-116.5 -21q-61 0 -195 51t-178 51q-57 0 -89 -31.5t-62 -93.5l-146 97q25 63 48.5 107.5t60 88t87.5 66t116 22.5q69 0 195 -50t192 -50q53 0 85 26t62 78zM860 664l150 -86q-30 -64 -55 -105.5t-64 -84.5
t-90.5 -64t-116.5 -21q-66 0 -193.5 51.5t-179.5 51.5q-57 0 -87.5 -30.5t-63.5 -94.5l-146 94q17 42 31.5 72.5t35 66.5t43.5 60t53 45.5t67.5 32t81.5 10.5q69 0 197.5 -51.5t189.5 -51.5q50 0 83 27t64 78z" />
    <glyph glyph-name="notequal" unicode="&#x2260;" 
d="M956 350h-493l-101 -194h-208l96 194h-180v240h288l70 137h-358v238h467l112 221h209l-110 -221h208v-238h-317l-70 -137h387v-240z" />
    <glyph glyph-name="lessequal" unicode="&#x2264;" 
d="M956 297l-888 426v223l888 424v-248l-608 -288l606 -289zM956 0h-888v240h888v-240z" />
    <glyph glyph-name="greaterequal" unicode="&#x2265;" 
d="M956 723l-888 -426v248l608 289l-606 288l-2 248l888 -424v-223zM956 0h-888v240h888v-240z" />
    <glyph glyph-name="dotmath" unicode="&#x22c5;" horiz-adv-x="669" 
d="M575 694q0 -99 -71 -168t-170 -69q-100 0 -171 70.5t-71 170.5q0 98 71 168t169 70q100 0 171.5 -71t71.5 -171z" />
    <glyph glyph-name="lozenge" unicode="&#x25ca;" horiz-adv-x="1366" 
d="M1214 684l-532 -737l-530 737l530 735zM903 684l-221 303l-219 -303l219 -303z" />
    <glyph glyph-name="openbullet" unicode="&#x25e6;" 
d="M827 1042q0 -129 -93 -221t-222 -92t-222 92t-93 221q0 128 93.5 219t221.5 91t221.5 -91t93.5 -219zM670 1042q0 64 -47 109t-111 45t-111 -45t-47 -109q0 -65 46.5 -110t111.5 -45t111.5 45.5t46.5 109.5z" />
    <glyph glyph-name="uniF400" unicode="&#xf400;" horiz-adv-x="4" 
d="M-182 1389l-180 -304h-203l96 304h287z" />
    <glyph glyph-name="uniF401" unicode="&#xf401;" horiz-adv-x="4" 
d="M-244 1778l-180 -303h-203l97 303h286z" />
    <glyph glyph-name="uniF406" unicode="&#xf406;" 
d="M698 1776h142q-12 -140 -100 -223t-228 -83t-228 83t-100 223h142q26 -64 69 -86.5t117 -22.5t117 22.5t69 86.5z" />
    <glyph glyph-name="uniF407" unicode="&#xf407;" 
d="M782 -231l-254 -254l-157 108l221 281z" />
    <glyph glyph-name="uniF408" unicode="&#xf408;" 
d="M526 1782l281 -201l-117 -135l-170 115l-168 -119l-125 135z" />
    <glyph glyph-name="uniF409" unicode="&#xf409;" horiz-adv-x="512" 
d="M444 -92l-163 -387h-209l71 387h301z" />
    <glyph glyph-name="uniF40A" unicode="&#xf40a;" horiz-adv-x="524" 
d="M457 1366l-185 -428h-204l94 428h295z" />
    <glyph glyph-name="uniF40B" unicode="&#xf40b;" 
d="M668 1628q0 -63 -45.5 -108t-108.5 -45q-65 0 -111.5 45t-46.5 110q0 64 45.5 109t110.5 45q64 0 110 -46t46 -110z" />
    <glyph glyph-name="uniF40C" unicode="&#xf40c;" 
d="M362 1659q0 82 57.5 139t139.5 57t139.5 -57t57.5 -139q0 -81 -58 -139t-137 -58q-83 0 -141 58.5t-58 138.5zM483 1659q0 -32 22 -54t54 -22t54 22t22 54t-22 54t-54 22t-54 -22t-22 -54z" />
    <glyph glyph-name="uniF40D" unicode="&#xf40d;" 
d="M860 1751v-29q0 -102 -57.5 -172.5t-157.5 -70.5q-54 0 -131.5 33.5t-107.5 33.5q-56 0 -56 -71h-186v4q0 53 11 98.5t34 84t64.5 61t97.5 22.5q53 0 134 -34t113 -34q58 0 58 74h184z" />
    <glyph glyph-name="uniF40E" unicode="&#xf40e;" 
d="M711 -188l-17 -144q-42 -18 -88 -18q-52 0 -98.5 16.5t-79.5 55.5t-33 92q0 93 109 186h125q-70 -62 -70 -129q0 -35 23 -53.5t59 -18.5q33 0 70 13z" />
    <glyph glyph-name="uniF4C6" unicode="&#xf4c6;" horiz-adv-x="1081" 
d="M442 1366v-395q0 -65 27 -94q29 -29 78 -29q36 0 71 14v504h369v-1450q0 -39 -1.5 -64t-8.5 -67.5t-25 -79t-47 -65.5q-76 -76 -241 -76q-102 0 -183 24v285q25 -25 60 -25q36 0 57 25q5 6 8.5 12.5t5.5 14.5l3.5 14t2 16.5t0.5 14v15.5v13v570q-109 -23 -184 -23
q-153 0 -244 80q-36 32 -59.5 71.5t-33 85.5t-12.5 82t-3 87v440h360z" />
    <glyph glyph-name="uniF4C7" unicode="&#xf4c7;" horiz-adv-x="989" 
d="M551 956h356v-1073q0 -176 -78 -252q-74 -71 -241 -71q-86 0 -160 20v256q21 -14 49 -14q35 0 53 18q21 19 21 70v420q-80 -21 -158 -21q-151 0 -235 76q-86 82 -86 256v315h348v-266q0 -54 14 -74q17 -24 55 -24q33 0 62 16v348z" />
    <glyph glyph-name="uniF4CC" unicode="&#xf4cc;" horiz-adv-x="1044" 
d="M10 1366h385l68 -219q53 -163 69 -301q22 157 64 307l57 213h381l-483 -1366h-371l164 461zM807 1778l-180 -303h-203l96 303h287z" />
    <glyph glyph-name="uniF4CD" unicode="&#xf4cd;" horiz-adv-x="933" 
d="M934 956l-453 -1396h-364l168 479l-285 917h356q6 -23 22.5 -87.5t23.5 -94t20 -86t20 -94t15 -87t12 -93.5q2 12 11 80t13 93.5t13.5 74.5t19.5 88l54 206h354zM756 1389l-181 -304h-202l96 304h287z" />
    <glyph glyph-name="dollar.fitted" unicode="&#xf5f5;" horiz-adv-x="794" 
d="M721 1323v-414q-52 66 -105 106t-118 40q-37 0 -64.5 -21.5t-27.5 -58.5q0 -29 19.5 -55.5t50 -51t68 -51.5t75 -62t68 -77.5t50 -104.5t19.5 -135q0 -158 -92 -286q-36 -51 -72.5 -79.5t-97.5 -58.5v-207h-172v175q-93 3 -148 14.5t-133 46.5v426q42 -66 103.5 -110
t131.5 -44q45 0 77 22.5t32 65.5q0 31 -25.5 64.5t-63.5 63t-83 71t-83 86t-63.5 112.5t-25.5 146q0 180 111 309q40 47 78 72t104 53v191h170v-180q66 -9 110 -23t107 -45z" />
    <glyph glyph-name="Euro.fitted" unicode="&#xf5f6;" horiz-adv-x="1081" 
d="M1016 420l-23 -395q-66 -28 -111 -39t-108 -11q-215 0 -352.5 132t-185.5 350h-216l64 159h131q-2 23 -2 70q0 33 2 49h-192l65 160h148q51 229 201 362.5t380 133.5q57 0 94 -7t88 -28v-389q-40 42 -79 62t-91 20q-144 0 -206 -154h358l-78 -160h-311q-2 -16 -2 -51
q0 -45 2 -68h274l-63 -159h-170q63 -125 190 -125q56 0 100.5 22.5t92.5 65.5z" />
    <glyph glyph-name="cent.fitted" unicode="&#xf5f7;" horiz-adv-x="602" 
d="M549 559v-330q-18 -3 -51 -3.5t-47 -2.5v-176h-172v215q-53 30 -83.5 54.5t-64.5 68.5q-108 141 -108 330q0 192 98 327q33 48 66 73t92 54v222h172v-177q5 0 15 1.5t15 1.5q16 0 68 -9v-303q-76 -4 -117 -51.5t-41 -124.5q0 -65 35.5 -117.5t97.5 -52.5h25z" />
    <glyph glyph-name="sterling.fitted" unicode="&#xf5f8;" horiz-adv-x="1017" 
d="M795 326l182 -99q-92 -252 -324 -252q-78 0 -174 35q-11 4 -36.5 14.5t-38 15t-34 9t-42.5 4.5q-82 0 -176 -61l-103 168q88 64 160 98q23 37 30 64.5t7 72.5q0 79 -35 195h-127v190h68q-50 156 -50 240q0 162 118.5 264t283.5 102q221 0 399 -190l-196 -197
q-21 32 -36 50.5t-42.5 35.5t-59.5 17q-44 0 -71 -34t-27 -79q0 -32 23.5 -106t27.5 -103h330v-190h-307q0 -151 -88 -264q48 -3 77 -11.5t76 -31.5q48 -23 74 -23q68 0 111 66z" />
    <glyph glyph-name="yen.fitted" unicode="&#xf5f9;" horiz-adv-x="1103" 
d="M1063 1366l-174 -434h162v-193h-240l-53 -135h293v-190h-303v-414h-369v414h-328v190h316l-58 135h-258v193h174l-186 434h385q7 -22 32.5 -100t37 -114t29.5 -97t30 -111q62 222 129 422h381z" />
    <glyph glyph-name="florin.fitted" unicode="&#xf5fa;" horiz-adv-x="960" 
d="M942 1493l-45 -283q-11 0 -32.5 3.5t-33.5 3.5q-65 0 -77 -70l-37 -191h143l-37 -192h-145l-131 -680q-33 -171 -120.5 -263.5t-252.5 -92.5q-61 0 -156 26l54 293q40 -4 63 -4q45 0 67 15.5t31 58.5l125 647h-139l35 192h141l43 218q17 83 39.5 140.5t60.5 105.5
t98.5 72t143.5 24q60 0 162 -23z" />
    <glyph glyph-name="uni20B4.fitted" unicode="&#xf5fb;" horiz-adv-x="993" 
d="M170 1034v287q98 35 127 43q102 27 207 27q158 0 250 -64q98 -69 98 -197q0 -111 -70 -198h164v-193h-250l-94 -135h344v-190h-418q-28 -31 -28 -72q0 -44 35 -66q28 -18 79 -18q62 0 129 18q58 17 101 43v-286q-85 -28 -135 -39q-102 -19 -181 -19q-76 0 -153.5 16.5
t-128.5 49.5q-117 76 -117 223q0 88 43 150h-127v190h238l94 135h-332v193h418q26 33 26 76q0 50 -34 79q-35 27 -86 27q-52 0 -117 -31q-37 -18 -82 -49z" />
    <glyph glyph-name="uni20B6.fitted" unicode="&#xf5fc;" horiz-adv-x="1132" 
d="M551 1366q186 0 303 -51q119 -53 182.5 -161t63.5 -232q0 -125 -36 -209.5t-109 -131.5t-166.5 -66t-225.5 -19v-136h287v-190h-287v-170h-368v170h-146v190h146v136h-146v225h146v645h356zM563 721h39q57 0 91 48t34 122q0 73 -31.5 124.5t-87.5 51.5h-45v-346z" />
    <glyph glyph-name="uni20B8.fitted" unicode="&#xf5fd;" horiz-adv-x="870" 
d="M827 731h-213v-731h-368v731h-203v307h784v-307zM827 1141h-784v225h784v-225z" />
    <glyph glyph-name="uniF639" unicode="&#xf639;" horiz-adv-x="1067" 
d="M1016 688q0 -80 -9 -157.5t-29 -160t-56.5 -151.5t-86.5 -125t-124 -87.5t-164 -31.5q-112 0 -200.5 45t-142.5 116.5t-89.5 168.5t-49.5 192t-14 197q0 98 14.5 191t50.5 186.5t90 163t139.5 113t193.5 43.5q107 0 192 -44.5t137.5 -115t86.5 -165.5t47.5 -188
t13.5 -190zM651 643v86q0 36 -1 68t-8 86.5t-19 92t-36.5 66.5t-58.5 29q-114 0 -114 -338q0 -99 8 -178q0 -5 2 -27t3 -34.5t4 -36.5t6.5 -39.5t9 -36.5t13.5 -34.5t18 -26.5t24 -19t30 -6q119 0 119 348z" />
    <glyph glyph-name="uniF63A" unicode="&#xf63a;" horiz-adv-x="1054" 
d="M465 870h-359q-2 16 -2 50q0 203 126.5 337t328.5 134q195 0 316.5 -126t121.5 -321q0 -93 -29 -184t-83 -172.5t-112 -148t-134 -136.5q75 5 340 10v-313h-938l373 498q50 68 77.5 107.5t67.5 107.5t59 130t19 122q0 47 -21.5 84.5t-64.5 37.5q-88 0 -88 -167
q0 -34 2 -50z" />
    <glyph glyph-name="uniF63B" unicode="&#xf63b;" horiz-adv-x="1003" 
d="M424 977h-356q14 188 134 301t308 113q113 0 210 -49.5t156.5 -141.5t59.5 -207q0 -193 -166 -286q182 -107 182 -318q0 -127 -64.5 -222.5t-168.5 -143.5t-230 -48q-190 0 -319 109.5t-129 296.5v20h360q0 -122 91 -122q49 0 74.5 38t25.5 89q0 68 -40 105.5t-108 37.5
q-19 0 -65 -4v291q14 -2 45 -2q76 0 113.5 32t37.5 107q0 45 -18.5 78.5t-60.5 33.5q-67 0 -72 -108z" />
    <glyph glyph-name="uniF63C" unicode="&#xf63c;" horiz-adv-x="1054" 
d="M1006 276h-117v-276h-369v276h-495v289l411 801h453v-795h117v-295zM330 571h202q4 256 15 410q-45 -96 -69 -145t-66.5 -127t-81.5 -138z" />
    <glyph glyph-name="uniF63D" unicode="&#xf63d;" horiz-adv-x="993" 
d="M510 1044l-29 -153q20 2 62 2q173 0 286 -124t113 -298q0 -142 -70 -256.5t-188 -177t-260 -62.5q-194 0 -377 107l45 324q158 -95 291 -95q78 0 134 39.5t56 114.5q0 57 -36 92.5t-81.5 47t-101.5 11.5q-115 0 -239 -47l104 797h680v-322h-389z" />
    <glyph glyph-name="uniF63E" unicode="&#xf63e;" horiz-adv-x="1005" 
d="M784 1366l-219 -389q-29 -54 -67 -107q69 37 131 37q80 0 146 -40.5t106.5 -105t62 -140t21.5 -150.5q0 -217 -130.5 -356.5t-345.5 -139.5q-139 0 -242 68t-153.5 178.5t-50.5 247.5q0 69 18.5 152t40.5 149t66.5 163.5t70.5 148.5t80.5 153t69.5 131h395zM610 465
q0 30 -4 57t-14.5 56t-32.5 46t-53 17q-32 0 -54 -18t-31.5 -48.5t-13.5 -57.5t-4 -58q0 -189 103 -189q104 0 104 195z" />
    <glyph glyph-name="uniF63F" unicode="&#xf63f;" horiz-adv-x="1085" 
d="M1071 1366l-614 -1366h-398l330 727q63 142 176 317h-463v322h969z" />
    <glyph glyph-name="uniF640" unicode="&#xf640;" horiz-adv-x="1034" 
d="M983 389q0 -125 -67 -221.5t-172 -144.5t-228 -48q-88 0 -171 29.5t-148.5 82t-105.5 131t-40 169.5q0 231 232 324q-205 69 -205 286q0 117 60.5 208.5t158.5 138.5t213 47t215.5 -44t166.5 -134t66 -207q0 -206 -188 -295q109 -46 161 -124t52 -198zM594 977
q0 45 -19 82t-59 37q-27 0 -45 -20t-23.5 -44t-5.5 -51q0 -28 5.5 -53.5t24 -47.5t46.5 -22q27 0 45.5 21t24.5 46t6 52zM606 430q0 52 -21.5 94.5t-68.5 42.5q-32 0 -53.5 -25t-29 -55.5t-7.5 -60.5q0 -32 8 -61t29.5 -51.5t54.5 -22.5q25 0 43 13.5t27.5 35.5t13.5 44.5
t4 45.5z" />
    <glyph glyph-name="uniF641" unicode="&#xf641;" horiz-adv-x="1005" 
d="M616 0h-395q13 23 53 96t59.5 107.5t52.5 93t62 106t58 93.5q-64 -39 -129 -39q-80 0 -146 40.5t-106.5 105t-62 140t-21.5 150.5q0 216 130 357t345 141q139 0 242 -67.5t154 -178.5t51 -248q0 -69 -18.5 -151.5t-41 -149.5t-66.5 -163.5t-71 -148.5t-80.5 -152.5
t-69.5 -131.5zM602 907q0 189 -100 189q-107 0 -107 -195q0 -30 4.5 -58t15 -56.5t33 -46t54.5 -17.5q100 0 100 184z" />
    <glyph glyph-name="uniF6BA" unicode="&#xf6ba;" horiz-adv-x="649" 
d="M547 557h-445v274h445v-274z" />
    <glyph glyph-name="uniF6BB" unicode="&#xf6bb;" horiz-adv-x="1175" 
d="M1032 571h-889v246h889v-246z" />
    <glyph glyph-name="uniF6BC" unicode="&#xf6bc;" horiz-adv-x="1679" 
d="M1536 571h-1393v246h1393v-246z" />
    <glyph glyph-name="uniF6C3" unicode="&#xf6c3;" horiz-adv-x="557" 
d="M489 -92l-163 -387h-209l71 387h301z" />
    <glyph glyph-name="uniF6C9" unicode="&#xf6c9;" 
d="M786 1778l-180 -303h-203l97 303h286z" />
    <glyph glyph-name="uniF6CA" unicode="&#xf6ca;" horiz-adv-x="1028" 
d="M807 1642l-305 -200l-275 205l125 141l164 -115l174 111z" />
    <glyph glyph-name="uniF6CB" unicode="&#xf6cb;" 
d="M858 1622q0 -60 -43.5 -103.5t-103.5 -43.5q-62 0 -107 43.5t-45 105.5q0 61 44.5 103t105.5 42q62 0 105.5 -43t43.5 -104zM465 1622q0 -60 -44 -103.5t-104 -43.5q-62 0 -106.5 43.5t-44.5 105.5q0 61 44 103t105 42q62 0 106 -43t44 -104z" />
    <glyph glyph-name="uniF6CE" unicode="&#xf6ce;" 
d="M623 1475h-205l-178 303h284z" />
    <glyph glyph-name="uniF6CF" unicode="&#xf6cf;" 
d="M950 1778l-180 -303h-182l96 303h266zM608 1778l-180 -303h-182l96 303h266z" />
    <glyph glyph-name="uniF6D0" unicode="&#xf6d0;" horiz-adv-x="1021" 
d="M860 1522h-696v192h696v-192z" />
    <glyph glyph-name="uniF6D1" unicode="&#xf6d1;" horiz-adv-x="978" 
d="M625 1790l258 -72q-31 -131 -142 -202q-92 -60 -252 -60q-159 0 -251 60q-111 71 -142 202l258 72q7 -58 45 -88q36 -27 90 -27q57 0 91 27q32 25 45 88z" />
    <glyph glyph-name="uniF6D4" unicode="&#xf6d4;" horiz-adv-x="884" 
d="M551 1386l235 -59q-27 -134 -135 -203q-82 -51 -209 -51t-209 51q-108 69 -135 203l236 59q6 -57 35 -86q23 -26 73 -26q51 0 74 26q29 29 35 86z" />
    <glyph glyph-name="uniF6DC" unicode="&#xf6dc;" horiz-adv-x="626" 
d="M555 0h-369v1044h-147v322h516v-1366z" />
    <glyph glyph-name="uniF6DE" unicode="&#xf6de;" horiz-adv-x="1259" 
d="M1151 395h-1045v246h1045v-246z" />
    <glyph glyph-name="nbspace" horiz-adv-x="477" 
 />
    <glyph glyph-name="hyphenminus" horiz-adv-x="649" 
d="M547 381h-445v274h445v-274z" />
    <glyph glyph-name="dotlessi1" horiz-adv-x="518" 
d="M436 0h-354v956h354v-956z" />
    </font>
</defs>
</svg>
